G04 #@! TF.FileFunction,Legend,Bot*
%FSLAX46Y46*%
G04 Gerber Fmt 4.6, Leading zero omitted, Abs format (unit mm)*
G04 Created by KiCad (PCBNEW 4.0.5+dfsg1-4) date Tue May 16 10:22:51 2017*
%MOMM*%
%LPD*%
G01*
G04 APERTURE LIST*
%ADD10C,0.100000*%
%ADD11C,0.150000*%
G04 APERTURE END LIST*
D10*
D11*
X81475000Y-159770000D02*
X81475000Y-161770000D01*
X83625000Y-161770000D02*
X83625000Y-159770000D01*
X89095000Y-159770000D02*
X89095000Y-161770000D01*
X91245000Y-161770000D02*
X91245000Y-159770000D01*
X87385000Y-159770000D02*
X87385000Y-161770000D01*
X85335000Y-161770000D02*
X85335000Y-159770000D01*
X95005000Y-159770000D02*
X95005000Y-161770000D01*
X92955000Y-161770000D02*
X92955000Y-159770000D01*
X102625000Y-159770000D02*
X102625000Y-161770000D01*
X100575000Y-161770000D02*
X100575000Y-159770000D01*
X110245000Y-159770000D02*
X110245000Y-161770000D01*
X108195000Y-161770000D02*
X108195000Y-159770000D01*
X52315000Y-153400000D02*
X52315000Y-151400000D01*
X54365000Y-151400000D02*
X54365000Y-153400000D01*
X96715000Y-159770000D02*
X96715000Y-161770000D01*
X98865000Y-161770000D02*
X98865000Y-159770000D01*
X104335000Y-159770000D02*
X104335000Y-161770000D01*
X106485000Y-161770000D02*
X106485000Y-159770000D01*
X59250000Y-156480000D02*
X59250000Y-158480000D01*
X61400000Y-158480000D02*
X61400000Y-156480000D01*
X67580000Y-144585000D02*
X69580000Y-144585000D01*
X69580000Y-142435000D02*
X67580000Y-142435000D01*
X69460000Y-161070000D02*
X65860000Y-161070000D01*
X69460000Y-158970000D02*
X65860000Y-158970000D01*
X67410000Y-159720000D02*
X67410000Y-160320000D01*
X67410000Y-160320000D02*
X67710000Y-160020000D01*
X67710000Y-160020000D02*
X67510000Y-159820000D01*
X67510000Y-159820000D02*
X67510000Y-160070000D01*
X67510000Y-160070000D02*
X67560000Y-160020000D01*
X67810000Y-159520000D02*
X67810000Y-160520000D01*
X67310000Y-160020000D02*
X66810000Y-160020000D01*
X67810000Y-160020000D02*
X67310000Y-159520000D01*
X67310000Y-159520000D02*
X67310000Y-160520000D01*
X67310000Y-160520000D02*
X67810000Y-160020000D01*
X106680000Y-138999580D02*
X106680000Y-139149440D01*
X106680000Y-138151220D02*
X106680000Y-137950560D01*
X106680000Y-138999580D02*
X105930700Y-138999580D01*
X106680000Y-138999580D02*
X107381040Y-138999580D01*
X106680000Y-138999580D02*
X107381040Y-138151220D01*
X107381040Y-138151220D02*
X105978960Y-138151220D01*
X105978960Y-138151220D02*
X106680000Y-138999580D01*
X47235000Y-153495000D02*
X47235000Y-151495000D01*
X49285000Y-151495000D02*
X49285000Y-153495000D01*
X83002381Y-165683334D02*
X82526190Y-165350000D01*
X83002381Y-165111905D02*
X82002381Y-165111905D01*
X82002381Y-165492858D01*
X82050000Y-165588096D01*
X82097619Y-165635715D01*
X82192857Y-165683334D01*
X82335714Y-165683334D01*
X82430952Y-165635715D01*
X82478571Y-165588096D01*
X82526190Y-165492858D01*
X82526190Y-165111905D01*
X83002381Y-166635715D02*
X83002381Y-166064286D01*
X83002381Y-166350000D02*
X82002381Y-166350000D01*
X82145238Y-166254762D01*
X82240476Y-166159524D01*
X82288095Y-166064286D01*
X90622381Y-165683334D02*
X90146190Y-165350000D01*
X90622381Y-165111905D02*
X89622381Y-165111905D01*
X89622381Y-165492858D01*
X89670000Y-165588096D01*
X89717619Y-165635715D01*
X89812857Y-165683334D01*
X89955714Y-165683334D01*
X90050952Y-165635715D01*
X90098571Y-165588096D01*
X90146190Y-165492858D01*
X90146190Y-165111905D01*
X89717619Y-166064286D02*
X89670000Y-166111905D01*
X89622381Y-166207143D01*
X89622381Y-166445239D01*
X89670000Y-166540477D01*
X89717619Y-166588096D01*
X89812857Y-166635715D01*
X89908095Y-166635715D01*
X90050952Y-166588096D01*
X90622381Y-166016667D01*
X90622381Y-166635715D01*
X86717143Y-165683334D02*
X86764762Y-165635715D01*
X86812381Y-165492858D01*
X86812381Y-165397620D01*
X86764762Y-165254762D01*
X86669524Y-165159524D01*
X86574286Y-165111905D01*
X86383810Y-165064286D01*
X86240952Y-165064286D01*
X86050476Y-165111905D01*
X85955238Y-165159524D01*
X85860000Y-165254762D01*
X85812381Y-165397620D01*
X85812381Y-165492858D01*
X85860000Y-165635715D01*
X85907619Y-165683334D01*
X86812381Y-166635715D02*
X86812381Y-166064286D01*
X86812381Y-166350000D02*
X85812381Y-166350000D01*
X85955238Y-166254762D01*
X86050476Y-166159524D01*
X86098095Y-166064286D01*
X94337143Y-165683334D02*
X94384762Y-165635715D01*
X94432381Y-165492858D01*
X94432381Y-165397620D01*
X94384762Y-165254762D01*
X94289524Y-165159524D01*
X94194286Y-165111905D01*
X94003810Y-165064286D01*
X93860952Y-165064286D01*
X93670476Y-165111905D01*
X93575238Y-165159524D01*
X93480000Y-165254762D01*
X93432381Y-165397620D01*
X93432381Y-165492858D01*
X93480000Y-165635715D01*
X93527619Y-165683334D01*
X93527619Y-166064286D02*
X93480000Y-166111905D01*
X93432381Y-166207143D01*
X93432381Y-166445239D01*
X93480000Y-166540477D01*
X93527619Y-166588096D01*
X93622857Y-166635715D01*
X93718095Y-166635715D01*
X93860952Y-166588096D01*
X94432381Y-166016667D01*
X94432381Y-166635715D01*
X101957143Y-165683334D02*
X102004762Y-165635715D01*
X102052381Y-165492858D01*
X102052381Y-165397620D01*
X102004762Y-165254762D01*
X101909524Y-165159524D01*
X101814286Y-165111905D01*
X101623810Y-165064286D01*
X101480952Y-165064286D01*
X101290476Y-165111905D01*
X101195238Y-165159524D01*
X101100000Y-165254762D01*
X101052381Y-165397620D01*
X101052381Y-165492858D01*
X101100000Y-165635715D01*
X101147619Y-165683334D01*
X101052381Y-166016667D02*
X101052381Y-166635715D01*
X101433333Y-166302381D01*
X101433333Y-166445239D01*
X101480952Y-166540477D01*
X101528571Y-166588096D01*
X101623810Y-166635715D01*
X101861905Y-166635715D01*
X101957143Y-166588096D01*
X102004762Y-166540477D01*
X102052381Y-166445239D01*
X102052381Y-166159524D01*
X102004762Y-166064286D01*
X101957143Y-166016667D01*
X109577143Y-165683334D02*
X109624762Y-165635715D01*
X109672381Y-165492858D01*
X109672381Y-165397620D01*
X109624762Y-165254762D01*
X109529524Y-165159524D01*
X109434286Y-165111905D01*
X109243810Y-165064286D01*
X109100952Y-165064286D01*
X108910476Y-165111905D01*
X108815238Y-165159524D01*
X108720000Y-165254762D01*
X108672381Y-165397620D01*
X108672381Y-165492858D01*
X108720000Y-165635715D01*
X108767619Y-165683334D01*
X109005714Y-166540477D02*
X109672381Y-166540477D01*
X108624762Y-166302381D02*
X109339048Y-166064286D01*
X109339048Y-166683334D01*
X53697143Y-147153334D02*
X53744762Y-147105715D01*
X53792381Y-146962858D01*
X53792381Y-146867620D01*
X53744762Y-146724762D01*
X53649524Y-146629524D01*
X53554286Y-146581905D01*
X53363810Y-146534286D01*
X53220952Y-146534286D01*
X53030476Y-146581905D01*
X52935238Y-146629524D01*
X52840000Y-146724762D01*
X52792381Y-146867620D01*
X52792381Y-146962858D01*
X52840000Y-147105715D01*
X52887619Y-147153334D01*
X52792381Y-148010477D02*
X52792381Y-147820000D01*
X52840000Y-147724762D01*
X52887619Y-147677143D01*
X53030476Y-147581905D01*
X53220952Y-147534286D01*
X53601905Y-147534286D01*
X53697143Y-147581905D01*
X53744762Y-147629524D01*
X53792381Y-147724762D01*
X53792381Y-147915239D01*
X53744762Y-148010477D01*
X53697143Y-148058096D01*
X53601905Y-148105715D01*
X53363810Y-148105715D01*
X53268571Y-148058096D01*
X53220952Y-148010477D01*
X53173333Y-147915239D01*
X53173333Y-147724762D01*
X53220952Y-147629524D01*
X53268571Y-147581905D01*
X53363810Y-147534286D01*
X98242381Y-165683334D02*
X97766190Y-165350000D01*
X98242381Y-165111905D02*
X97242381Y-165111905D01*
X97242381Y-165492858D01*
X97290000Y-165588096D01*
X97337619Y-165635715D01*
X97432857Y-165683334D01*
X97575714Y-165683334D01*
X97670952Y-165635715D01*
X97718571Y-165588096D01*
X97766190Y-165492858D01*
X97766190Y-165111905D01*
X97242381Y-166016667D02*
X97242381Y-166635715D01*
X97623333Y-166302381D01*
X97623333Y-166445239D01*
X97670952Y-166540477D01*
X97718571Y-166588096D01*
X97813810Y-166635715D01*
X98051905Y-166635715D01*
X98147143Y-166588096D01*
X98194762Y-166540477D01*
X98242381Y-166445239D01*
X98242381Y-166159524D01*
X98194762Y-166064286D01*
X98147143Y-166016667D01*
X105862381Y-165683334D02*
X105386190Y-165350000D01*
X105862381Y-165111905D02*
X104862381Y-165111905D01*
X104862381Y-165492858D01*
X104910000Y-165588096D01*
X104957619Y-165635715D01*
X105052857Y-165683334D01*
X105195714Y-165683334D01*
X105290952Y-165635715D01*
X105338571Y-165588096D01*
X105386190Y-165492858D01*
X105386190Y-165111905D01*
X105195714Y-166540477D02*
X105862381Y-166540477D01*
X104814762Y-166302381D02*
X105529048Y-166064286D01*
X105529048Y-166683334D01*
X60777381Y-161758334D02*
X60301190Y-161425000D01*
X60777381Y-161186905D02*
X59777381Y-161186905D01*
X59777381Y-161567858D01*
X59825000Y-161663096D01*
X59872619Y-161710715D01*
X59967857Y-161758334D01*
X60110714Y-161758334D01*
X60205952Y-161710715D01*
X60253571Y-161663096D01*
X60301190Y-161567858D01*
X60301190Y-161186905D01*
X59777381Y-162663096D02*
X59777381Y-162186905D01*
X60253571Y-162139286D01*
X60205952Y-162186905D01*
X60158333Y-162282143D01*
X60158333Y-162520239D01*
X60205952Y-162615477D01*
X60253571Y-162663096D01*
X60348810Y-162710715D01*
X60586905Y-162710715D01*
X60682143Y-162663096D01*
X60729762Y-162615477D01*
X60777381Y-162520239D01*
X60777381Y-162282143D01*
X60729762Y-162186905D01*
X60682143Y-162139286D01*
X64301666Y-143962381D02*
X64635000Y-143486190D01*
X64873095Y-143962381D02*
X64873095Y-142962381D01*
X64492142Y-142962381D01*
X64396904Y-143010000D01*
X64349285Y-143057619D01*
X64301666Y-143152857D01*
X64301666Y-143295714D01*
X64349285Y-143390952D01*
X64396904Y-143438571D01*
X64492142Y-143486190D01*
X64873095Y-143486190D01*
X63444523Y-142962381D02*
X63635000Y-142962381D01*
X63730238Y-143010000D01*
X63777857Y-143057619D01*
X63873095Y-143200476D01*
X63920714Y-143390952D01*
X63920714Y-143771905D01*
X63873095Y-143867143D01*
X63825476Y-143914762D01*
X63730238Y-143962381D01*
X63539761Y-143962381D01*
X63444523Y-143914762D01*
X63396904Y-143867143D01*
X63349285Y-143771905D01*
X63349285Y-143533810D01*
X63396904Y-143438571D01*
X63444523Y-143390952D01*
X63539761Y-143343333D01*
X63730238Y-143343333D01*
X63825476Y-143390952D01*
X63873095Y-143438571D01*
X63920714Y-143533810D01*
X68048095Y-158472381D02*
X68048095Y-157472381D01*
X67810000Y-157472381D01*
X67667142Y-157520000D01*
X67571904Y-157615238D01*
X67524285Y-157710476D01*
X67476666Y-157900952D01*
X67476666Y-158043810D01*
X67524285Y-158234286D01*
X67571904Y-158329524D01*
X67667142Y-158424762D01*
X67810000Y-158472381D01*
X68048095Y-158472381D01*
X67143333Y-157472381D02*
X66524285Y-157472381D01*
X66857619Y-157853333D01*
X66714761Y-157853333D01*
X66619523Y-157900952D01*
X66571904Y-157948571D01*
X66524285Y-158043810D01*
X66524285Y-158281905D01*
X66571904Y-158377143D01*
X66619523Y-158424762D01*
X66714761Y-158472381D01*
X67000476Y-158472381D01*
X67095714Y-158424762D01*
X67143333Y-158377143D01*
X109672381Y-137761905D02*
X108672381Y-137761905D01*
X108672381Y-138000000D01*
X108720000Y-138142858D01*
X108815238Y-138238096D01*
X108910476Y-138285715D01*
X109100952Y-138333334D01*
X109243810Y-138333334D01*
X109434286Y-138285715D01*
X109529524Y-138238096D01*
X109624762Y-138142858D01*
X109672381Y-138000000D01*
X109672381Y-137761905D01*
X109672381Y-139285715D02*
X109672381Y-138714286D01*
X109672381Y-139000000D02*
X108672381Y-139000000D01*
X108815238Y-138904762D01*
X108910476Y-138809524D01*
X108958095Y-138714286D01*
X105282381Y-140038095D02*
X104282381Y-140038095D01*
X105282381Y-140609524D02*
X104710952Y-140180952D01*
X104282381Y-140609524D02*
X104853810Y-140038095D01*
X104996667Y-136461905D02*
X104996667Y-136938096D01*
X105282381Y-136366667D02*
X104282381Y-136700000D01*
X105282381Y-137033334D01*
X46317143Y-152328334D02*
X46364762Y-152280715D01*
X46412381Y-152137858D01*
X46412381Y-152042620D01*
X46364762Y-151899762D01*
X46269524Y-151804524D01*
X46174286Y-151756905D01*
X45983810Y-151709286D01*
X45840952Y-151709286D01*
X45650476Y-151756905D01*
X45555238Y-151804524D01*
X45460000Y-151899762D01*
X45412381Y-152042620D01*
X45412381Y-152137858D01*
X45460000Y-152280715D01*
X45507619Y-152328334D01*
X45412381Y-152661667D02*
X45412381Y-153328334D01*
X46412381Y-152899762D01*
M02*
