G04 #@! TF.FileFunction,Other,Fab,Bot*
%FSLAX46Y46*%
G04 Gerber Fmt 4.6, Leading zero omitted, Abs format (unit mm)*
G04 Created by KiCad (PCBNEW 4.0.5+dfsg1-4) date Tue May 16 10:22:51 2017*
%MOMM*%
%LPD*%
G01*
G04 APERTURE LIST*
%ADD10C,0.100000*%
%ADD11C,0.150000*%
G04 APERTURE END LIST*
D10*
X81750000Y-162370000D02*
X83350000Y-162370000D01*
X81750000Y-159170000D02*
X81750000Y-162370000D01*
X83350000Y-159170000D02*
X81750000Y-159170000D01*
X83350000Y-162370000D02*
X83350000Y-159170000D01*
X89370000Y-162370000D02*
X90970000Y-162370000D01*
X89370000Y-159170000D02*
X89370000Y-162370000D01*
X90970000Y-159170000D02*
X89370000Y-159170000D01*
X90970000Y-162370000D02*
X90970000Y-159170000D01*
D11*
X85560000Y-162370000D02*
X87160000Y-162370000D01*
X85560000Y-159170000D02*
X85560000Y-162370000D01*
X87160000Y-159170000D02*
X85560000Y-159170000D01*
X87160000Y-162370000D02*
X87160000Y-159170000D01*
X93180000Y-162370000D02*
X94780000Y-162370000D01*
X93180000Y-159170000D02*
X93180000Y-162370000D01*
X94780000Y-159170000D02*
X93180000Y-159170000D01*
X94780000Y-162370000D02*
X94780000Y-159170000D01*
X100800000Y-162370000D02*
X102400000Y-162370000D01*
X100800000Y-159170000D02*
X100800000Y-162370000D01*
X102400000Y-159170000D02*
X100800000Y-159170000D01*
X102400000Y-162370000D02*
X102400000Y-159170000D01*
X108420000Y-162370000D02*
X110020000Y-162370000D01*
X108420000Y-159170000D02*
X108420000Y-162370000D01*
X110020000Y-159170000D02*
X108420000Y-159170000D01*
X110020000Y-162370000D02*
X110020000Y-159170000D01*
X54140000Y-150800000D02*
X52540000Y-150800000D01*
X54140000Y-154000000D02*
X54140000Y-150800000D01*
X52540000Y-154000000D02*
X54140000Y-154000000D01*
X52540000Y-150800000D02*
X52540000Y-154000000D01*
D10*
X96990000Y-162370000D02*
X98590000Y-162370000D01*
X96990000Y-159170000D02*
X96990000Y-162370000D01*
X98590000Y-159170000D02*
X96990000Y-159170000D01*
X98590000Y-162370000D02*
X98590000Y-159170000D01*
X104610000Y-162370000D02*
X106210000Y-162370000D01*
X104610000Y-159170000D02*
X104610000Y-162370000D01*
X106210000Y-159170000D02*
X104610000Y-159170000D01*
X106210000Y-162370000D02*
X106210000Y-159170000D01*
X59525000Y-159080000D02*
X61125000Y-159080000D01*
X59525000Y-155880000D02*
X59525000Y-159080000D01*
X61125000Y-155880000D02*
X59525000Y-155880000D01*
X61125000Y-159080000D02*
X61125000Y-155880000D01*
X70180000Y-144310000D02*
X70180000Y-142710000D01*
X66980000Y-144310000D02*
X70180000Y-144310000D01*
X66980000Y-142710000D02*
X66980000Y-144310000D01*
X70180000Y-142710000D02*
X66980000Y-142710000D01*
D11*
X67810000Y-159520000D02*
X67810000Y-160520000D01*
X67810000Y-160020000D02*
X67310000Y-159520000D01*
X67310000Y-160520000D02*
X67810000Y-160020000D01*
X67310000Y-159520000D02*
X67310000Y-160520000D01*
X68910000Y-160820000D02*
X68910000Y-159220000D01*
X65710000Y-160820000D02*
X68910000Y-160820000D01*
X65710000Y-159220000D02*
X65710000Y-160820000D01*
X68910000Y-159220000D02*
X65710000Y-159220000D01*
X49060000Y-150895000D02*
X47460000Y-150895000D01*
X49060000Y-154095000D02*
X49060000Y-150895000D01*
X47460000Y-154095000D02*
X49060000Y-154095000D01*
X47460000Y-150895000D02*
X47460000Y-154095000D01*
X82835714Y-156777381D02*
X83407143Y-156777381D01*
X83121429Y-156777381D02*
X83121429Y-155777381D01*
X83216667Y-155920238D01*
X83311905Y-156015476D01*
X83407143Y-156063095D01*
X82407143Y-156777381D02*
X82407143Y-155777381D01*
X82073809Y-156491667D01*
X81740476Y-155777381D01*
X81740476Y-156777381D01*
X90455714Y-156777381D02*
X91027143Y-156777381D01*
X90741429Y-156777381D02*
X90741429Y-155777381D01*
X90836667Y-155920238D01*
X90931905Y-156015476D01*
X91027143Y-156063095D01*
X90027143Y-156777381D02*
X90027143Y-155777381D01*
X89693809Y-156491667D01*
X89360476Y-155777381D01*
X89360476Y-156777381D01*
X87907619Y-156777381D02*
X88479048Y-156777381D01*
X88193334Y-156777381D02*
X88193334Y-155777381D01*
X88288572Y-155920238D01*
X88383810Y-156015476D01*
X88479048Y-156063095D01*
X87288572Y-155777381D02*
X87193333Y-155777381D01*
X87098095Y-155825000D01*
X87050476Y-155872619D01*
X87002857Y-155967857D01*
X86955238Y-156158333D01*
X86955238Y-156396429D01*
X87002857Y-156586905D01*
X87050476Y-156682143D01*
X87098095Y-156729762D01*
X87193333Y-156777381D01*
X87288572Y-156777381D01*
X87383810Y-156729762D01*
X87431429Y-156682143D01*
X87479048Y-156586905D01*
X87526667Y-156396429D01*
X87526667Y-156158333D01*
X87479048Y-155967857D01*
X87431429Y-155872619D01*
X87383810Y-155825000D01*
X87288572Y-155777381D01*
X86336191Y-155777381D02*
X86240952Y-155777381D01*
X86145714Y-155825000D01*
X86098095Y-155872619D01*
X86050476Y-155967857D01*
X86002857Y-156158333D01*
X86002857Y-156396429D01*
X86050476Y-156586905D01*
X86098095Y-156682143D01*
X86145714Y-156729762D01*
X86240952Y-156777381D01*
X86336191Y-156777381D01*
X86431429Y-156729762D01*
X86479048Y-156682143D01*
X86526667Y-156586905D01*
X86574286Y-156396429D01*
X86574286Y-156158333D01*
X86526667Y-155967857D01*
X86479048Y-155872619D01*
X86431429Y-155825000D01*
X86336191Y-155777381D01*
X85574286Y-156110714D02*
X85574286Y-156777381D01*
X85574286Y-156205952D02*
X85526667Y-156158333D01*
X85431429Y-156110714D01*
X85288571Y-156110714D01*
X85193333Y-156158333D01*
X85145714Y-156253571D01*
X85145714Y-156777381D01*
X84336190Y-156253571D02*
X84669524Y-156253571D01*
X84669524Y-156777381D02*
X84669524Y-155777381D01*
X84193333Y-155777381D01*
X95527619Y-156777381D02*
X96099048Y-156777381D01*
X95813334Y-156777381D02*
X95813334Y-155777381D01*
X95908572Y-155920238D01*
X96003810Y-156015476D01*
X96099048Y-156063095D01*
X94908572Y-155777381D02*
X94813333Y-155777381D01*
X94718095Y-155825000D01*
X94670476Y-155872619D01*
X94622857Y-155967857D01*
X94575238Y-156158333D01*
X94575238Y-156396429D01*
X94622857Y-156586905D01*
X94670476Y-156682143D01*
X94718095Y-156729762D01*
X94813333Y-156777381D01*
X94908572Y-156777381D01*
X95003810Y-156729762D01*
X95051429Y-156682143D01*
X95099048Y-156586905D01*
X95146667Y-156396429D01*
X95146667Y-156158333D01*
X95099048Y-155967857D01*
X95051429Y-155872619D01*
X95003810Y-155825000D01*
X94908572Y-155777381D01*
X93956191Y-155777381D02*
X93860952Y-155777381D01*
X93765714Y-155825000D01*
X93718095Y-155872619D01*
X93670476Y-155967857D01*
X93622857Y-156158333D01*
X93622857Y-156396429D01*
X93670476Y-156586905D01*
X93718095Y-156682143D01*
X93765714Y-156729762D01*
X93860952Y-156777381D01*
X93956191Y-156777381D01*
X94051429Y-156729762D01*
X94099048Y-156682143D01*
X94146667Y-156586905D01*
X94194286Y-156396429D01*
X94194286Y-156158333D01*
X94146667Y-155967857D01*
X94099048Y-155872619D01*
X94051429Y-155825000D01*
X93956191Y-155777381D01*
X93194286Y-156110714D02*
X93194286Y-156777381D01*
X93194286Y-156205952D02*
X93146667Y-156158333D01*
X93051429Y-156110714D01*
X92908571Y-156110714D01*
X92813333Y-156158333D01*
X92765714Y-156253571D01*
X92765714Y-156777381D01*
X91956190Y-156253571D02*
X92289524Y-156253571D01*
X92289524Y-156777381D02*
X92289524Y-155777381D01*
X91813333Y-155777381D01*
X103147619Y-156777381D02*
X103719048Y-156777381D01*
X103433334Y-156777381D02*
X103433334Y-155777381D01*
X103528572Y-155920238D01*
X103623810Y-156015476D01*
X103719048Y-156063095D01*
X102528572Y-155777381D02*
X102433333Y-155777381D01*
X102338095Y-155825000D01*
X102290476Y-155872619D01*
X102242857Y-155967857D01*
X102195238Y-156158333D01*
X102195238Y-156396429D01*
X102242857Y-156586905D01*
X102290476Y-156682143D01*
X102338095Y-156729762D01*
X102433333Y-156777381D01*
X102528572Y-156777381D01*
X102623810Y-156729762D01*
X102671429Y-156682143D01*
X102719048Y-156586905D01*
X102766667Y-156396429D01*
X102766667Y-156158333D01*
X102719048Y-155967857D01*
X102671429Y-155872619D01*
X102623810Y-155825000D01*
X102528572Y-155777381D01*
X101576191Y-155777381D02*
X101480952Y-155777381D01*
X101385714Y-155825000D01*
X101338095Y-155872619D01*
X101290476Y-155967857D01*
X101242857Y-156158333D01*
X101242857Y-156396429D01*
X101290476Y-156586905D01*
X101338095Y-156682143D01*
X101385714Y-156729762D01*
X101480952Y-156777381D01*
X101576191Y-156777381D01*
X101671429Y-156729762D01*
X101719048Y-156682143D01*
X101766667Y-156586905D01*
X101814286Y-156396429D01*
X101814286Y-156158333D01*
X101766667Y-155967857D01*
X101719048Y-155872619D01*
X101671429Y-155825000D01*
X101576191Y-155777381D01*
X100814286Y-156110714D02*
X100814286Y-156777381D01*
X100814286Y-156205952D02*
X100766667Y-156158333D01*
X100671429Y-156110714D01*
X100528571Y-156110714D01*
X100433333Y-156158333D01*
X100385714Y-156253571D01*
X100385714Y-156777381D01*
X99576190Y-156253571D02*
X99909524Y-156253571D01*
X99909524Y-156777381D02*
X99909524Y-155777381D01*
X99433333Y-155777381D01*
X110767619Y-156777381D02*
X111339048Y-156777381D01*
X111053334Y-156777381D02*
X111053334Y-155777381D01*
X111148572Y-155920238D01*
X111243810Y-156015476D01*
X111339048Y-156063095D01*
X110148572Y-155777381D02*
X110053333Y-155777381D01*
X109958095Y-155825000D01*
X109910476Y-155872619D01*
X109862857Y-155967857D01*
X109815238Y-156158333D01*
X109815238Y-156396429D01*
X109862857Y-156586905D01*
X109910476Y-156682143D01*
X109958095Y-156729762D01*
X110053333Y-156777381D01*
X110148572Y-156777381D01*
X110243810Y-156729762D01*
X110291429Y-156682143D01*
X110339048Y-156586905D01*
X110386667Y-156396429D01*
X110386667Y-156158333D01*
X110339048Y-155967857D01*
X110291429Y-155872619D01*
X110243810Y-155825000D01*
X110148572Y-155777381D01*
X109196191Y-155777381D02*
X109100952Y-155777381D01*
X109005714Y-155825000D01*
X108958095Y-155872619D01*
X108910476Y-155967857D01*
X108862857Y-156158333D01*
X108862857Y-156396429D01*
X108910476Y-156586905D01*
X108958095Y-156682143D01*
X109005714Y-156729762D01*
X109100952Y-156777381D01*
X109196191Y-156777381D01*
X109291429Y-156729762D01*
X109339048Y-156682143D01*
X109386667Y-156586905D01*
X109434286Y-156396429D01*
X109434286Y-156158333D01*
X109386667Y-155967857D01*
X109339048Y-155872619D01*
X109291429Y-155825000D01*
X109196191Y-155777381D01*
X108434286Y-156110714D02*
X108434286Y-156777381D01*
X108434286Y-156205952D02*
X108386667Y-156158333D01*
X108291429Y-156110714D01*
X108148571Y-156110714D01*
X108053333Y-156158333D01*
X108005714Y-156253571D01*
X108005714Y-156777381D01*
X107196190Y-156253571D02*
X107529524Y-156253571D01*
X107529524Y-156777381D02*
X107529524Y-155777381D01*
X107053333Y-155777381D01*
X53792381Y-157202381D02*
X53792381Y-156630952D01*
X53792381Y-156916666D02*
X52792381Y-156916666D01*
X52935238Y-156821428D01*
X53030476Y-156726190D01*
X53078095Y-156630952D01*
X52792381Y-157821428D02*
X52792381Y-157916667D01*
X52840000Y-158011905D01*
X52887619Y-158059524D01*
X52982857Y-158107143D01*
X53173333Y-158154762D01*
X53411429Y-158154762D01*
X53601905Y-158107143D01*
X53697143Y-158059524D01*
X53744762Y-158011905D01*
X53792381Y-157916667D01*
X53792381Y-157821428D01*
X53744762Y-157726190D01*
X53697143Y-157678571D01*
X53601905Y-157630952D01*
X53411429Y-157583333D01*
X53173333Y-157583333D01*
X52982857Y-157630952D01*
X52887619Y-157678571D01*
X52840000Y-157726190D01*
X52792381Y-157821428D01*
X52792381Y-158773809D02*
X52792381Y-158869048D01*
X52840000Y-158964286D01*
X52887619Y-159011905D01*
X52982857Y-159059524D01*
X53173333Y-159107143D01*
X53411429Y-159107143D01*
X53601905Y-159059524D01*
X53697143Y-159011905D01*
X53744762Y-158964286D01*
X53792381Y-158869048D01*
X53792381Y-158773809D01*
X53744762Y-158678571D01*
X53697143Y-158630952D01*
X53601905Y-158583333D01*
X53411429Y-158535714D01*
X53173333Y-158535714D01*
X52982857Y-158583333D01*
X52887619Y-158630952D01*
X52840000Y-158678571D01*
X52792381Y-158773809D01*
X53125714Y-159535714D02*
X53792381Y-159535714D01*
X53220952Y-159535714D02*
X53173333Y-159583333D01*
X53125714Y-159678571D01*
X53125714Y-159821429D01*
X53173333Y-159916667D01*
X53268571Y-159964286D01*
X53792381Y-159964286D01*
X53268571Y-160773810D02*
X53268571Y-160440476D01*
X53792381Y-160440476D02*
X52792381Y-160440476D01*
X52792381Y-160916667D01*
X98075714Y-156777381D02*
X98647143Y-156777381D01*
X98361429Y-156777381D02*
X98361429Y-155777381D01*
X98456667Y-155920238D01*
X98551905Y-156015476D01*
X98647143Y-156063095D01*
X97647143Y-156777381D02*
X97647143Y-155777381D01*
X97313809Y-156491667D01*
X96980476Y-155777381D01*
X96980476Y-156777381D01*
X105695714Y-156777381D02*
X106267143Y-156777381D01*
X105981429Y-156777381D02*
X105981429Y-155777381D01*
X106076667Y-155920238D01*
X106171905Y-156015476D01*
X106267143Y-156063095D01*
X105267143Y-156777381D02*
X105267143Y-155777381D01*
X104933809Y-156491667D01*
X104600476Y-155777381D01*
X104600476Y-156777381D01*
X60777381Y-152915953D02*
X60777381Y-152344524D01*
X60777381Y-152630238D02*
X59777381Y-152630238D01*
X59920238Y-152535000D01*
X60015476Y-152439762D01*
X60063095Y-152344524D01*
X60777381Y-153344524D02*
X59777381Y-153344524D01*
X60396429Y-153439762D02*
X60777381Y-153725477D01*
X60110714Y-153725477D02*
X60491667Y-153344524D01*
X74255238Y-143962381D02*
X74826667Y-143962381D01*
X74540953Y-143962381D02*
X74540953Y-142962381D01*
X74636191Y-143105238D01*
X74731429Y-143200476D01*
X74826667Y-143248095D01*
X73636191Y-142962381D02*
X73540952Y-142962381D01*
X73445714Y-143010000D01*
X73398095Y-143057619D01*
X73350476Y-143152857D01*
X73302857Y-143343333D01*
X73302857Y-143581429D01*
X73350476Y-143771905D01*
X73398095Y-143867143D01*
X73445714Y-143914762D01*
X73540952Y-143962381D01*
X73636191Y-143962381D01*
X73731429Y-143914762D01*
X73779048Y-143867143D01*
X73826667Y-143771905D01*
X73874286Y-143581429D01*
X73874286Y-143343333D01*
X73826667Y-143152857D01*
X73779048Y-143057619D01*
X73731429Y-143010000D01*
X73636191Y-142962381D01*
X72874286Y-143962381D02*
X72874286Y-142962381D01*
X72779048Y-143581429D02*
X72493333Y-143962381D01*
X72493333Y-143295714D02*
X72874286Y-143676667D01*
X69810000Y-161472381D02*
X69619523Y-161472381D01*
X69524285Y-161520000D01*
X69429047Y-161615238D01*
X69381428Y-161805714D01*
X69381428Y-162139048D01*
X69429047Y-162329524D01*
X69524285Y-162424762D01*
X69619523Y-162472381D01*
X69810000Y-162472381D01*
X69905238Y-162424762D01*
X70000476Y-162329524D01*
X70048095Y-162139048D01*
X70048095Y-161805714D01*
X70000476Y-161615238D01*
X69905238Y-161520000D01*
X69810000Y-161472381D01*
X68381428Y-162472381D02*
X68714762Y-161996190D01*
X68952857Y-162472381D02*
X68952857Y-161472381D01*
X68571904Y-161472381D01*
X68476666Y-161520000D01*
X68429047Y-161567619D01*
X68381428Y-161662857D01*
X68381428Y-161805714D01*
X68429047Y-161900952D01*
X68476666Y-161948571D01*
X68571904Y-161996190D01*
X68952857Y-161996190D01*
X68000476Y-162186667D02*
X67524285Y-162186667D01*
X68095714Y-162472381D02*
X67762381Y-161472381D01*
X67429047Y-162472381D01*
X67095714Y-162472381D02*
X67095714Y-161472381D01*
X66524285Y-162472381D01*
X66524285Y-161472381D01*
X65524285Y-161520000D02*
X65619523Y-161472381D01*
X65762380Y-161472381D01*
X65905238Y-161520000D01*
X66000476Y-161615238D01*
X66048095Y-161710476D01*
X66095714Y-161900952D01*
X66095714Y-162043810D01*
X66048095Y-162234286D01*
X66000476Y-162329524D01*
X65905238Y-162424762D01*
X65762380Y-162472381D01*
X65667142Y-162472381D01*
X65524285Y-162424762D01*
X65476666Y-162377143D01*
X65476666Y-162043810D01*
X65667142Y-162043810D01*
X65048095Y-161948571D02*
X64714761Y-161948571D01*
X64571904Y-162472381D02*
X65048095Y-162472381D01*
X65048095Y-161472381D01*
X64571904Y-161472381D01*
X103322381Y-136357143D02*
X103322381Y-135785714D01*
X103322381Y-136071428D02*
X102322381Y-136071428D01*
X102465238Y-135976190D01*
X102560476Y-135880952D01*
X102608095Y-135785714D01*
X103322381Y-136785714D02*
X102322381Y-136785714D01*
X103322381Y-137357143D01*
X102322381Y-137357143D01*
X102655714Y-138261905D02*
X103322381Y-138261905D01*
X102274762Y-138023809D02*
X102989048Y-137785714D01*
X102989048Y-138404762D01*
X103322381Y-139309524D02*
X103322381Y-138738095D01*
X103322381Y-139023809D02*
X102322381Y-139023809D01*
X102465238Y-138928571D01*
X102560476Y-138833333D01*
X102608095Y-138738095D01*
X102655714Y-140166667D02*
X103322381Y-140166667D01*
X102274762Y-139928571D02*
X102989048Y-139690476D01*
X102989048Y-140309524D01*
X102750952Y-140833333D02*
X102703333Y-140738095D01*
X102655714Y-140690476D01*
X102560476Y-140642857D01*
X102512857Y-140642857D01*
X102417619Y-140690476D01*
X102370000Y-140738095D01*
X102322381Y-140833333D01*
X102322381Y-141023810D01*
X102370000Y-141119048D01*
X102417619Y-141166667D01*
X102512857Y-141214286D01*
X102560476Y-141214286D01*
X102655714Y-141166667D01*
X102703333Y-141119048D01*
X102750952Y-141023810D01*
X102750952Y-140833333D01*
X102798571Y-140738095D01*
X102846190Y-140690476D01*
X102941429Y-140642857D01*
X103131905Y-140642857D01*
X103227143Y-140690476D01*
X103274762Y-140738095D01*
X103322381Y-140833333D01*
X103322381Y-141023810D01*
X103274762Y-141119048D01*
X103227143Y-141166667D01*
X103131905Y-141214286D01*
X102941429Y-141214286D01*
X102846190Y-141166667D01*
X102798571Y-141119048D01*
X102750952Y-141023810D01*
X51012381Y-150947381D02*
X51012381Y-150375952D01*
X51012381Y-150661666D02*
X50012381Y-150661666D01*
X50155238Y-150566428D01*
X50250476Y-150471190D01*
X50298095Y-150375952D01*
X50012381Y-151566428D02*
X50012381Y-151661667D01*
X50060000Y-151756905D01*
X50107619Y-151804524D01*
X50202857Y-151852143D01*
X50393333Y-151899762D01*
X50631429Y-151899762D01*
X50821905Y-151852143D01*
X50917143Y-151804524D01*
X50964762Y-151756905D01*
X51012381Y-151661667D01*
X51012381Y-151566428D01*
X50964762Y-151471190D01*
X50917143Y-151423571D01*
X50821905Y-151375952D01*
X50631429Y-151328333D01*
X50393333Y-151328333D01*
X50202857Y-151375952D01*
X50107619Y-151423571D01*
X50060000Y-151471190D01*
X50012381Y-151566428D01*
X50012381Y-152518809D02*
X50012381Y-152614048D01*
X50060000Y-152709286D01*
X50107619Y-152756905D01*
X50202857Y-152804524D01*
X50393333Y-152852143D01*
X50631429Y-152852143D01*
X50821905Y-152804524D01*
X50917143Y-152756905D01*
X50964762Y-152709286D01*
X51012381Y-152614048D01*
X51012381Y-152518809D01*
X50964762Y-152423571D01*
X50917143Y-152375952D01*
X50821905Y-152328333D01*
X50631429Y-152280714D01*
X50393333Y-152280714D01*
X50202857Y-152328333D01*
X50107619Y-152375952D01*
X50060000Y-152423571D01*
X50012381Y-152518809D01*
X50345714Y-153280714D02*
X51012381Y-153280714D01*
X50440952Y-153280714D02*
X50393333Y-153328333D01*
X50345714Y-153423571D01*
X50345714Y-153566429D01*
X50393333Y-153661667D01*
X50488571Y-153709286D01*
X51012381Y-153709286D01*
X50488571Y-154518810D02*
X50488571Y-154185476D01*
X51012381Y-154185476D02*
X50012381Y-154185476D01*
X50012381Y-154661667D01*
M02*
