G04 #@! TF.FileFunction,Copper,L1,Top,Signal*
%FSLAX46Y46*%
G04 Gerber Fmt 4.6, Leading zero omitted, Abs format (unit mm)*
G04 Created by KiCad (PCBNEW 4.0.5+dfsg1-4) date Tue May 16 10:22:51 2017*
%MOMM*%
%LPD*%
G01*
G04 APERTURE LIST*
%ADD10C,0.100000*%
%ADD11R,2.000000X1.700000*%
%ADD12O,2.000000X1.700000*%
%ADD13R,2.100000X3.600000*%
%ADD14O,2.100000X3.600000*%
%ADD15C,3.000000*%
%ADD16R,3.000000X3.000000*%
%ADD17R,2.235200X2.235200*%
%ADD18R,1.900000X2.000000*%
%ADD19C,1.900000*%
%ADD20R,2.032000X2.032000*%
%ADD21O,2.032000X2.032000*%
%ADD22R,2.500000X3.750000*%
%ADD23C,7.000000*%
%ADD24C,6.000000*%
%ADD25O,2.300000X1.600000*%
%ADD26C,1.000000*%
%ADD27C,0.400000*%
%ADD28C,0.254000*%
G04 APERTURE END LIST*
D10*
D11*
X57150000Y-157480000D03*
D12*
X57150000Y-154940000D03*
X57150000Y-152400000D03*
X57150000Y-149860000D03*
X57150000Y-160020000D03*
X57150000Y-162560000D03*
D13*
X78740000Y-153150000D03*
D14*
X83820000Y-153150000D03*
X88900000Y-153150000D03*
X93980000Y-153150000D03*
X99060000Y-153150000D03*
X104140000Y-153150000D03*
X109220000Y-153150000D03*
X114300000Y-153150000D03*
D15*
X76500000Y-133000000D03*
D16*
X96990000Y-133000000D03*
D17*
X117000000Y-120000000D03*
X50000000Y-120000000D03*
D18*
X68580000Y-162560000D03*
D19*
X66040000Y-162560000D03*
D20*
X63500000Y-146050000D03*
D21*
X66040000Y-146050000D03*
D22*
X48260000Y-149275000D03*
X48260000Y-155525000D03*
D17*
X124000000Y-146000000D03*
X43000000Y-146000000D03*
D23*
X83500000Y-132000000D03*
D24*
X123000000Y-132000000D03*
X44000000Y-132000000D03*
D23*
X76000000Y-167500000D03*
D25*
X63500000Y-149860000D03*
X63500000Y-152400000D03*
X63500000Y-154940000D03*
X63500000Y-157480000D03*
X71120000Y-157480000D03*
X71120000Y-154940000D03*
X71120000Y-152400000D03*
X71120000Y-149860000D03*
D26*
X48260000Y-159385000D03*
X48269438Y-145741697D03*
D27*
X48260000Y-155525000D02*
X48260000Y-159385000D01*
X48269438Y-145741697D02*
X48269438Y-149265562D01*
X48269438Y-149265562D02*
X48260000Y-149275000D01*
D28*
G36*
X117873000Y-125052606D02*
X117873000Y-144000000D01*
X117883006Y-144049410D01*
X117910197Y-144089803D01*
X125290000Y-151469606D01*
X125290000Y-162930069D01*
X125140938Y-163679456D01*
X117679456Y-171140938D01*
X116930069Y-171290000D01*
X77657798Y-171290000D01*
X78310145Y-171026750D01*
X78374238Y-170983924D01*
X78777707Y-170457312D01*
X76000000Y-167679605D01*
X73222293Y-170457312D01*
X73625762Y-170983924D01*
X74346001Y-171290000D01*
X50069931Y-171290000D01*
X49320544Y-171140938D01*
X46464272Y-168284666D01*
X71857654Y-168284666D01*
X72473250Y-169810145D01*
X72516076Y-169874238D01*
X73042688Y-170277707D01*
X75820395Y-167500000D01*
X76179605Y-167500000D01*
X78957312Y-170277707D01*
X79483924Y-169874238D01*
X80127307Y-168360270D01*
X80142346Y-166715334D01*
X79526750Y-165189855D01*
X79483924Y-165125762D01*
X78957312Y-164722293D01*
X76179605Y-167500000D01*
X75820395Y-167500000D01*
X73042688Y-164722293D01*
X72516076Y-165125762D01*
X71872693Y-166639730D01*
X71857654Y-168284666D01*
X46464272Y-168284666D01*
X42722294Y-164542688D01*
X73222293Y-164542688D01*
X76000000Y-167320395D01*
X78777707Y-164542688D01*
X78374238Y-164016076D01*
X76860270Y-163372693D01*
X75215334Y-163357654D01*
X73689855Y-163973250D01*
X73625762Y-164016076D01*
X73222293Y-164542688D01*
X42722294Y-164542688D01*
X41859062Y-163679456D01*
X41710000Y-162930069D01*
X41710000Y-160020000D01*
X55482968Y-160020000D01*
X55596007Y-160588285D01*
X55917914Y-161070054D01*
X56247087Y-161290000D01*
X55917914Y-161509946D01*
X55596007Y-161991715D01*
X55482968Y-162560000D01*
X55596007Y-163128285D01*
X55917914Y-163610054D01*
X56399683Y-163931961D01*
X56967968Y-164045000D01*
X57332032Y-164045000D01*
X57900317Y-163931961D01*
X58382086Y-163610054D01*
X58703993Y-163128285D01*
X58754594Y-162873893D01*
X64454725Y-162873893D01*
X64695519Y-163456657D01*
X65140997Y-163902914D01*
X65723341Y-164144724D01*
X66353893Y-164145275D01*
X66936657Y-163904481D01*
X67041867Y-163799455D01*
X67091673Y-163919698D01*
X67270301Y-164098327D01*
X67503690Y-164195000D01*
X68294250Y-164195000D01*
X68453000Y-164036250D01*
X68453000Y-162687000D01*
X68707000Y-162687000D01*
X68707000Y-164036250D01*
X68865750Y-164195000D01*
X69656310Y-164195000D01*
X69889699Y-164098327D01*
X70068327Y-163919698D01*
X70165000Y-163686309D01*
X70165000Y-162845750D01*
X70006250Y-162687000D01*
X68707000Y-162687000D01*
X68453000Y-162687000D01*
X68433000Y-162687000D01*
X68433000Y-162433000D01*
X68453000Y-162433000D01*
X68453000Y-161083750D01*
X68707000Y-161083750D01*
X68707000Y-162433000D01*
X70006250Y-162433000D01*
X70165000Y-162274250D01*
X70165000Y-161433691D01*
X70068327Y-161200302D01*
X69889699Y-161021673D01*
X69656310Y-160925000D01*
X68865750Y-160925000D01*
X68707000Y-161083750D01*
X68453000Y-161083750D01*
X68294250Y-160925000D01*
X67503690Y-160925000D01*
X67270301Y-161021673D01*
X67091673Y-161200302D01*
X67041988Y-161320251D01*
X66939003Y-161217086D01*
X66356659Y-160975276D01*
X65726107Y-160974725D01*
X65143343Y-161215519D01*
X64697086Y-161660997D01*
X64455276Y-162243341D01*
X64454725Y-162873893D01*
X58754594Y-162873893D01*
X58817032Y-162560000D01*
X58703993Y-161991715D01*
X58382086Y-161509946D01*
X58052913Y-161290000D01*
X58382086Y-161070054D01*
X58703993Y-160588285D01*
X58817032Y-160020000D01*
X58703993Y-159451715D01*
X58382086Y-158969946D01*
X58339841Y-158941719D01*
X58385317Y-158933162D01*
X58601441Y-158794090D01*
X58746431Y-158581890D01*
X58797440Y-158330000D01*
X58797440Y-157829039D01*
X61758096Y-157829039D01*
X61775633Y-157911819D01*
X62045500Y-158404896D01*
X62483517Y-158757166D01*
X63023000Y-158915000D01*
X63373000Y-158915000D01*
X63373000Y-157607000D01*
X63627000Y-157607000D01*
X63627000Y-158915000D01*
X63977000Y-158915000D01*
X64516483Y-158757166D01*
X64954500Y-158404896D01*
X65224367Y-157911819D01*
X65241904Y-157829039D01*
X65119915Y-157607000D01*
X63627000Y-157607000D01*
X63373000Y-157607000D01*
X61880085Y-157607000D01*
X61758096Y-157829039D01*
X58797440Y-157829039D01*
X58797440Y-156630000D01*
X58753162Y-156394683D01*
X58614090Y-156178559D01*
X58401890Y-156033569D01*
X58289231Y-156010755D01*
X58488664Y-155832045D01*
X58739553Y-155309260D01*
X58741476Y-155296890D01*
X58620155Y-155067000D01*
X57277000Y-155067000D01*
X57277000Y-155087000D01*
X57023000Y-155087000D01*
X57023000Y-155067000D01*
X55679845Y-155067000D01*
X55558524Y-155296890D01*
X55560447Y-155309260D01*
X55811336Y-155832045D01*
X56008927Y-156009105D01*
X55914683Y-156026838D01*
X55698559Y-156165910D01*
X55553569Y-156378110D01*
X55502560Y-156630000D01*
X55502560Y-158330000D01*
X55546838Y-158565317D01*
X55685910Y-158781441D01*
X55898110Y-158926431D01*
X55963286Y-158939629D01*
X55917914Y-158969946D01*
X55596007Y-159451715D01*
X55482968Y-160020000D01*
X41710000Y-160020000D01*
X41710000Y-155810750D01*
X46375000Y-155810750D01*
X46375000Y-157526309D01*
X46471673Y-157759698D01*
X46650301Y-157938327D01*
X46883690Y-158035000D01*
X47974250Y-158035000D01*
X48133000Y-157876250D01*
X48133000Y-155652000D01*
X48387000Y-155652000D01*
X48387000Y-157876250D01*
X48545750Y-158035000D01*
X49636310Y-158035000D01*
X49869699Y-157938327D01*
X50048327Y-157759698D01*
X50145000Y-157526309D01*
X50145000Y-155810750D01*
X49986250Y-155652000D01*
X48387000Y-155652000D01*
X48133000Y-155652000D01*
X46533750Y-155652000D01*
X46375000Y-155810750D01*
X41710000Y-155810750D01*
X41710000Y-153523691D01*
X46375000Y-153523691D01*
X46375000Y-155239250D01*
X46533750Y-155398000D01*
X48133000Y-155398000D01*
X48133000Y-153173750D01*
X48387000Y-153173750D01*
X48387000Y-155398000D01*
X49986250Y-155398000D01*
X50145000Y-155239250D01*
X50145000Y-153523691D01*
X50048327Y-153290302D01*
X49869699Y-153111673D01*
X49636310Y-153015000D01*
X48545750Y-153015000D01*
X48387000Y-153173750D01*
X48133000Y-153173750D01*
X47974250Y-153015000D01*
X46883690Y-153015000D01*
X46650301Y-153111673D01*
X46471673Y-153290302D01*
X46375000Y-153523691D01*
X41710000Y-153523691D01*
X41710000Y-147733508D01*
X41756091Y-147752600D01*
X42714250Y-147752600D01*
X42873000Y-147593850D01*
X42873000Y-146127000D01*
X43127000Y-146127000D01*
X43127000Y-147593850D01*
X43285750Y-147752600D01*
X44243909Y-147752600D01*
X44477298Y-147655927D01*
X44655927Y-147477299D01*
X44687945Y-147400000D01*
X46362560Y-147400000D01*
X46362560Y-151150000D01*
X46406838Y-151385317D01*
X46545910Y-151601441D01*
X46758110Y-151746431D01*
X47010000Y-151797440D01*
X49510000Y-151797440D01*
X49745317Y-151753162D01*
X49961441Y-151614090D01*
X50106431Y-151401890D01*
X50157440Y-151150000D01*
X50157440Y-149860000D01*
X55482968Y-149860000D01*
X55596007Y-150428285D01*
X55917914Y-150910054D01*
X56247087Y-151130000D01*
X55917914Y-151349946D01*
X55596007Y-151831715D01*
X55482968Y-152400000D01*
X55596007Y-152968285D01*
X55917914Y-153450054D01*
X56239085Y-153664653D01*
X55811336Y-154047955D01*
X55560447Y-154570740D01*
X55558524Y-154583110D01*
X55679845Y-154813000D01*
X57023000Y-154813000D01*
X57023000Y-154793000D01*
X57277000Y-154793000D01*
X57277000Y-154813000D01*
X58620155Y-154813000D01*
X58741476Y-154583110D01*
X58739553Y-154570740D01*
X58488664Y-154047955D01*
X58060915Y-153664653D01*
X58382086Y-153450054D01*
X58703993Y-152968285D01*
X58817032Y-152400000D01*
X58703993Y-151831715D01*
X58382086Y-151349946D01*
X58052913Y-151130000D01*
X58382086Y-150910054D01*
X58703993Y-150428285D01*
X58817032Y-149860000D01*
X61680030Y-149860000D01*
X61789263Y-150409151D01*
X62100332Y-150874698D01*
X62482418Y-151130000D01*
X62100332Y-151385302D01*
X61789263Y-151850849D01*
X61680030Y-152400000D01*
X61789263Y-152949151D01*
X62100332Y-153414698D01*
X62482418Y-153670000D01*
X62100332Y-153925302D01*
X61789263Y-154390849D01*
X61680030Y-154940000D01*
X61789263Y-155489151D01*
X62100332Y-155954698D01*
X62478151Y-156207149D01*
X62045500Y-156555104D01*
X61775633Y-157048181D01*
X61758096Y-157130961D01*
X61880085Y-157353000D01*
X63373000Y-157353000D01*
X63373000Y-157333000D01*
X63627000Y-157333000D01*
X63627000Y-157353000D01*
X65119915Y-157353000D01*
X65241904Y-157130961D01*
X65224367Y-157048181D01*
X64954500Y-156555104D01*
X64521849Y-156207149D01*
X64899668Y-155954698D01*
X65210737Y-155489151D01*
X65319970Y-154940000D01*
X65210737Y-154390849D01*
X64899668Y-153925302D01*
X64517582Y-153670000D01*
X64899668Y-153414698D01*
X65210737Y-152949151D01*
X65319970Y-152400000D01*
X65210737Y-151850849D01*
X64899668Y-151385302D01*
X64517582Y-151130000D01*
X64899668Y-150874698D01*
X65210737Y-150409151D01*
X65319970Y-149860000D01*
X69300030Y-149860000D01*
X69409263Y-150409151D01*
X69720332Y-150874698D01*
X70102418Y-151130000D01*
X69720332Y-151385302D01*
X69409263Y-151850849D01*
X69300030Y-152400000D01*
X69409263Y-152949151D01*
X69720332Y-153414698D01*
X70102418Y-153670000D01*
X69720332Y-153925302D01*
X69409263Y-154390849D01*
X69300030Y-154940000D01*
X69409263Y-155489151D01*
X69720332Y-155954698D01*
X70102418Y-156210000D01*
X69720332Y-156465302D01*
X69409263Y-156930849D01*
X69300030Y-157480000D01*
X69409263Y-158029151D01*
X69720332Y-158494698D01*
X70185879Y-158805767D01*
X70735030Y-158915000D01*
X71504970Y-158915000D01*
X72054121Y-158805767D01*
X72519668Y-158494698D01*
X72830737Y-158029151D01*
X72939970Y-157480000D01*
X72830737Y-156930849D01*
X72519668Y-156465302D01*
X72137582Y-156210000D01*
X72519668Y-155954698D01*
X72830737Y-155489151D01*
X72939970Y-154940000D01*
X72830737Y-154390849D01*
X72519668Y-153925302D01*
X72137582Y-153670000D01*
X72519668Y-153414698D01*
X72830737Y-152949151D01*
X72939970Y-152400000D01*
X72830737Y-151850849D01*
X72519668Y-151385302D01*
X72466835Y-151350000D01*
X77042560Y-151350000D01*
X77042560Y-154950000D01*
X77086838Y-155185317D01*
X77225910Y-155401441D01*
X77438110Y-155546431D01*
X77690000Y-155597440D01*
X79790000Y-155597440D01*
X80025317Y-155553162D01*
X80241441Y-155414090D01*
X80386431Y-155201890D01*
X80437440Y-154950000D01*
X80437440Y-153277000D01*
X82135000Y-153277000D01*
X82135000Y-154027000D01*
X82311864Y-154662154D01*
X82718328Y-155181277D01*
X83292511Y-155505337D01*
X83431721Y-155539654D01*
X83693000Y-155420957D01*
X83693000Y-153277000D01*
X83947000Y-153277000D01*
X83947000Y-155420957D01*
X84208279Y-155539654D01*
X84347489Y-155505337D01*
X84921672Y-155181277D01*
X85328136Y-154662154D01*
X85505000Y-154027000D01*
X85505000Y-153277000D01*
X83947000Y-153277000D01*
X83693000Y-153277000D01*
X82135000Y-153277000D01*
X80437440Y-153277000D01*
X80437440Y-152273000D01*
X82135000Y-152273000D01*
X82135000Y-153023000D01*
X83693000Y-153023000D01*
X83693000Y-150879043D01*
X83947000Y-150879043D01*
X83947000Y-153023000D01*
X85505000Y-153023000D01*
X85505000Y-152352296D01*
X87215000Y-152352296D01*
X87215000Y-153947704D01*
X87343263Y-154592526D01*
X87708525Y-155139179D01*
X88255178Y-155504441D01*
X88900000Y-155632704D01*
X89544822Y-155504441D01*
X90091475Y-155139179D01*
X90456737Y-154592526D01*
X90585000Y-153947704D01*
X90585000Y-153277000D01*
X92295000Y-153277000D01*
X92295000Y-154027000D01*
X92471864Y-154662154D01*
X92878328Y-155181277D01*
X93452511Y-155505337D01*
X93591721Y-155539654D01*
X93853000Y-155420957D01*
X93853000Y-153277000D01*
X94107000Y-153277000D01*
X94107000Y-155420957D01*
X94368279Y-155539654D01*
X94507489Y-155505337D01*
X95081672Y-155181277D01*
X95488136Y-154662154D01*
X95665000Y-154027000D01*
X95665000Y-153277000D01*
X94107000Y-153277000D01*
X93853000Y-153277000D01*
X92295000Y-153277000D01*
X90585000Y-153277000D01*
X90585000Y-152352296D01*
X90569228Y-152273000D01*
X92295000Y-152273000D01*
X92295000Y-153023000D01*
X93853000Y-153023000D01*
X93853000Y-150879043D01*
X94107000Y-150879043D01*
X94107000Y-153023000D01*
X95665000Y-153023000D01*
X95665000Y-152352296D01*
X97375000Y-152352296D01*
X97375000Y-153947704D01*
X97503263Y-154592526D01*
X97868525Y-155139179D01*
X98415178Y-155504441D01*
X99060000Y-155632704D01*
X99704822Y-155504441D01*
X100251475Y-155139179D01*
X100616737Y-154592526D01*
X100745000Y-153947704D01*
X100745000Y-153277000D01*
X102455000Y-153277000D01*
X102455000Y-154027000D01*
X102631864Y-154662154D01*
X103038328Y-155181277D01*
X103612511Y-155505337D01*
X103751721Y-155539654D01*
X104013000Y-155420957D01*
X104013000Y-153277000D01*
X104267000Y-153277000D01*
X104267000Y-155420957D01*
X104528279Y-155539654D01*
X104667489Y-155505337D01*
X105241672Y-155181277D01*
X105648136Y-154662154D01*
X105825000Y-154027000D01*
X105825000Y-153277000D01*
X104267000Y-153277000D01*
X104013000Y-153277000D01*
X102455000Y-153277000D01*
X100745000Y-153277000D01*
X100745000Y-152352296D01*
X100729228Y-152273000D01*
X102455000Y-152273000D01*
X102455000Y-153023000D01*
X104013000Y-153023000D01*
X104013000Y-150879043D01*
X104267000Y-150879043D01*
X104267000Y-153023000D01*
X105825000Y-153023000D01*
X105825000Y-152352296D01*
X107535000Y-152352296D01*
X107535000Y-153947704D01*
X107663263Y-154592526D01*
X108028525Y-155139179D01*
X108575178Y-155504441D01*
X109220000Y-155632704D01*
X109864822Y-155504441D01*
X110411475Y-155139179D01*
X110776737Y-154592526D01*
X110905000Y-153947704D01*
X110905000Y-153277000D01*
X112615000Y-153277000D01*
X112615000Y-154027000D01*
X112791864Y-154662154D01*
X113198328Y-155181277D01*
X113772511Y-155505337D01*
X113911721Y-155539654D01*
X114173000Y-155420957D01*
X114173000Y-153277000D01*
X114427000Y-153277000D01*
X114427000Y-155420957D01*
X114688279Y-155539654D01*
X114827489Y-155505337D01*
X115401672Y-155181277D01*
X115808136Y-154662154D01*
X115985000Y-154027000D01*
X115985000Y-153277000D01*
X114427000Y-153277000D01*
X114173000Y-153277000D01*
X112615000Y-153277000D01*
X110905000Y-153277000D01*
X110905000Y-152352296D01*
X110889228Y-152273000D01*
X112615000Y-152273000D01*
X112615000Y-153023000D01*
X114173000Y-153023000D01*
X114173000Y-150879043D01*
X114427000Y-150879043D01*
X114427000Y-153023000D01*
X115985000Y-153023000D01*
X115985000Y-152273000D01*
X115808136Y-151637846D01*
X115401672Y-151118723D01*
X114827489Y-150794663D01*
X114688279Y-150760346D01*
X114427000Y-150879043D01*
X114173000Y-150879043D01*
X113911721Y-150760346D01*
X113772511Y-150794663D01*
X113198328Y-151118723D01*
X112791864Y-151637846D01*
X112615000Y-152273000D01*
X110889228Y-152273000D01*
X110776737Y-151707474D01*
X110411475Y-151160821D01*
X109864822Y-150795559D01*
X109220000Y-150667296D01*
X108575178Y-150795559D01*
X108028525Y-151160821D01*
X107663263Y-151707474D01*
X107535000Y-152352296D01*
X105825000Y-152352296D01*
X105825000Y-152273000D01*
X105648136Y-151637846D01*
X105241672Y-151118723D01*
X104667489Y-150794663D01*
X104528279Y-150760346D01*
X104267000Y-150879043D01*
X104013000Y-150879043D01*
X103751721Y-150760346D01*
X103612511Y-150794663D01*
X103038328Y-151118723D01*
X102631864Y-151637846D01*
X102455000Y-152273000D01*
X100729228Y-152273000D01*
X100616737Y-151707474D01*
X100251475Y-151160821D01*
X99704822Y-150795559D01*
X99060000Y-150667296D01*
X98415178Y-150795559D01*
X97868525Y-151160821D01*
X97503263Y-151707474D01*
X97375000Y-152352296D01*
X95665000Y-152352296D01*
X95665000Y-152273000D01*
X95488136Y-151637846D01*
X95081672Y-151118723D01*
X94507489Y-150794663D01*
X94368279Y-150760346D01*
X94107000Y-150879043D01*
X93853000Y-150879043D01*
X93591721Y-150760346D01*
X93452511Y-150794663D01*
X92878328Y-151118723D01*
X92471864Y-151637846D01*
X92295000Y-152273000D01*
X90569228Y-152273000D01*
X90456737Y-151707474D01*
X90091475Y-151160821D01*
X89544822Y-150795559D01*
X88900000Y-150667296D01*
X88255178Y-150795559D01*
X87708525Y-151160821D01*
X87343263Y-151707474D01*
X87215000Y-152352296D01*
X85505000Y-152352296D01*
X85505000Y-152273000D01*
X85328136Y-151637846D01*
X84921672Y-151118723D01*
X84347489Y-150794663D01*
X84208279Y-150760346D01*
X83947000Y-150879043D01*
X83693000Y-150879043D01*
X83431721Y-150760346D01*
X83292511Y-150794663D01*
X82718328Y-151118723D01*
X82311864Y-151637846D01*
X82135000Y-152273000D01*
X80437440Y-152273000D01*
X80437440Y-151350000D01*
X80393162Y-151114683D01*
X80254090Y-150898559D01*
X80041890Y-150753569D01*
X79790000Y-150702560D01*
X77690000Y-150702560D01*
X77454683Y-150746838D01*
X77238559Y-150885910D01*
X77093569Y-151098110D01*
X77042560Y-151350000D01*
X72466835Y-151350000D01*
X72137582Y-151130000D01*
X72519668Y-150874698D01*
X72830737Y-150409151D01*
X72939970Y-149860000D01*
X72830737Y-149310849D01*
X72519668Y-148845302D01*
X72054121Y-148534233D01*
X71504970Y-148425000D01*
X70735030Y-148425000D01*
X70185879Y-148534233D01*
X69720332Y-148845302D01*
X69409263Y-149310849D01*
X69300030Y-149860000D01*
X65319970Y-149860000D01*
X65210737Y-149310849D01*
X64899668Y-148845302D01*
X64434121Y-148534233D01*
X63884970Y-148425000D01*
X63115030Y-148425000D01*
X62565879Y-148534233D01*
X62100332Y-148845302D01*
X61789263Y-149310849D01*
X61680030Y-149860000D01*
X58817032Y-149860000D01*
X58703993Y-149291715D01*
X58382086Y-148809946D01*
X57900317Y-148488039D01*
X57332032Y-148375000D01*
X56967968Y-148375000D01*
X56399683Y-148488039D01*
X55917914Y-148809946D01*
X55596007Y-149291715D01*
X55482968Y-149860000D01*
X50157440Y-149860000D01*
X50157440Y-147400000D01*
X50113162Y-147164683D01*
X49974090Y-146948559D01*
X49761890Y-146803569D01*
X49510000Y-146752560D01*
X49104438Y-146752560D01*
X49104438Y-146511886D01*
X49231083Y-146385462D01*
X49251725Y-146335750D01*
X61849000Y-146335750D01*
X61849000Y-147192309D01*
X61945673Y-147425698D01*
X62124301Y-147604327D01*
X62357690Y-147701000D01*
X63214250Y-147701000D01*
X63373000Y-147542250D01*
X63373000Y-146177000D01*
X62007750Y-146177000D01*
X61849000Y-146335750D01*
X49251725Y-146335750D01*
X49404241Y-145968453D01*
X49404635Y-145516922D01*
X49232205Y-145099611D01*
X49040620Y-144907691D01*
X61849000Y-144907691D01*
X61849000Y-145764250D01*
X62007750Y-145923000D01*
X63373000Y-145923000D01*
X63373000Y-144557750D01*
X63627000Y-144557750D01*
X63627000Y-145923000D01*
X63647000Y-145923000D01*
X63647000Y-146177000D01*
X63627000Y-146177000D01*
X63627000Y-147542250D01*
X63785750Y-147701000D01*
X64642310Y-147701000D01*
X64875699Y-147604327D01*
X65054327Y-147425698D01*
X65071999Y-147383034D01*
X65408190Y-147607670D01*
X66040000Y-147733345D01*
X66671810Y-147607670D01*
X67207433Y-147249778D01*
X67565325Y-146714155D01*
X67691000Y-146082345D01*
X67691000Y-146017655D01*
X67565325Y-145385845D01*
X67207433Y-144850222D01*
X66671810Y-144492330D01*
X66040000Y-144366655D01*
X65408190Y-144492330D01*
X65071999Y-144716966D01*
X65054327Y-144674302D01*
X64875699Y-144495673D01*
X64642310Y-144399000D01*
X63785750Y-144399000D01*
X63627000Y-144557750D01*
X63373000Y-144557750D01*
X63214250Y-144399000D01*
X62357690Y-144399000D01*
X62124301Y-144495673D01*
X61945673Y-144674302D01*
X61849000Y-144907691D01*
X49040620Y-144907691D01*
X48913203Y-144780052D01*
X48496194Y-144606894D01*
X48044663Y-144606500D01*
X47627352Y-144778930D01*
X47307793Y-145097932D01*
X47134635Y-145514941D01*
X47134241Y-145966472D01*
X47306671Y-146383783D01*
X47434438Y-146511773D01*
X47434438Y-146752560D01*
X47010000Y-146752560D01*
X46774683Y-146796838D01*
X46558559Y-146935910D01*
X46413569Y-147148110D01*
X46362560Y-147400000D01*
X44687945Y-147400000D01*
X44752600Y-147243910D01*
X44752600Y-146285750D01*
X44593850Y-146127000D01*
X43127000Y-146127000D01*
X42873000Y-146127000D01*
X42853000Y-146127000D01*
X42853000Y-145873000D01*
X42873000Y-145873000D01*
X42873000Y-144406150D01*
X43127000Y-144406150D01*
X43127000Y-145873000D01*
X44593850Y-145873000D01*
X44752600Y-145714250D01*
X44752600Y-144756090D01*
X44655927Y-144522701D01*
X44477298Y-144344073D01*
X44243909Y-144247400D01*
X43285750Y-144247400D01*
X43127000Y-144406150D01*
X42873000Y-144406150D01*
X42714250Y-144247400D01*
X41756091Y-144247400D01*
X41710000Y-144266492D01*
X41710000Y-134772618D01*
X41925566Y-135071277D01*
X43258800Y-135631342D01*
X44704875Y-135638568D01*
X46043639Y-135091854D01*
X46074434Y-135071277D01*
X46417025Y-134596630D01*
X46334365Y-134513970D01*
X75165635Y-134513970D01*
X75325418Y-134832739D01*
X76116187Y-135142723D01*
X76965387Y-135126497D01*
X77373835Y-134957312D01*
X80722293Y-134957312D01*
X81125762Y-135483924D01*
X82639730Y-136127307D01*
X84284666Y-136142346D01*
X85810145Y-135526750D01*
X85874238Y-135483924D01*
X86277707Y-134957312D01*
X83500000Y-132179605D01*
X80722293Y-134957312D01*
X77373835Y-134957312D01*
X77674582Y-134832739D01*
X77834365Y-134513970D01*
X76500000Y-133179605D01*
X75165635Y-134513970D01*
X46334365Y-134513970D01*
X44000000Y-132179605D01*
X43985858Y-132193748D01*
X43806253Y-132014143D01*
X43820395Y-132000000D01*
X44179605Y-132000000D01*
X46596630Y-134417025D01*
X47071277Y-134074434D01*
X47631342Y-132741200D01*
X47631966Y-132616187D01*
X74357277Y-132616187D01*
X74373503Y-133465387D01*
X74667261Y-134174582D01*
X74986030Y-134334365D01*
X76320395Y-133000000D01*
X76679605Y-133000000D01*
X78013970Y-134334365D01*
X78332739Y-134174582D01*
X78642723Y-133383813D01*
X78631275Y-132784666D01*
X79357654Y-132784666D01*
X79973250Y-134310145D01*
X80016076Y-134374238D01*
X80542688Y-134777707D01*
X83320395Y-132000000D01*
X83679605Y-132000000D01*
X86457312Y-134777707D01*
X86983924Y-134374238D01*
X87627307Y-132860270D01*
X87639743Y-131500000D01*
X94842560Y-131500000D01*
X94842560Y-134500000D01*
X94886838Y-134735317D01*
X95025910Y-134951441D01*
X95238110Y-135096431D01*
X95490000Y-135147440D01*
X98490000Y-135147440D01*
X98725317Y-135103162D01*
X98941441Y-134964090D01*
X99086431Y-134751890D01*
X99137440Y-134500000D01*
X99137440Y-131500000D01*
X99093162Y-131264683D01*
X98954090Y-131048559D01*
X98741890Y-130903569D01*
X98490000Y-130852560D01*
X95490000Y-130852560D01*
X95254683Y-130896838D01*
X95038559Y-131035910D01*
X94893569Y-131248110D01*
X94842560Y-131500000D01*
X87639743Y-131500000D01*
X87642346Y-131215334D01*
X87026750Y-129689855D01*
X86983924Y-129625762D01*
X86457312Y-129222293D01*
X83679605Y-132000000D01*
X83320395Y-132000000D01*
X80542688Y-129222293D01*
X80016076Y-129625762D01*
X79372693Y-131139730D01*
X79357654Y-132784666D01*
X78631275Y-132784666D01*
X78626497Y-132534613D01*
X78332739Y-131825418D01*
X78013970Y-131665635D01*
X76679605Y-133000000D01*
X76320395Y-133000000D01*
X74986030Y-131665635D01*
X74667261Y-131825418D01*
X74357277Y-132616187D01*
X47631966Y-132616187D01*
X47637613Y-131486030D01*
X75165635Y-131486030D01*
X76500000Y-132820395D01*
X77834365Y-131486030D01*
X77674582Y-131167261D01*
X76883813Y-130857277D01*
X76034613Y-130873503D01*
X75325418Y-131167261D01*
X75165635Y-131486030D01*
X47637613Y-131486030D01*
X47638568Y-131295125D01*
X47091854Y-129956361D01*
X47071277Y-129925566D01*
X46596630Y-129582975D01*
X44179605Y-132000000D01*
X43820395Y-132000000D01*
X43806253Y-131985858D01*
X43985858Y-131806253D01*
X44000000Y-131820395D01*
X46417025Y-129403370D01*
X46156692Y-129042688D01*
X80722293Y-129042688D01*
X83500000Y-131820395D01*
X86277707Y-129042688D01*
X85874238Y-128516076D01*
X84360270Y-127872693D01*
X82715334Y-127857654D01*
X81189855Y-128473250D01*
X81125762Y-128516076D01*
X80722293Y-129042688D01*
X46156692Y-129042688D01*
X46074434Y-128928723D01*
X44741200Y-128368658D01*
X43295125Y-128361432D01*
X41956361Y-128908146D01*
X41925566Y-128928723D01*
X41710000Y-129227382D01*
X41710000Y-127069931D01*
X41859062Y-126320544D01*
X47893856Y-120285750D01*
X48247400Y-120285750D01*
X48247400Y-121243910D01*
X48344073Y-121477299D01*
X48522702Y-121655927D01*
X48756091Y-121752600D01*
X49714250Y-121752600D01*
X49873000Y-121593850D01*
X49873000Y-120127000D01*
X50127000Y-120127000D01*
X50127000Y-121593850D01*
X50285750Y-121752600D01*
X51243909Y-121752600D01*
X51477298Y-121655927D01*
X51655927Y-121477299D01*
X51752600Y-121243910D01*
X51752600Y-120285750D01*
X51593850Y-120127000D01*
X50127000Y-120127000D01*
X49873000Y-120127000D01*
X48406150Y-120127000D01*
X48247400Y-120285750D01*
X47893856Y-120285750D01*
X48356378Y-119823228D01*
X48406150Y-119873000D01*
X49873000Y-119873000D01*
X49873000Y-119853000D01*
X50127000Y-119853000D01*
X50127000Y-119873000D01*
X51593850Y-119873000D01*
X51752600Y-119714250D01*
X51752600Y-118756090D01*
X51733509Y-118710000D01*
X111530394Y-118710000D01*
X117873000Y-125052606D01*
X117873000Y-125052606D01*
G37*
X117873000Y-125052606D02*
X117873000Y-144000000D01*
X117883006Y-144049410D01*
X117910197Y-144089803D01*
X125290000Y-151469606D01*
X125290000Y-162930069D01*
X125140938Y-163679456D01*
X117679456Y-171140938D01*
X116930069Y-171290000D01*
X77657798Y-171290000D01*
X78310145Y-171026750D01*
X78374238Y-170983924D01*
X78777707Y-170457312D01*
X76000000Y-167679605D01*
X73222293Y-170457312D01*
X73625762Y-170983924D01*
X74346001Y-171290000D01*
X50069931Y-171290000D01*
X49320544Y-171140938D01*
X46464272Y-168284666D01*
X71857654Y-168284666D01*
X72473250Y-169810145D01*
X72516076Y-169874238D01*
X73042688Y-170277707D01*
X75820395Y-167500000D01*
X76179605Y-167500000D01*
X78957312Y-170277707D01*
X79483924Y-169874238D01*
X80127307Y-168360270D01*
X80142346Y-166715334D01*
X79526750Y-165189855D01*
X79483924Y-165125762D01*
X78957312Y-164722293D01*
X76179605Y-167500000D01*
X75820395Y-167500000D01*
X73042688Y-164722293D01*
X72516076Y-165125762D01*
X71872693Y-166639730D01*
X71857654Y-168284666D01*
X46464272Y-168284666D01*
X42722294Y-164542688D01*
X73222293Y-164542688D01*
X76000000Y-167320395D01*
X78777707Y-164542688D01*
X78374238Y-164016076D01*
X76860270Y-163372693D01*
X75215334Y-163357654D01*
X73689855Y-163973250D01*
X73625762Y-164016076D01*
X73222293Y-164542688D01*
X42722294Y-164542688D01*
X41859062Y-163679456D01*
X41710000Y-162930069D01*
X41710000Y-160020000D01*
X55482968Y-160020000D01*
X55596007Y-160588285D01*
X55917914Y-161070054D01*
X56247087Y-161290000D01*
X55917914Y-161509946D01*
X55596007Y-161991715D01*
X55482968Y-162560000D01*
X55596007Y-163128285D01*
X55917914Y-163610054D01*
X56399683Y-163931961D01*
X56967968Y-164045000D01*
X57332032Y-164045000D01*
X57900317Y-163931961D01*
X58382086Y-163610054D01*
X58703993Y-163128285D01*
X58754594Y-162873893D01*
X64454725Y-162873893D01*
X64695519Y-163456657D01*
X65140997Y-163902914D01*
X65723341Y-164144724D01*
X66353893Y-164145275D01*
X66936657Y-163904481D01*
X67041867Y-163799455D01*
X67091673Y-163919698D01*
X67270301Y-164098327D01*
X67503690Y-164195000D01*
X68294250Y-164195000D01*
X68453000Y-164036250D01*
X68453000Y-162687000D01*
X68707000Y-162687000D01*
X68707000Y-164036250D01*
X68865750Y-164195000D01*
X69656310Y-164195000D01*
X69889699Y-164098327D01*
X70068327Y-163919698D01*
X70165000Y-163686309D01*
X70165000Y-162845750D01*
X70006250Y-162687000D01*
X68707000Y-162687000D01*
X68453000Y-162687000D01*
X68433000Y-162687000D01*
X68433000Y-162433000D01*
X68453000Y-162433000D01*
X68453000Y-161083750D01*
X68707000Y-161083750D01*
X68707000Y-162433000D01*
X70006250Y-162433000D01*
X70165000Y-162274250D01*
X70165000Y-161433691D01*
X70068327Y-161200302D01*
X69889699Y-161021673D01*
X69656310Y-160925000D01*
X68865750Y-160925000D01*
X68707000Y-161083750D01*
X68453000Y-161083750D01*
X68294250Y-160925000D01*
X67503690Y-160925000D01*
X67270301Y-161021673D01*
X67091673Y-161200302D01*
X67041988Y-161320251D01*
X66939003Y-161217086D01*
X66356659Y-160975276D01*
X65726107Y-160974725D01*
X65143343Y-161215519D01*
X64697086Y-161660997D01*
X64455276Y-162243341D01*
X64454725Y-162873893D01*
X58754594Y-162873893D01*
X58817032Y-162560000D01*
X58703993Y-161991715D01*
X58382086Y-161509946D01*
X58052913Y-161290000D01*
X58382086Y-161070054D01*
X58703993Y-160588285D01*
X58817032Y-160020000D01*
X58703993Y-159451715D01*
X58382086Y-158969946D01*
X58339841Y-158941719D01*
X58385317Y-158933162D01*
X58601441Y-158794090D01*
X58746431Y-158581890D01*
X58797440Y-158330000D01*
X58797440Y-157829039D01*
X61758096Y-157829039D01*
X61775633Y-157911819D01*
X62045500Y-158404896D01*
X62483517Y-158757166D01*
X63023000Y-158915000D01*
X63373000Y-158915000D01*
X63373000Y-157607000D01*
X63627000Y-157607000D01*
X63627000Y-158915000D01*
X63977000Y-158915000D01*
X64516483Y-158757166D01*
X64954500Y-158404896D01*
X65224367Y-157911819D01*
X65241904Y-157829039D01*
X65119915Y-157607000D01*
X63627000Y-157607000D01*
X63373000Y-157607000D01*
X61880085Y-157607000D01*
X61758096Y-157829039D01*
X58797440Y-157829039D01*
X58797440Y-156630000D01*
X58753162Y-156394683D01*
X58614090Y-156178559D01*
X58401890Y-156033569D01*
X58289231Y-156010755D01*
X58488664Y-155832045D01*
X58739553Y-155309260D01*
X58741476Y-155296890D01*
X58620155Y-155067000D01*
X57277000Y-155067000D01*
X57277000Y-155087000D01*
X57023000Y-155087000D01*
X57023000Y-155067000D01*
X55679845Y-155067000D01*
X55558524Y-155296890D01*
X55560447Y-155309260D01*
X55811336Y-155832045D01*
X56008927Y-156009105D01*
X55914683Y-156026838D01*
X55698559Y-156165910D01*
X55553569Y-156378110D01*
X55502560Y-156630000D01*
X55502560Y-158330000D01*
X55546838Y-158565317D01*
X55685910Y-158781441D01*
X55898110Y-158926431D01*
X55963286Y-158939629D01*
X55917914Y-158969946D01*
X55596007Y-159451715D01*
X55482968Y-160020000D01*
X41710000Y-160020000D01*
X41710000Y-155810750D01*
X46375000Y-155810750D01*
X46375000Y-157526309D01*
X46471673Y-157759698D01*
X46650301Y-157938327D01*
X46883690Y-158035000D01*
X47974250Y-158035000D01*
X48133000Y-157876250D01*
X48133000Y-155652000D01*
X48387000Y-155652000D01*
X48387000Y-157876250D01*
X48545750Y-158035000D01*
X49636310Y-158035000D01*
X49869699Y-157938327D01*
X50048327Y-157759698D01*
X50145000Y-157526309D01*
X50145000Y-155810750D01*
X49986250Y-155652000D01*
X48387000Y-155652000D01*
X48133000Y-155652000D01*
X46533750Y-155652000D01*
X46375000Y-155810750D01*
X41710000Y-155810750D01*
X41710000Y-153523691D01*
X46375000Y-153523691D01*
X46375000Y-155239250D01*
X46533750Y-155398000D01*
X48133000Y-155398000D01*
X48133000Y-153173750D01*
X48387000Y-153173750D01*
X48387000Y-155398000D01*
X49986250Y-155398000D01*
X50145000Y-155239250D01*
X50145000Y-153523691D01*
X50048327Y-153290302D01*
X49869699Y-153111673D01*
X49636310Y-153015000D01*
X48545750Y-153015000D01*
X48387000Y-153173750D01*
X48133000Y-153173750D01*
X47974250Y-153015000D01*
X46883690Y-153015000D01*
X46650301Y-153111673D01*
X46471673Y-153290302D01*
X46375000Y-153523691D01*
X41710000Y-153523691D01*
X41710000Y-147733508D01*
X41756091Y-147752600D01*
X42714250Y-147752600D01*
X42873000Y-147593850D01*
X42873000Y-146127000D01*
X43127000Y-146127000D01*
X43127000Y-147593850D01*
X43285750Y-147752600D01*
X44243909Y-147752600D01*
X44477298Y-147655927D01*
X44655927Y-147477299D01*
X44687945Y-147400000D01*
X46362560Y-147400000D01*
X46362560Y-151150000D01*
X46406838Y-151385317D01*
X46545910Y-151601441D01*
X46758110Y-151746431D01*
X47010000Y-151797440D01*
X49510000Y-151797440D01*
X49745317Y-151753162D01*
X49961441Y-151614090D01*
X50106431Y-151401890D01*
X50157440Y-151150000D01*
X50157440Y-149860000D01*
X55482968Y-149860000D01*
X55596007Y-150428285D01*
X55917914Y-150910054D01*
X56247087Y-151130000D01*
X55917914Y-151349946D01*
X55596007Y-151831715D01*
X55482968Y-152400000D01*
X55596007Y-152968285D01*
X55917914Y-153450054D01*
X56239085Y-153664653D01*
X55811336Y-154047955D01*
X55560447Y-154570740D01*
X55558524Y-154583110D01*
X55679845Y-154813000D01*
X57023000Y-154813000D01*
X57023000Y-154793000D01*
X57277000Y-154793000D01*
X57277000Y-154813000D01*
X58620155Y-154813000D01*
X58741476Y-154583110D01*
X58739553Y-154570740D01*
X58488664Y-154047955D01*
X58060915Y-153664653D01*
X58382086Y-153450054D01*
X58703993Y-152968285D01*
X58817032Y-152400000D01*
X58703993Y-151831715D01*
X58382086Y-151349946D01*
X58052913Y-151130000D01*
X58382086Y-150910054D01*
X58703993Y-150428285D01*
X58817032Y-149860000D01*
X61680030Y-149860000D01*
X61789263Y-150409151D01*
X62100332Y-150874698D01*
X62482418Y-151130000D01*
X62100332Y-151385302D01*
X61789263Y-151850849D01*
X61680030Y-152400000D01*
X61789263Y-152949151D01*
X62100332Y-153414698D01*
X62482418Y-153670000D01*
X62100332Y-153925302D01*
X61789263Y-154390849D01*
X61680030Y-154940000D01*
X61789263Y-155489151D01*
X62100332Y-155954698D01*
X62478151Y-156207149D01*
X62045500Y-156555104D01*
X61775633Y-157048181D01*
X61758096Y-157130961D01*
X61880085Y-157353000D01*
X63373000Y-157353000D01*
X63373000Y-157333000D01*
X63627000Y-157333000D01*
X63627000Y-157353000D01*
X65119915Y-157353000D01*
X65241904Y-157130961D01*
X65224367Y-157048181D01*
X64954500Y-156555104D01*
X64521849Y-156207149D01*
X64899668Y-155954698D01*
X65210737Y-155489151D01*
X65319970Y-154940000D01*
X65210737Y-154390849D01*
X64899668Y-153925302D01*
X64517582Y-153670000D01*
X64899668Y-153414698D01*
X65210737Y-152949151D01*
X65319970Y-152400000D01*
X65210737Y-151850849D01*
X64899668Y-151385302D01*
X64517582Y-151130000D01*
X64899668Y-150874698D01*
X65210737Y-150409151D01*
X65319970Y-149860000D01*
X69300030Y-149860000D01*
X69409263Y-150409151D01*
X69720332Y-150874698D01*
X70102418Y-151130000D01*
X69720332Y-151385302D01*
X69409263Y-151850849D01*
X69300030Y-152400000D01*
X69409263Y-152949151D01*
X69720332Y-153414698D01*
X70102418Y-153670000D01*
X69720332Y-153925302D01*
X69409263Y-154390849D01*
X69300030Y-154940000D01*
X69409263Y-155489151D01*
X69720332Y-155954698D01*
X70102418Y-156210000D01*
X69720332Y-156465302D01*
X69409263Y-156930849D01*
X69300030Y-157480000D01*
X69409263Y-158029151D01*
X69720332Y-158494698D01*
X70185879Y-158805767D01*
X70735030Y-158915000D01*
X71504970Y-158915000D01*
X72054121Y-158805767D01*
X72519668Y-158494698D01*
X72830737Y-158029151D01*
X72939970Y-157480000D01*
X72830737Y-156930849D01*
X72519668Y-156465302D01*
X72137582Y-156210000D01*
X72519668Y-155954698D01*
X72830737Y-155489151D01*
X72939970Y-154940000D01*
X72830737Y-154390849D01*
X72519668Y-153925302D01*
X72137582Y-153670000D01*
X72519668Y-153414698D01*
X72830737Y-152949151D01*
X72939970Y-152400000D01*
X72830737Y-151850849D01*
X72519668Y-151385302D01*
X72466835Y-151350000D01*
X77042560Y-151350000D01*
X77042560Y-154950000D01*
X77086838Y-155185317D01*
X77225910Y-155401441D01*
X77438110Y-155546431D01*
X77690000Y-155597440D01*
X79790000Y-155597440D01*
X80025317Y-155553162D01*
X80241441Y-155414090D01*
X80386431Y-155201890D01*
X80437440Y-154950000D01*
X80437440Y-153277000D01*
X82135000Y-153277000D01*
X82135000Y-154027000D01*
X82311864Y-154662154D01*
X82718328Y-155181277D01*
X83292511Y-155505337D01*
X83431721Y-155539654D01*
X83693000Y-155420957D01*
X83693000Y-153277000D01*
X83947000Y-153277000D01*
X83947000Y-155420957D01*
X84208279Y-155539654D01*
X84347489Y-155505337D01*
X84921672Y-155181277D01*
X85328136Y-154662154D01*
X85505000Y-154027000D01*
X85505000Y-153277000D01*
X83947000Y-153277000D01*
X83693000Y-153277000D01*
X82135000Y-153277000D01*
X80437440Y-153277000D01*
X80437440Y-152273000D01*
X82135000Y-152273000D01*
X82135000Y-153023000D01*
X83693000Y-153023000D01*
X83693000Y-150879043D01*
X83947000Y-150879043D01*
X83947000Y-153023000D01*
X85505000Y-153023000D01*
X85505000Y-152352296D01*
X87215000Y-152352296D01*
X87215000Y-153947704D01*
X87343263Y-154592526D01*
X87708525Y-155139179D01*
X88255178Y-155504441D01*
X88900000Y-155632704D01*
X89544822Y-155504441D01*
X90091475Y-155139179D01*
X90456737Y-154592526D01*
X90585000Y-153947704D01*
X90585000Y-153277000D01*
X92295000Y-153277000D01*
X92295000Y-154027000D01*
X92471864Y-154662154D01*
X92878328Y-155181277D01*
X93452511Y-155505337D01*
X93591721Y-155539654D01*
X93853000Y-155420957D01*
X93853000Y-153277000D01*
X94107000Y-153277000D01*
X94107000Y-155420957D01*
X94368279Y-155539654D01*
X94507489Y-155505337D01*
X95081672Y-155181277D01*
X95488136Y-154662154D01*
X95665000Y-154027000D01*
X95665000Y-153277000D01*
X94107000Y-153277000D01*
X93853000Y-153277000D01*
X92295000Y-153277000D01*
X90585000Y-153277000D01*
X90585000Y-152352296D01*
X90569228Y-152273000D01*
X92295000Y-152273000D01*
X92295000Y-153023000D01*
X93853000Y-153023000D01*
X93853000Y-150879043D01*
X94107000Y-150879043D01*
X94107000Y-153023000D01*
X95665000Y-153023000D01*
X95665000Y-152352296D01*
X97375000Y-152352296D01*
X97375000Y-153947704D01*
X97503263Y-154592526D01*
X97868525Y-155139179D01*
X98415178Y-155504441D01*
X99060000Y-155632704D01*
X99704822Y-155504441D01*
X100251475Y-155139179D01*
X100616737Y-154592526D01*
X100745000Y-153947704D01*
X100745000Y-153277000D01*
X102455000Y-153277000D01*
X102455000Y-154027000D01*
X102631864Y-154662154D01*
X103038328Y-155181277D01*
X103612511Y-155505337D01*
X103751721Y-155539654D01*
X104013000Y-155420957D01*
X104013000Y-153277000D01*
X104267000Y-153277000D01*
X104267000Y-155420957D01*
X104528279Y-155539654D01*
X104667489Y-155505337D01*
X105241672Y-155181277D01*
X105648136Y-154662154D01*
X105825000Y-154027000D01*
X105825000Y-153277000D01*
X104267000Y-153277000D01*
X104013000Y-153277000D01*
X102455000Y-153277000D01*
X100745000Y-153277000D01*
X100745000Y-152352296D01*
X100729228Y-152273000D01*
X102455000Y-152273000D01*
X102455000Y-153023000D01*
X104013000Y-153023000D01*
X104013000Y-150879043D01*
X104267000Y-150879043D01*
X104267000Y-153023000D01*
X105825000Y-153023000D01*
X105825000Y-152352296D01*
X107535000Y-152352296D01*
X107535000Y-153947704D01*
X107663263Y-154592526D01*
X108028525Y-155139179D01*
X108575178Y-155504441D01*
X109220000Y-155632704D01*
X109864822Y-155504441D01*
X110411475Y-155139179D01*
X110776737Y-154592526D01*
X110905000Y-153947704D01*
X110905000Y-153277000D01*
X112615000Y-153277000D01*
X112615000Y-154027000D01*
X112791864Y-154662154D01*
X113198328Y-155181277D01*
X113772511Y-155505337D01*
X113911721Y-155539654D01*
X114173000Y-155420957D01*
X114173000Y-153277000D01*
X114427000Y-153277000D01*
X114427000Y-155420957D01*
X114688279Y-155539654D01*
X114827489Y-155505337D01*
X115401672Y-155181277D01*
X115808136Y-154662154D01*
X115985000Y-154027000D01*
X115985000Y-153277000D01*
X114427000Y-153277000D01*
X114173000Y-153277000D01*
X112615000Y-153277000D01*
X110905000Y-153277000D01*
X110905000Y-152352296D01*
X110889228Y-152273000D01*
X112615000Y-152273000D01*
X112615000Y-153023000D01*
X114173000Y-153023000D01*
X114173000Y-150879043D01*
X114427000Y-150879043D01*
X114427000Y-153023000D01*
X115985000Y-153023000D01*
X115985000Y-152273000D01*
X115808136Y-151637846D01*
X115401672Y-151118723D01*
X114827489Y-150794663D01*
X114688279Y-150760346D01*
X114427000Y-150879043D01*
X114173000Y-150879043D01*
X113911721Y-150760346D01*
X113772511Y-150794663D01*
X113198328Y-151118723D01*
X112791864Y-151637846D01*
X112615000Y-152273000D01*
X110889228Y-152273000D01*
X110776737Y-151707474D01*
X110411475Y-151160821D01*
X109864822Y-150795559D01*
X109220000Y-150667296D01*
X108575178Y-150795559D01*
X108028525Y-151160821D01*
X107663263Y-151707474D01*
X107535000Y-152352296D01*
X105825000Y-152352296D01*
X105825000Y-152273000D01*
X105648136Y-151637846D01*
X105241672Y-151118723D01*
X104667489Y-150794663D01*
X104528279Y-150760346D01*
X104267000Y-150879043D01*
X104013000Y-150879043D01*
X103751721Y-150760346D01*
X103612511Y-150794663D01*
X103038328Y-151118723D01*
X102631864Y-151637846D01*
X102455000Y-152273000D01*
X100729228Y-152273000D01*
X100616737Y-151707474D01*
X100251475Y-151160821D01*
X99704822Y-150795559D01*
X99060000Y-150667296D01*
X98415178Y-150795559D01*
X97868525Y-151160821D01*
X97503263Y-151707474D01*
X97375000Y-152352296D01*
X95665000Y-152352296D01*
X95665000Y-152273000D01*
X95488136Y-151637846D01*
X95081672Y-151118723D01*
X94507489Y-150794663D01*
X94368279Y-150760346D01*
X94107000Y-150879043D01*
X93853000Y-150879043D01*
X93591721Y-150760346D01*
X93452511Y-150794663D01*
X92878328Y-151118723D01*
X92471864Y-151637846D01*
X92295000Y-152273000D01*
X90569228Y-152273000D01*
X90456737Y-151707474D01*
X90091475Y-151160821D01*
X89544822Y-150795559D01*
X88900000Y-150667296D01*
X88255178Y-150795559D01*
X87708525Y-151160821D01*
X87343263Y-151707474D01*
X87215000Y-152352296D01*
X85505000Y-152352296D01*
X85505000Y-152273000D01*
X85328136Y-151637846D01*
X84921672Y-151118723D01*
X84347489Y-150794663D01*
X84208279Y-150760346D01*
X83947000Y-150879043D01*
X83693000Y-150879043D01*
X83431721Y-150760346D01*
X83292511Y-150794663D01*
X82718328Y-151118723D01*
X82311864Y-151637846D01*
X82135000Y-152273000D01*
X80437440Y-152273000D01*
X80437440Y-151350000D01*
X80393162Y-151114683D01*
X80254090Y-150898559D01*
X80041890Y-150753569D01*
X79790000Y-150702560D01*
X77690000Y-150702560D01*
X77454683Y-150746838D01*
X77238559Y-150885910D01*
X77093569Y-151098110D01*
X77042560Y-151350000D01*
X72466835Y-151350000D01*
X72137582Y-151130000D01*
X72519668Y-150874698D01*
X72830737Y-150409151D01*
X72939970Y-149860000D01*
X72830737Y-149310849D01*
X72519668Y-148845302D01*
X72054121Y-148534233D01*
X71504970Y-148425000D01*
X70735030Y-148425000D01*
X70185879Y-148534233D01*
X69720332Y-148845302D01*
X69409263Y-149310849D01*
X69300030Y-149860000D01*
X65319970Y-149860000D01*
X65210737Y-149310849D01*
X64899668Y-148845302D01*
X64434121Y-148534233D01*
X63884970Y-148425000D01*
X63115030Y-148425000D01*
X62565879Y-148534233D01*
X62100332Y-148845302D01*
X61789263Y-149310849D01*
X61680030Y-149860000D01*
X58817032Y-149860000D01*
X58703993Y-149291715D01*
X58382086Y-148809946D01*
X57900317Y-148488039D01*
X57332032Y-148375000D01*
X56967968Y-148375000D01*
X56399683Y-148488039D01*
X55917914Y-148809946D01*
X55596007Y-149291715D01*
X55482968Y-149860000D01*
X50157440Y-149860000D01*
X50157440Y-147400000D01*
X50113162Y-147164683D01*
X49974090Y-146948559D01*
X49761890Y-146803569D01*
X49510000Y-146752560D01*
X49104438Y-146752560D01*
X49104438Y-146511886D01*
X49231083Y-146385462D01*
X49251725Y-146335750D01*
X61849000Y-146335750D01*
X61849000Y-147192309D01*
X61945673Y-147425698D01*
X62124301Y-147604327D01*
X62357690Y-147701000D01*
X63214250Y-147701000D01*
X63373000Y-147542250D01*
X63373000Y-146177000D01*
X62007750Y-146177000D01*
X61849000Y-146335750D01*
X49251725Y-146335750D01*
X49404241Y-145968453D01*
X49404635Y-145516922D01*
X49232205Y-145099611D01*
X49040620Y-144907691D01*
X61849000Y-144907691D01*
X61849000Y-145764250D01*
X62007750Y-145923000D01*
X63373000Y-145923000D01*
X63373000Y-144557750D01*
X63627000Y-144557750D01*
X63627000Y-145923000D01*
X63647000Y-145923000D01*
X63647000Y-146177000D01*
X63627000Y-146177000D01*
X63627000Y-147542250D01*
X63785750Y-147701000D01*
X64642310Y-147701000D01*
X64875699Y-147604327D01*
X65054327Y-147425698D01*
X65071999Y-147383034D01*
X65408190Y-147607670D01*
X66040000Y-147733345D01*
X66671810Y-147607670D01*
X67207433Y-147249778D01*
X67565325Y-146714155D01*
X67691000Y-146082345D01*
X67691000Y-146017655D01*
X67565325Y-145385845D01*
X67207433Y-144850222D01*
X66671810Y-144492330D01*
X66040000Y-144366655D01*
X65408190Y-144492330D01*
X65071999Y-144716966D01*
X65054327Y-144674302D01*
X64875699Y-144495673D01*
X64642310Y-144399000D01*
X63785750Y-144399000D01*
X63627000Y-144557750D01*
X63373000Y-144557750D01*
X63214250Y-144399000D01*
X62357690Y-144399000D01*
X62124301Y-144495673D01*
X61945673Y-144674302D01*
X61849000Y-144907691D01*
X49040620Y-144907691D01*
X48913203Y-144780052D01*
X48496194Y-144606894D01*
X48044663Y-144606500D01*
X47627352Y-144778930D01*
X47307793Y-145097932D01*
X47134635Y-145514941D01*
X47134241Y-145966472D01*
X47306671Y-146383783D01*
X47434438Y-146511773D01*
X47434438Y-146752560D01*
X47010000Y-146752560D01*
X46774683Y-146796838D01*
X46558559Y-146935910D01*
X46413569Y-147148110D01*
X46362560Y-147400000D01*
X44687945Y-147400000D01*
X44752600Y-147243910D01*
X44752600Y-146285750D01*
X44593850Y-146127000D01*
X43127000Y-146127000D01*
X42873000Y-146127000D01*
X42853000Y-146127000D01*
X42853000Y-145873000D01*
X42873000Y-145873000D01*
X42873000Y-144406150D01*
X43127000Y-144406150D01*
X43127000Y-145873000D01*
X44593850Y-145873000D01*
X44752600Y-145714250D01*
X44752600Y-144756090D01*
X44655927Y-144522701D01*
X44477298Y-144344073D01*
X44243909Y-144247400D01*
X43285750Y-144247400D01*
X43127000Y-144406150D01*
X42873000Y-144406150D01*
X42714250Y-144247400D01*
X41756091Y-144247400D01*
X41710000Y-144266492D01*
X41710000Y-134772618D01*
X41925566Y-135071277D01*
X43258800Y-135631342D01*
X44704875Y-135638568D01*
X46043639Y-135091854D01*
X46074434Y-135071277D01*
X46417025Y-134596630D01*
X46334365Y-134513970D01*
X75165635Y-134513970D01*
X75325418Y-134832739D01*
X76116187Y-135142723D01*
X76965387Y-135126497D01*
X77373835Y-134957312D01*
X80722293Y-134957312D01*
X81125762Y-135483924D01*
X82639730Y-136127307D01*
X84284666Y-136142346D01*
X85810145Y-135526750D01*
X85874238Y-135483924D01*
X86277707Y-134957312D01*
X83500000Y-132179605D01*
X80722293Y-134957312D01*
X77373835Y-134957312D01*
X77674582Y-134832739D01*
X77834365Y-134513970D01*
X76500000Y-133179605D01*
X75165635Y-134513970D01*
X46334365Y-134513970D01*
X44000000Y-132179605D01*
X43985858Y-132193748D01*
X43806253Y-132014143D01*
X43820395Y-132000000D01*
X44179605Y-132000000D01*
X46596630Y-134417025D01*
X47071277Y-134074434D01*
X47631342Y-132741200D01*
X47631966Y-132616187D01*
X74357277Y-132616187D01*
X74373503Y-133465387D01*
X74667261Y-134174582D01*
X74986030Y-134334365D01*
X76320395Y-133000000D01*
X76679605Y-133000000D01*
X78013970Y-134334365D01*
X78332739Y-134174582D01*
X78642723Y-133383813D01*
X78631275Y-132784666D01*
X79357654Y-132784666D01*
X79973250Y-134310145D01*
X80016076Y-134374238D01*
X80542688Y-134777707D01*
X83320395Y-132000000D01*
X83679605Y-132000000D01*
X86457312Y-134777707D01*
X86983924Y-134374238D01*
X87627307Y-132860270D01*
X87639743Y-131500000D01*
X94842560Y-131500000D01*
X94842560Y-134500000D01*
X94886838Y-134735317D01*
X95025910Y-134951441D01*
X95238110Y-135096431D01*
X95490000Y-135147440D01*
X98490000Y-135147440D01*
X98725317Y-135103162D01*
X98941441Y-134964090D01*
X99086431Y-134751890D01*
X99137440Y-134500000D01*
X99137440Y-131500000D01*
X99093162Y-131264683D01*
X98954090Y-131048559D01*
X98741890Y-130903569D01*
X98490000Y-130852560D01*
X95490000Y-130852560D01*
X95254683Y-130896838D01*
X95038559Y-131035910D01*
X94893569Y-131248110D01*
X94842560Y-131500000D01*
X87639743Y-131500000D01*
X87642346Y-131215334D01*
X87026750Y-129689855D01*
X86983924Y-129625762D01*
X86457312Y-129222293D01*
X83679605Y-132000000D01*
X83320395Y-132000000D01*
X80542688Y-129222293D01*
X80016076Y-129625762D01*
X79372693Y-131139730D01*
X79357654Y-132784666D01*
X78631275Y-132784666D01*
X78626497Y-132534613D01*
X78332739Y-131825418D01*
X78013970Y-131665635D01*
X76679605Y-133000000D01*
X76320395Y-133000000D01*
X74986030Y-131665635D01*
X74667261Y-131825418D01*
X74357277Y-132616187D01*
X47631966Y-132616187D01*
X47637613Y-131486030D01*
X75165635Y-131486030D01*
X76500000Y-132820395D01*
X77834365Y-131486030D01*
X77674582Y-131167261D01*
X76883813Y-130857277D01*
X76034613Y-130873503D01*
X75325418Y-131167261D01*
X75165635Y-131486030D01*
X47637613Y-131486030D01*
X47638568Y-131295125D01*
X47091854Y-129956361D01*
X47071277Y-129925566D01*
X46596630Y-129582975D01*
X44179605Y-132000000D01*
X43820395Y-132000000D01*
X43806253Y-131985858D01*
X43985858Y-131806253D01*
X44000000Y-131820395D01*
X46417025Y-129403370D01*
X46156692Y-129042688D01*
X80722293Y-129042688D01*
X83500000Y-131820395D01*
X86277707Y-129042688D01*
X85874238Y-128516076D01*
X84360270Y-127872693D01*
X82715334Y-127857654D01*
X81189855Y-128473250D01*
X81125762Y-128516076D01*
X80722293Y-129042688D01*
X46156692Y-129042688D01*
X46074434Y-128928723D01*
X44741200Y-128368658D01*
X43295125Y-128361432D01*
X41956361Y-128908146D01*
X41925566Y-128928723D01*
X41710000Y-129227382D01*
X41710000Y-127069931D01*
X41859062Y-126320544D01*
X47893856Y-120285750D01*
X48247400Y-120285750D01*
X48247400Y-121243910D01*
X48344073Y-121477299D01*
X48522702Y-121655927D01*
X48756091Y-121752600D01*
X49714250Y-121752600D01*
X49873000Y-121593850D01*
X49873000Y-120127000D01*
X50127000Y-120127000D01*
X50127000Y-121593850D01*
X50285750Y-121752600D01*
X51243909Y-121752600D01*
X51477298Y-121655927D01*
X51655927Y-121477299D01*
X51752600Y-121243910D01*
X51752600Y-120285750D01*
X51593850Y-120127000D01*
X50127000Y-120127000D01*
X49873000Y-120127000D01*
X48406150Y-120127000D01*
X48247400Y-120285750D01*
X47893856Y-120285750D01*
X48356378Y-119823228D01*
X48406150Y-119873000D01*
X49873000Y-119873000D01*
X49873000Y-119853000D01*
X50127000Y-119853000D01*
X50127000Y-119873000D01*
X51593850Y-119873000D01*
X51752600Y-119714250D01*
X51752600Y-118756090D01*
X51733509Y-118710000D01*
X111530394Y-118710000D01*
X117873000Y-125052606D01*
M02*
