%FSLAX45Y45*%
G04 Gerber Fmt 4.5, Leading zero omitted, Abs format (unit mm)*
G04 Created by KiCad (PCBNEW 4.0.5+dfsg1-4) date Mon May 15 15:44:04 2017*
%MOMM*%
%LPD*%
G01*
G04 APERTURE LIST*
%ADD10C,0.127000*%
%ADD11C,0.150000*%
%ADD12C,0.200000*%
%ADD13C,0.300000*%
G04 APERTURE END LIST*
D10*
D11*
X5000000Y-11800000D02*
G75*
G03X4100000Y-12700000I0J-900000D01*
G01*
X4100000Y-16300000D02*
G75*
G03X5000000Y-17200000I900000J0D01*
G01*
X11700000Y-17200000D02*
G75*
G03X12600000Y-16300000I0J900000D01*
G01*
X12600000Y-12700000D02*
G75*
G03X11700000Y-11800000I-900000J0D01*
G01*
X4100000Y-16300000D02*
X4100000Y-12700000D01*
X11700000Y-17200000D02*
X5000000Y-17200000D01*
X12600000Y-12700000D02*
X12600000Y-16300000D01*
X5000000Y-11800000D02*
X11700000Y-11800000D01*
D12*
X6310000Y-14946000D02*
X6390000Y-15026000D01*
X6390000Y-14946000D02*
X6310000Y-15026000D01*
X6310000Y-15200000D02*
X6390000Y-15280000D01*
X6390000Y-15200000D02*
X6310000Y-15280000D01*
X6310000Y-15454000D02*
X6390000Y-15534000D01*
X6390000Y-15454000D02*
X6310000Y-15534000D01*
X6310000Y-15708000D02*
X6390000Y-15788000D01*
X6390000Y-15708000D02*
X6310000Y-15788000D01*
X7072000Y-14946000D02*
X7152000Y-15026000D01*
X7152000Y-14946000D02*
X7072000Y-15026000D01*
X7072000Y-15200000D02*
X7152000Y-15280000D01*
X7152000Y-15200000D02*
X7072000Y-15280000D01*
X7072000Y-15454000D02*
X7152000Y-15534000D01*
X7152000Y-15454000D02*
X7072000Y-15534000D01*
X7072000Y-15708000D02*
X7152000Y-15788000D01*
X7152000Y-15708000D02*
X7072000Y-15788000D01*
X5765000Y-14986000D02*
G75*
G03X5765000Y-14986000I-50000J0D01*
G01*
X5765000Y-15240000D02*
G75*
G03X5765000Y-15240000I-50000J0D01*
G01*
X5765000Y-15494000D02*
G75*
G03X5765000Y-15494000I-50000J0D01*
G01*
X5765000Y-15748000D02*
G75*
G03X5765000Y-15748000I-50000J0D01*
G01*
X5765000Y-16002000D02*
G75*
G03X5765000Y-16002000I-50000J0D01*
G01*
X5765000Y-16256000D02*
G75*
G03X5765000Y-16256000I-50000J0D01*
G01*
X6604000Y-16205962D02*
X6604000Y-16306038D01*
X6553962Y-16256000D02*
X6654038Y-16256000D01*
X6858000Y-16205962D02*
X6858000Y-16306038D01*
X6807962Y-16256000D02*
X6908038Y-16256000D01*
X4335921Y-14635921D02*
X4335921Y-14564079D01*
X4264079Y-14564079D01*
X4264079Y-14635921D01*
X4335921Y-14635921D01*
X5035921Y-12035921D02*
X5035921Y-11964079D01*
X4964079Y-11964079D01*
X4964079Y-12035921D01*
X5035921Y-12035921D01*
X6385921Y-14640921D02*
X6385921Y-14569079D01*
X6314079Y-14569079D01*
X6314079Y-14640921D01*
X6385921Y-14640921D01*
X6639921Y-14640921D02*
X6639921Y-14569079D01*
X6568079Y-14569079D01*
X6568079Y-14640921D01*
X6639921Y-14640921D01*
X11735921Y-12035921D02*
X11735921Y-11964079D01*
X11664079Y-11964079D01*
X11664079Y-12035921D01*
X11735921Y-12035921D01*
X12435921Y-14635921D02*
X12435921Y-14564079D01*
X12364079Y-14564079D01*
X12364079Y-14635921D01*
X12435921Y-14635921D01*
X7874000Y-15183000D02*
X7944000Y-15113000D01*
X7874000Y-15043000D01*
X7804000Y-15113000D01*
X7874000Y-15183000D01*
X8382000Y-15183000D02*
X8452000Y-15113000D01*
X8382000Y-15043000D01*
X8312000Y-15113000D01*
X8382000Y-15183000D01*
X8890000Y-15183000D02*
X8960000Y-15113000D01*
X8890000Y-15043000D01*
X8820000Y-15113000D01*
X8890000Y-15183000D01*
X9398000Y-15183000D02*
X9468000Y-15113000D01*
X9398000Y-15043000D01*
X9328000Y-15113000D01*
X9398000Y-15183000D01*
X9906000Y-15183000D02*
X9976000Y-15113000D01*
X9906000Y-15043000D01*
X9836000Y-15113000D01*
X9906000Y-15183000D01*
X10414000Y-15183000D02*
X10484000Y-15113000D01*
X10414000Y-15043000D01*
X10344000Y-15113000D01*
X10414000Y-15183000D01*
X10922000Y-15183000D02*
X10992000Y-15113000D01*
X10922000Y-15043000D01*
X10852000Y-15113000D01*
X10922000Y-15183000D01*
X11430000Y-15183000D02*
X11500000Y-15113000D01*
X11430000Y-15043000D01*
X11360000Y-15113000D01*
X11430000Y-15183000D01*
X7575000Y-13225000D02*
X7725000Y-13375000D01*
X7725000Y-13225000D02*
X7575000Y-13375000D01*
X7725000Y-13300000D02*
G75*
G03X7725000Y-13300000I-75000J0D01*
G01*
X9624000Y-13225000D02*
X9774000Y-13375000D01*
X9774000Y-13225000D02*
X9624000Y-13375000D01*
X9774000Y-13300000D02*
G75*
G03X9774000Y-13300000I-75000J0D01*
G01*
X4225000Y-13025000D02*
X4575000Y-13375000D01*
X4575000Y-13025000D02*
X4225000Y-13375000D01*
X4400000Y-13025000D02*
X4400000Y-13375000D01*
X4225000Y-13200000D02*
X4575000Y-13200000D01*
X8175000Y-13025000D02*
X8525000Y-13375000D01*
X8525000Y-13025000D02*
X8175000Y-13375000D01*
X8350000Y-13025000D02*
X8350000Y-13375000D01*
X8175000Y-13200000D02*
X8525000Y-13200000D01*
X8175000Y-16675000D02*
X8525000Y-17025000D01*
X8525000Y-16675000D02*
X8175000Y-17025000D01*
X8350000Y-16675000D02*
X8350000Y-17025000D01*
X8175000Y-16850000D02*
X8525000Y-16850000D01*
X12125000Y-13025000D02*
X12475000Y-13375000D01*
X12475000Y-13025000D02*
X12125000Y-13375000D01*
X12300000Y-13025000D02*
X12300000Y-13375000D01*
X12125000Y-13200000D02*
X12475000Y-13200000D01*
D13*
X4363929Y-17673214D02*
X4363929Y-17373214D01*
X4435357Y-17373214D01*
X4478214Y-17387500D01*
X4506786Y-17416072D01*
X4521071Y-17444643D01*
X4535357Y-17501786D01*
X4535357Y-17544643D01*
X4521071Y-17601786D01*
X4506786Y-17630357D01*
X4478214Y-17658929D01*
X4435357Y-17673214D01*
X4363929Y-17673214D01*
X4663929Y-17673214D02*
X4663929Y-17473214D01*
X4663929Y-17530357D02*
X4678214Y-17501786D01*
X4692500Y-17487500D01*
X4721071Y-17473214D01*
X4749643Y-17473214D01*
X4849643Y-17673214D02*
X4849643Y-17473214D01*
X4849643Y-17373214D02*
X4835357Y-17387500D01*
X4849643Y-17401786D01*
X4863929Y-17387500D01*
X4849643Y-17373214D01*
X4849643Y-17401786D01*
X5035357Y-17673214D02*
X5006786Y-17658929D01*
X4992500Y-17630357D01*
X4992500Y-17373214D01*
X5192500Y-17673214D02*
X5163929Y-17658929D01*
X5149643Y-17630357D01*
X5149643Y-17373214D01*
X5535357Y-17673214D02*
X5535357Y-17373214D01*
X5635357Y-17587500D01*
X5735357Y-17373214D01*
X5735357Y-17673214D01*
X6006786Y-17673214D02*
X6006786Y-17516072D01*
X5992500Y-17487500D01*
X5963928Y-17473214D01*
X5906786Y-17473214D01*
X5878214Y-17487500D01*
X6006786Y-17658929D02*
X5978214Y-17673214D01*
X5906786Y-17673214D01*
X5878214Y-17658929D01*
X5863928Y-17630357D01*
X5863928Y-17601786D01*
X5878214Y-17573214D01*
X5906786Y-17558929D01*
X5978214Y-17558929D01*
X6006786Y-17544643D01*
X6149643Y-17473214D02*
X6149643Y-17773214D01*
X6149643Y-17487500D02*
X6178214Y-17473214D01*
X6235357Y-17473214D01*
X6263928Y-17487500D01*
X6278214Y-17501786D01*
X6292500Y-17530357D01*
X6292500Y-17616072D01*
X6278214Y-17644643D01*
X6263928Y-17658929D01*
X6235357Y-17673214D01*
X6178214Y-17673214D01*
X6149643Y-17658929D01*
X6421071Y-17644643D02*
X6435357Y-17658929D01*
X6421071Y-17673214D01*
X6406786Y-17658929D01*
X6421071Y-17644643D01*
X6421071Y-17673214D01*
X6421071Y-17487500D02*
X6435357Y-17501786D01*
X6421071Y-17516072D01*
X6406786Y-17501786D01*
X6421071Y-17487500D01*
X6421071Y-17516072D01*
X4012500Y-18127500D02*
X4092500Y-18207500D01*
X4092500Y-18127500D02*
X4012500Y-18207500D01*
X4421071Y-18003214D02*
X4449643Y-18003214D01*
X4478214Y-18017500D01*
X4492500Y-18031786D01*
X4506786Y-18060357D01*
X4521071Y-18117500D01*
X4521071Y-18188929D01*
X4506786Y-18246072D01*
X4492500Y-18274643D01*
X4478214Y-18288929D01*
X4449643Y-18303214D01*
X4421071Y-18303214D01*
X4392500Y-18288929D01*
X4378214Y-18274643D01*
X4363929Y-18246072D01*
X4349643Y-18188929D01*
X4349643Y-18117500D01*
X4363929Y-18060357D01*
X4378214Y-18031786D01*
X4392500Y-18017500D01*
X4421071Y-18003214D01*
X4649643Y-18274643D02*
X4663929Y-18288929D01*
X4649643Y-18303214D01*
X4635357Y-18288929D01*
X4649643Y-18274643D01*
X4649643Y-18303214D01*
X4835357Y-18131786D02*
X4806786Y-18117500D01*
X4792500Y-18103214D01*
X4778214Y-18074643D01*
X4778214Y-18060357D01*
X4792500Y-18031786D01*
X4806786Y-18017500D01*
X4835357Y-18003214D01*
X4892500Y-18003214D01*
X4921071Y-18017500D01*
X4935357Y-18031786D01*
X4949643Y-18060357D01*
X4949643Y-18074643D01*
X4935357Y-18103214D01*
X4921071Y-18117500D01*
X4892500Y-18131786D01*
X4835357Y-18131786D01*
X4806786Y-18146072D01*
X4792500Y-18160357D01*
X4778214Y-18188929D01*
X4778214Y-18246072D01*
X4792500Y-18274643D01*
X4806786Y-18288929D01*
X4835357Y-18303214D01*
X4892500Y-18303214D01*
X4921071Y-18288929D01*
X4935357Y-18274643D01*
X4949643Y-18246072D01*
X4949643Y-18188929D01*
X4935357Y-18160357D01*
X4921071Y-18146072D01*
X4892500Y-18131786D01*
X5135357Y-18003214D02*
X5163929Y-18003214D01*
X5192500Y-18017500D01*
X5206786Y-18031786D01*
X5221071Y-18060357D01*
X5235357Y-18117500D01*
X5235357Y-18188929D01*
X5221071Y-18246072D01*
X5206786Y-18274643D01*
X5192500Y-18288929D01*
X5163929Y-18303214D01*
X5135357Y-18303214D01*
X5106786Y-18288929D01*
X5092500Y-18274643D01*
X5078214Y-18246072D01*
X5063929Y-18188929D01*
X5063929Y-18117500D01*
X5078214Y-18060357D01*
X5092500Y-18031786D01*
X5106786Y-18017500D01*
X5135357Y-18003214D01*
X5363929Y-18303214D02*
X5363929Y-18103214D01*
X5363929Y-18131786D02*
X5378214Y-18117500D01*
X5406786Y-18103214D01*
X5449643Y-18103214D01*
X5478214Y-18117500D01*
X5492500Y-18146072D01*
X5492500Y-18303214D01*
X5492500Y-18146072D02*
X5506786Y-18117500D01*
X5535357Y-18103214D01*
X5578214Y-18103214D01*
X5606786Y-18117500D01*
X5621071Y-18146072D01*
X5621071Y-18303214D01*
X5763928Y-18303214D02*
X5763928Y-18103214D01*
X5763928Y-18131786D02*
X5778214Y-18117500D01*
X5806786Y-18103214D01*
X5849643Y-18103214D01*
X5878214Y-18117500D01*
X5892500Y-18146072D01*
X5892500Y-18303214D01*
X5892500Y-18146072D02*
X5906786Y-18117500D01*
X5935357Y-18103214D01*
X5978214Y-18103214D01*
X6006786Y-18117500D01*
X6021071Y-18146072D01*
X6021071Y-18303214D01*
X6606786Y-17988929D02*
X6349643Y-18374643D01*
X6992500Y-18003214D02*
X7021071Y-18003214D01*
X7049643Y-18017500D01*
X7063928Y-18031786D01*
X7078214Y-18060357D01*
X7092500Y-18117500D01*
X7092500Y-18188929D01*
X7078214Y-18246072D01*
X7063928Y-18274643D01*
X7049643Y-18288929D01*
X7021071Y-18303214D01*
X6992500Y-18303214D01*
X6963928Y-18288929D01*
X6949643Y-18274643D01*
X6935357Y-18246072D01*
X6921071Y-18188929D01*
X6921071Y-18117500D01*
X6935357Y-18060357D01*
X6949643Y-18031786D01*
X6963928Y-18017500D01*
X6992500Y-18003214D01*
X7221071Y-18274643D02*
X7235357Y-18288929D01*
X7221071Y-18303214D01*
X7206786Y-18288929D01*
X7221071Y-18274643D01*
X7221071Y-18303214D01*
X7421071Y-18003214D02*
X7449643Y-18003214D01*
X7478214Y-18017500D01*
X7492500Y-18031786D01*
X7506785Y-18060357D01*
X7521071Y-18117500D01*
X7521071Y-18188929D01*
X7506785Y-18246072D01*
X7492500Y-18274643D01*
X7478214Y-18288929D01*
X7449643Y-18303214D01*
X7421071Y-18303214D01*
X7392500Y-18288929D01*
X7378214Y-18274643D01*
X7363928Y-18246072D01*
X7349643Y-18188929D01*
X7349643Y-18117500D01*
X7363928Y-18060357D01*
X7378214Y-18031786D01*
X7392500Y-18017500D01*
X7421071Y-18003214D01*
X7621071Y-18003214D02*
X7806785Y-18003214D01*
X7706785Y-18117500D01*
X7749643Y-18117500D01*
X7778214Y-18131786D01*
X7792500Y-18146072D01*
X7806785Y-18174643D01*
X7806785Y-18246072D01*
X7792500Y-18274643D01*
X7778214Y-18288929D01*
X7749643Y-18303214D01*
X7663928Y-18303214D01*
X7635357Y-18288929D01*
X7621071Y-18274643D01*
X8092500Y-18303214D02*
X7921071Y-18303214D01*
X8006785Y-18303214D02*
X8006785Y-18003214D01*
X7978214Y-18046072D01*
X7949643Y-18074643D01*
X7921071Y-18088929D01*
X8206786Y-18003214D02*
X8206786Y-18060357D01*
X8321071Y-18003214D02*
X8321071Y-18060357D01*
X8763928Y-18417500D02*
X8749643Y-18403214D01*
X8721071Y-18360357D01*
X8706786Y-18331786D01*
X8692500Y-18288929D01*
X8678214Y-18217500D01*
X8678214Y-18160357D01*
X8692500Y-18088929D01*
X8706786Y-18046072D01*
X8721071Y-18017500D01*
X8749643Y-17974643D01*
X8763928Y-17960357D01*
X8921071Y-18131786D02*
X8892500Y-18117500D01*
X8878214Y-18103214D01*
X8863928Y-18074643D01*
X8863928Y-18060357D01*
X8878214Y-18031786D01*
X8892500Y-18017500D01*
X8921071Y-18003214D01*
X8978214Y-18003214D01*
X9006786Y-18017500D01*
X9021071Y-18031786D01*
X9035357Y-18060357D01*
X9035357Y-18074643D01*
X9021071Y-18103214D01*
X9006786Y-18117500D01*
X8978214Y-18131786D01*
X8921071Y-18131786D01*
X8892500Y-18146072D01*
X8878214Y-18160357D01*
X8863928Y-18188929D01*
X8863928Y-18246072D01*
X8878214Y-18274643D01*
X8892500Y-18288929D01*
X8921071Y-18303214D01*
X8978214Y-18303214D01*
X9006786Y-18288929D01*
X9021071Y-18274643D01*
X9035357Y-18246072D01*
X9035357Y-18188929D01*
X9021071Y-18160357D01*
X9006786Y-18146072D01*
X8978214Y-18131786D01*
X9392500Y-18303214D02*
X9392500Y-18003214D01*
X9521071Y-18303214D02*
X9521071Y-18146072D01*
X9506786Y-18117500D01*
X9478214Y-18103214D01*
X9435357Y-18103214D01*
X9406786Y-18117500D01*
X9392500Y-18131786D01*
X9706786Y-18303214D02*
X9678214Y-18288929D01*
X9663928Y-18274643D01*
X9649643Y-18246072D01*
X9649643Y-18160357D01*
X9663928Y-18131786D01*
X9678214Y-18117500D01*
X9706786Y-18103214D01*
X9749643Y-18103214D01*
X9778214Y-18117500D01*
X9792500Y-18131786D01*
X9806786Y-18160357D01*
X9806786Y-18246072D01*
X9792500Y-18274643D01*
X9778214Y-18288929D01*
X9749643Y-18303214D01*
X9706786Y-18303214D01*
X9978214Y-18303214D02*
X9949643Y-18288929D01*
X9935357Y-18260357D01*
X9935357Y-18003214D01*
X10206786Y-18288929D02*
X10178214Y-18303214D01*
X10121071Y-18303214D01*
X10092500Y-18288929D01*
X10078214Y-18260357D01*
X10078214Y-18146072D01*
X10092500Y-18117500D01*
X10121071Y-18103214D01*
X10178214Y-18103214D01*
X10206786Y-18117500D01*
X10221071Y-18146072D01*
X10221071Y-18174643D01*
X10078214Y-18203214D01*
X10335357Y-18288929D02*
X10363929Y-18303214D01*
X10421071Y-18303214D01*
X10449643Y-18288929D01*
X10463929Y-18260357D01*
X10463929Y-18246072D01*
X10449643Y-18217500D01*
X10421071Y-18203214D01*
X10378214Y-18203214D01*
X10349643Y-18188929D01*
X10335357Y-18160357D01*
X10335357Y-18146072D01*
X10349643Y-18117500D01*
X10378214Y-18103214D01*
X10421071Y-18103214D01*
X10449643Y-18117500D01*
X10563928Y-18417500D02*
X10578214Y-18403214D01*
X10606786Y-18360357D01*
X10621071Y-18331786D01*
X10635357Y-18288929D01*
X10649643Y-18217500D01*
X10649643Y-18160357D01*
X10635357Y-18088929D01*
X10621071Y-18046072D01*
X10606786Y-18017500D01*
X10578214Y-17974643D01*
X10563928Y-17960357D01*
X4092500Y-18563500D02*
G75*
G03X4092500Y-18563500I-50000J0D01*
G01*
X4521071Y-18699214D02*
X4349643Y-18699214D01*
X4435357Y-18699214D02*
X4435357Y-18399214D01*
X4406786Y-18442072D01*
X4378214Y-18470643D01*
X4349643Y-18484929D01*
X4649643Y-18670643D02*
X4663929Y-18684929D01*
X4649643Y-18699214D01*
X4635357Y-18684929D01*
X4649643Y-18670643D01*
X4649643Y-18699214D01*
X4849643Y-18399214D02*
X4878214Y-18399214D01*
X4906786Y-18413500D01*
X4921071Y-18427786D01*
X4935357Y-18456357D01*
X4949643Y-18513500D01*
X4949643Y-18584929D01*
X4935357Y-18642072D01*
X4921071Y-18670643D01*
X4906786Y-18684929D01*
X4878214Y-18699214D01*
X4849643Y-18699214D01*
X4821071Y-18684929D01*
X4806786Y-18670643D01*
X4792500Y-18642072D01*
X4778214Y-18584929D01*
X4778214Y-18513500D01*
X4792500Y-18456357D01*
X4806786Y-18427786D01*
X4821071Y-18413500D01*
X4849643Y-18399214D01*
X5135357Y-18399214D02*
X5163929Y-18399214D01*
X5192500Y-18413500D01*
X5206786Y-18427786D01*
X5221071Y-18456357D01*
X5235357Y-18513500D01*
X5235357Y-18584929D01*
X5221071Y-18642072D01*
X5206786Y-18670643D01*
X5192500Y-18684929D01*
X5163929Y-18699214D01*
X5135357Y-18699214D01*
X5106786Y-18684929D01*
X5092500Y-18670643D01*
X5078214Y-18642072D01*
X5063929Y-18584929D01*
X5063929Y-18513500D01*
X5078214Y-18456357D01*
X5092500Y-18427786D01*
X5106786Y-18413500D01*
X5135357Y-18399214D01*
X5363929Y-18699214D02*
X5363929Y-18499214D01*
X5363929Y-18527786D02*
X5378214Y-18513500D01*
X5406786Y-18499214D01*
X5449643Y-18499214D01*
X5478214Y-18513500D01*
X5492500Y-18542072D01*
X5492500Y-18699214D01*
X5492500Y-18542072D02*
X5506786Y-18513500D01*
X5535357Y-18499214D01*
X5578214Y-18499214D01*
X5606786Y-18513500D01*
X5621071Y-18542072D01*
X5621071Y-18699214D01*
X5763928Y-18699214D02*
X5763928Y-18499214D01*
X5763928Y-18527786D02*
X5778214Y-18513500D01*
X5806786Y-18499214D01*
X5849643Y-18499214D01*
X5878214Y-18513500D01*
X5892500Y-18542072D01*
X5892500Y-18699214D01*
X5892500Y-18542072D02*
X5906786Y-18513500D01*
X5935357Y-18499214D01*
X5978214Y-18499214D01*
X6006786Y-18513500D01*
X6021071Y-18542072D01*
X6021071Y-18699214D01*
X6606786Y-18384929D02*
X6349643Y-18770643D01*
X6992500Y-18399214D02*
X7021071Y-18399214D01*
X7049643Y-18413500D01*
X7063928Y-18427786D01*
X7078214Y-18456357D01*
X7092500Y-18513500D01*
X7092500Y-18584929D01*
X7078214Y-18642072D01*
X7063928Y-18670643D01*
X7049643Y-18684929D01*
X7021071Y-18699214D01*
X6992500Y-18699214D01*
X6963928Y-18684929D01*
X6949643Y-18670643D01*
X6935357Y-18642072D01*
X6921071Y-18584929D01*
X6921071Y-18513500D01*
X6935357Y-18456357D01*
X6949643Y-18427786D01*
X6963928Y-18413500D01*
X6992500Y-18399214D01*
X7221071Y-18670643D02*
X7235357Y-18684929D01*
X7221071Y-18699214D01*
X7206786Y-18684929D01*
X7221071Y-18670643D01*
X7221071Y-18699214D01*
X7421071Y-18399214D02*
X7449643Y-18399214D01*
X7478214Y-18413500D01*
X7492500Y-18427786D01*
X7506785Y-18456357D01*
X7521071Y-18513500D01*
X7521071Y-18584929D01*
X7506785Y-18642072D01*
X7492500Y-18670643D01*
X7478214Y-18684929D01*
X7449643Y-18699214D01*
X7421071Y-18699214D01*
X7392500Y-18684929D01*
X7378214Y-18670643D01*
X7363928Y-18642072D01*
X7349643Y-18584929D01*
X7349643Y-18513500D01*
X7363928Y-18456357D01*
X7378214Y-18427786D01*
X7392500Y-18413500D01*
X7421071Y-18399214D01*
X7621071Y-18399214D02*
X7806785Y-18399214D01*
X7706785Y-18513500D01*
X7749643Y-18513500D01*
X7778214Y-18527786D01*
X7792500Y-18542072D01*
X7806785Y-18570643D01*
X7806785Y-18642072D01*
X7792500Y-18670643D01*
X7778214Y-18684929D01*
X7749643Y-18699214D01*
X7663928Y-18699214D01*
X7635357Y-18684929D01*
X7621071Y-18670643D01*
X7949643Y-18699214D02*
X8006785Y-18699214D01*
X8035357Y-18684929D01*
X8049643Y-18670643D01*
X8078214Y-18627786D01*
X8092500Y-18570643D01*
X8092500Y-18456357D01*
X8078214Y-18427786D01*
X8063928Y-18413500D01*
X8035357Y-18399214D01*
X7978214Y-18399214D01*
X7949643Y-18413500D01*
X7935357Y-18427786D01*
X7921071Y-18456357D01*
X7921071Y-18527786D01*
X7935357Y-18556357D01*
X7949643Y-18570643D01*
X7978214Y-18584929D01*
X8035357Y-18584929D01*
X8063928Y-18570643D01*
X8078214Y-18556357D01*
X8092500Y-18527786D01*
X8206786Y-18399214D02*
X8206786Y-18456357D01*
X8321071Y-18399214D02*
X8321071Y-18456357D01*
X8763928Y-18813500D02*
X8749643Y-18799214D01*
X8721071Y-18756357D01*
X8706786Y-18727786D01*
X8692500Y-18684929D01*
X8678214Y-18613500D01*
X8678214Y-18556357D01*
X8692500Y-18484929D01*
X8706786Y-18442072D01*
X8721071Y-18413500D01*
X8749643Y-18370643D01*
X8763928Y-18356357D01*
X9006786Y-18399214D02*
X8949643Y-18399214D01*
X8921071Y-18413500D01*
X8906786Y-18427786D01*
X8878214Y-18470643D01*
X8863928Y-18527786D01*
X8863928Y-18642072D01*
X8878214Y-18670643D01*
X8892500Y-18684929D01*
X8921071Y-18699214D01*
X8978214Y-18699214D01*
X9006786Y-18684929D01*
X9021071Y-18670643D01*
X9035357Y-18642072D01*
X9035357Y-18570643D01*
X9021071Y-18542072D01*
X9006786Y-18527786D01*
X8978214Y-18513500D01*
X8921071Y-18513500D01*
X8892500Y-18527786D01*
X8878214Y-18542072D01*
X8863928Y-18570643D01*
X9392500Y-18699214D02*
X9392500Y-18399214D01*
X9521071Y-18699214D02*
X9521071Y-18542072D01*
X9506786Y-18513500D01*
X9478214Y-18499214D01*
X9435357Y-18499214D01*
X9406786Y-18513500D01*
X9392500Y-18527786D01*
X9706786Y-18699214D02*
X9678214Y-18684929D01*
X9663928Y-18670643D01*
X9649643Y-18642072D01*
X9649643Y-18556357D01*
X9663928Y-18527786D01*
X9678214Y-18513500D01*
X9706786Y-18499214D01*
X9749643Y-18499214D01*
X9778214Y-18513500D01*
X9792500Y-18527786D01*
X9806786Y-18556357D01*
X9806786Y-18642072D01*
X9792500Y-18670643D01*
X9778214Y-18684929D01*
X9749643Y-18699214D01*
X9706786Y-18699214D01*
X9978214Y-18699214D02*
X9949643Y-18684929D01*
X9935357Y-18656357D01*
X9935357Y-18399214D01*
X10206786Y-18684929D02*
X10178214Y-18699214D01*
X10121071Y-18699214D01*
X10092500Y-18684929D01*
X10078214Y-18656357D01*
X10078214Y-18542072D01*
X10092500Y-18513500D01*
X10121071Y-18499214D01*
X10178214Y-18499214D01*
X10206786Y-18513500D01*
X10221071Y-18542072D01*
X10221071Y-18570643D01*
X10078214Y-18599214D01*
X10335357Y-18684929D02*
X10363929Y-18699214D01*
X10421071Y-18699214D01*
X10449643Y-18684929D01*
X10463929Y-18656357D01*
X10463929Y-18642072D01*
X10449643Y-18613500D01*
X10421071Y-18599214D01*
X10378214Y-18599214D01*
X10349643Y-18584929D01*
X10335357Y-18556357D01*
X10335357Y-18542072D01*
X10349643Y-18513500D01*
X10378214Y-18499214D01*
X10421071Y-18499214D01*
X10449643Y-18513500D01*
X10563928Y-18813500D02*
X10578214Y-18799214D01*
X10606786Y-18756357D01*
X10621071Y-18727786D01*
X10635357Y-18684929D01*
X10649643Y-18613500D01*
X10649643Y-18556357D01*
X10635357Y-18484929D01*
X10621071Y-18442072D01*
X10606786Y-18413500D01*
X10578214Y-18370643D01*
X10563928Y-18356357D01*
X4042462Y-18909462D02*
X4042462Y-19009538D01*
X3992424Y-18959500D02*
X4092500Y-18959500D01*
X4521071Y-19095214D02*
X4349643Y-19095214D01*
X4435357Y-19095214D02*
X4435357Y-18795214D01*
X4406786Y-18838072D01*
X4378214Y-18866643D01*
X4349643Y-18880929D01*
X4649643Y-19066643D02*
X4663929Y-19080929D01*
X4649643Y-19095214D01*
X4635357Y-19080929D01*
X4649643Y-19066643D01*
X4649643Y-19095214D01*
X4849643Y-18795214D02*
X4878214Y-18795214D01*
X4906786Y-18809500D01*
X4921071Y-18823786D01*
X4935357Y-18852357D01*
X4949643Y-18909500D01*
X4949643Y-18980929D01*
X4935357Y-19038072D01*
X4921071Y-19066643D01*
X4906786Y-19080929D01*
X4878214Y-19095214D01*
X4849643Y-19095214D01*
X4821071Y-19080929D01*
X4806786Y-19066643D01*
X4792500Y-19038072D01*
X4778214Y-18980929D01*
X4778214Y-18909500D01*
X4792500Y-18852357D01*
X4806786Y-18823786D01*
X4821071Y-18809500D01*
X4849643Y-18795214D01*
X5135357Y-18795214D02*
X5163929Y-18795214D01*
X5192500Y-18809500D01*
X5206786Y-18823786D01*
X5221071Y-18852357D01*
X5235357Y-18909500D01*
X5235357Y-18980929D01*
X5221071Y-19038072D01*
X5206786Y-19066643D01*
X5192500Y-19080929D01*
X5163929Y-19095214D01*
X5135357Y-19095214D01*
X5106786Y-19080929D01*
X5092500Y-19066643D01*
X5078214Y-19038072D01*
X5063929Y-18980929D01*
X5063929Y-18909500D01*
X5078214Y-18852357D01*
X5092500Y-18823786D01*
X5106786Y-18809500D01*
X5135357Y-18795214D01*
X5363929Y-19095214D02*
X5363929Y-18895214D01*
X5363929Y-18923786D02*
X5378214Y-18909500D01*
X5406786Y-18895214D01*
X5449643Y-18895214D01*
X5478214Y-18909500D01*
X5492500Y-18938072D01*
X5492500Y-19095214D01*
X5492500Y-18938072D02*
X5506786Y-18909500D01*
X5535357Y-18895214D01*
X5578214Y-18895214D01*
X5606786Y-18909500D01*
X5621071Y-18938072D01*
X5621071Y-19095214D01*
X5763928Y-19095214D02*
X5763928Y-18895214D01*
X5763928Y-18923786D02*
X5778214Y-18909500D01*
X5806786Y-18895214D01*
X5849643Y-18895214D01*
X5878214Y-18909500D01*
X5892500Y-18938072D01*
X5892500Y-19095214D01*
X5892500Y-18938072D02*
X5906786Y-18909500D01*
X5935357Y-18895214D01*
X5978214Y-18895214D01*
X6006786Y-18909500D01*
X6021071Y-18938072D01*
X6021071Y-19095214D01*
X6606786Y-18780929D02*
X6349643Y-19166643D01*
X6992500Y-18795214D02*
X7021071Y-18795214D01*
X7049643Y-18809500D01*
X7063928Y-18823786D01*
X7078214Y-18852357D01*
X7092500Y-18909500D01*
X7092500Y-18980929D01*
X7078214Y-19038072D01*
X7063928Y-19066643D01*
X7049643Y-19080929D01*
X7021071Y-19095214D01*
X6992500Y-19095214D01*
X6963928Y-19080929D01*
X6949643Y-19066643D01*
X6935357Y-19038072D01*
X6921071Y-18980929D01*
X6921071Y-18909500D01*
X6935357Y-18852357D01*
X6949643Y-18823786D01*
X6963928Y-18809500D01*
X6992500Y-18795214D01*
X7221071Y-19066643D02*
X7235357Y-19080929D01*
X7221071Y-19095214D01*
X7206786Y-19080929D01*
X7221071Y-19066643D01*
X7221071Y-19095214D01*
X7421071Y-18795214D02*
X7449643Y-18795214D01*
X7478214Y-18809500D01*
X7492500Y-18823786D01*
X7506785Y-18852357D01*
X7521071Y-18909500D01*
X7521071Y-18980929D01*
X7506785Y-19038072D01*
X7492500Y-19066643D01*
X7478214Y-19080929D01*
X7449643Y-19095214D01*
X7421071Y-19095214D01*
X7392500Y-19080929D01*
X7378214Y-19066643D01*
X7363928Y-19038072D01*
X7349643Y-18980929D01*
X7349643Y-18909500D01*
X7363928Y-18852357D01*
X7378214Y-18823786D01*
X7392500Y-18809500D01*
X7421071Y-18795214D01*
X7621071Y-18795214D02*
X7806785Y-18795214D01*
X7706785Y-18909500D01*
X7749643Y-18909500D01*
X7778214Y-18923786D01*
X7792500Y-18938072D01*
X7806785Y-18966643D01*
X7806785Y-19038072D01*
X7792500Y-19066643D01*
X7778214Y-19080929D01*
X7749643Y-19095214D01*
X7663928Y-19095214D01*
X7635357Y-19080929D01*
X7621071Y-19066643D01*
X7949643Y-19095214D02*
X8006785Y-19095214D01*
X8035357Y-19080929D01*
X8049643Y-19066643D01*
X8078214Y-19023786D01*
X8092500Y-18966643D01*
X8092500Y-18852357D01*
X8078214Y-18823786D01*
X8063928Y-18809500D01*
X8035357Y-18795214D01*
X7978214Y-18795214D01*
X7949643Y-18809500D01*
X7935357Y-18823786D01*
X7921071Y-18852357D01*
X7921071Y-18923786D01*
X7935357Y-18952357D01*
X7949643Y-18966643D01*
X7978214Y-18980929D01*
X8035357Y-18980929D01*
X8063928Y-18966643D01*
X8078214Y-18952357D01*
X8092500Y-18923786D01*
X8206786Y-18795214D02*
X8206786Y-18852357D01*
X8321071Y-18795214D02*
X8321071Y-18852357D01*
X8763928Y-19209500D02*
X8749643Y-19195214D01*
X8721071Y-19152357D01*
X8706786Y-19123786D01*
X8692500Y-19080929D01*
X8678214Y-19009500D01*
X8678214Y-18952357D01*
X8692500Y-18880929D01*
X8706786Y-18838072D01*
X8721071Y-18809500D01*
X8749643Y-18766643D01*
X8763928Y-18752357D01*
X8863928Y-18823786D02*
X8878214Y-18809500D01*
X8906786Y-18795214D01*
X8978214Y-18795214D01*
X9006786Y-18809500D01*
X9021071Y-18823786D01*
X9035357Y-18852357D01*
X9035357Y-18880929D01*
X9021071Y-18923786D01*
X8849643Y-19095214D01*
X9035357Y-19095214D01*
X9392500Y-19095214D02*
X9392500Y-18795214D01*
X9521071Y-19095214D02*
X9521071Y-18938072D01*
X9506786Y-18909500D01*
X9478214Y-18895214D01*
X9435357Y-18895214D01*
X9406786Y-18909500D01*
X9392500Y-18923786D01*
X9706786Y-19095214D02*
X9678214Y-19080929D01*
X9663928Y-19066643D01*
X9649643Y-19038072D01*
X9649643Y-18952357D01*
X9663928Y-18923786D01*
X9678214Y-18909500D01*
X9706786Y-18895214D01*
X9749643Y-18895214D01*
X9778214Y-18909500D01*
X9792500Y-18923786D01*
X9806786Y-18952357D01*
X9806786Y-19038072D01*
X9792500Y-19066643D01*
X9778214Y-19080929D01*
X9749643Y-19095214D01*
X9706786Y-19095214D01*
X9978214Y-19095214D02*
X9949643Y-19080929D01*
X9935357Y-19052357D01*
X9935357Y-18795214D01*
X10206786Y-19080929D02*
X10178214Y-19095214D01*
X10121071Y-19095214D01*
X10092500Y-19080929D01*
X10078214Y-19052357D01*
X10078214Y-18938072D01*
X10092500Y-18909500D01*
X10121071Y-18895214D01*
X10178214Y-18895214D01*
X10206786Y-18909500D01*
X10221071Y-18938072D01*
X10221071Y-18966643D01*
X10078214Y-18995214D01*
X10335357Y-19080929D02*
X10363929Y-19095214D01*
X10421071Y-19095214D01*
X10449643Y-19080929D01*
X10463929Y-19052357D01*
X10463929Y-19038072D01*
X10449643Y-19009500D01*
X10421071Y-18995214D01*
X10378214Y-18995214D01*
X10349643Y-18980929D01*
X10335357Y-18952357D01*
X10335357Y-18938072D01*
X10349643Y-18909500D01*
X10378214Y-18895214D01*
X10421071Y-18895214D01*
X10449643Y-18909500D01*
X10563928Y-19209500D02*
X10578214Y-19195214D01*
X10606786Y-19152357D01*
X10621071Y-19123786D01*
X10635357Y-19080929D01*
X10649643Y-19009500D01*
X10649643Y-18952357D01*
X10635357Y-18880929D01*
X10621071Y-18838072D01*
X10606786Y-18809500D01*
X10578214Y-18766643D01*
X10563928Y-18752357D01*
X4077621Y-19391422D02*
X4077621Y-19319579D01*
X4005778Y-19319579D01*
X4005778Y-19391422D01*
X4077621Y-19391422D01*
X4521071Y-19491214D02*
X4349643Y-19491214D01*
X4435357Y-19491214D02*
X4435357Y-19191214D01*
X4406786Y-19234072D01*
X4378214Y-19262643D01*
X4349643Y-19276929D01*
X4649643Y-19462643D02*
X4663929Y-19476929D01*
X4649643Y-19491214D01*
X4635357Y-19476929D01*
X4649643Y-19462643D01*
X4649643Y-19491214D01*
X4849643Y-19191214D02*
X4878214Y-19191214D01*
X4906786Y-19205500D01*
X4921071Y-19219786D01*
X4935357Y-19248357D01*
X4949643Y-19305500D01*
X4949643Y-19376929D01*
X4935357Y-19434072D01*
X4921071Y-19462643D01*
X4906786Y-19476929D01*
X4878214Y-19491214D01*
X4849643Y-19491214D01*
X4821071Y-19476929D01*
X4806786Y-19462643D01*
X4792500Y-19434072D01*
X4778214Y-19376929D01*
X4778214Y-19305500D01*
X4792500Y-19248357D01*
X4806786Y-19219786D01*
X4821071Y-19205500D01*
X4849643Y-19191214D01*
X5063929Y-19219786D02*
X5078214Y-19205500D01*
X5106786Y-19191214D01*
X5178214Y-19191214D01*
X5206786Y-19205500D01*
X5221071Y-19219786D01*
X5235357Y-19248357D01*
X5235357Y-19276929D01*
X5221071Y-19319786D01*
X5049643Y-19491214D01*
X5235357Y-19491214D01*
X5363929Y-19491214D02*
X5363929Y-19291214D01*
X5363929Y-19319786D02*
X5378214Y-19305500D01*
X5406786Y-19291214D01*
X5449643Y-19291214D01*
X5478214Y-19305500D01*
X5492500Y-19334072D01*
X5492500Y-19491214D01*
X5492500Y-19334072D02*
X5506786Y-19305500D01*
X5535357Y-19291214D01*
X5578214Y-19291214D01*
X5606786Y-19305500D01*
X5621071Y-19334072D01*
X5621071Y-19491214D01*
X5763928Y-19491214D02*
X5763928Y-19291214D01*
X5763928Y-19319786D02*
X5778214Y-19305500D01*
X5806786Y-19291214D01*
X5849643Y-19291214D01*
X5878214Y-19305500D01*
X5892500Y-19334072D01*
X5892500Y-19491214D01*
X5892500Y-19334072D02*
X5906786Y-19305500D01*
X5935357Y-19291214D01*
X5978214Y-19291214D01*
X6006786Y-19305500D01*
X6021071Y-19334072D01*
X6021071Y-19491214D01*
X6606786Y-19176929D02*
X6349643Y-19562643D01*
X6992500Y-19191214D02*
X7021071Y-19191214D01*
X7049643Y-19205500D01*
X7063928Y-19219786D01*
X7078214Y-19248357D01*
X7092500Y-19305500D01*
X7092500Y-19376929D01*
X7078214Y-19434072D01*
X7063928Y-19462643D01*
X7049643Y-19476929D01*
X7021071Y-19491214D01*
X6992500Y-19491214D01*
X6963928Y-19476929D01*
X6949643Y-19462643D01*
X6935357Y-19434072D01*
X6921071Y-19376929D01*
X6921071Y-19305500D01*
X6935357Y-19248357D01*
X6949643Y-19219786D01*
X6963928Y-19205500D01*
X6992500Y-19191214D01*
X7221071Y-19462643D02*
X7235357Y-19476929D01*
X7221071Y-19491214D01*
X7206786Y-19476929D01*
X7221071Y-19462643D01*
X7221071Y-19491214D01*
X7421071Y-19191214D02*
X7449643Y-19191214D01*
X7478214Y-19205500D01*
X7492500Y-19219786D01*
X7506785Y-19248357D01*
X7521071Y-19305500D01*
X7521071Y-19376929D01*
X7506785Y-19434072D01*
X7492500Y-19462643D01*
X7478214Y-19476929D01*
X7449643Y-19491214D01*
X7421071Y-19491214D01*
X7392500Y-19476929D01*
X7378214Y-19462643D01*
X7363928Y-19434072D01*
X7349643Y-19376929D01*
X7349643Y-19305500D01*
X7363928Y-19248357D01*
X7378214Y-19219786D01*
X7392500Y-19205500D01*
X7421071Y-19191214D01*
X7778214Y-19291214D02*
X7778214Y-19491214D01*
X7706785Y-19176929D02*
X7635357Y-19391214D01*
X7821071Y-19391214D01*
X7992500Y-19191214D02*
X8021071Y-19191214D01*
X8049643Y-19205500D01*
X8063928Y-19219786D01*
X8078214Y-19248357D01*
X8092500Y-19305500D01*
X8092500Y-19376929D01*
X8078214Y-19434072D01*
X8063928Y-19462643D01*
X8049643Y-19476929D01*
X8021071Y-19491214D01*
X7992500Y-19491214D01*
X7963928Y-19476929D01*
X7949643Y-19462643D01*
X7935357Y-19434072D01*
X7921071Y-19376929D01*
X7921071Y-19305500D01*
X7935357Y-19248357D01*
X7949643Y-19219786D01*
X7963928Y-19205500D01*
X7992500Y-19191214D01*
X8206786Y-19191214D02*
X8206786Y-19248357D01*
X8321071Y-19191214D02*
X8321071Y-19248357D01*
X8763928Y-19605500D02*
X8749643Y-19591214D01*
X8721071Y-19548357D01*
X8706786Y-19519786D01*
X8692500Y-19476929D01*
X8678214Y-19405500D01*
X8678214Y-19348357D01*
X8692500Y-19276929D01*
X8706786Y-19234072D01*
X8721071Y-19205500D01*
X8749643Y-19162643D01*
X8763928Y-19148357D01*
X9006786Y-19191214D02*
X8949643Y-19191214D01*
X8921071Y-19205500D01*
X8906786Y-19219786D01*
X8878214Y-19262643D01*
X8863928Y-19319786D01*
X8863928Y-19434072D01*
X8878214Y-19462643D01*
X8892500Y-19476929D01*
X8921071Y-19491214D01*
X8978214Y-19491214D01*
X9006786Y-19476929D01*
X9021071Y-19462643D01*
X9035357Y-19434072D01*
X9035357Y-19362643D01*
X9021071Y-19334072D01*
X9006786Y-19319786D01*
X8978214Y-19305500D01*
X8921071Y-19305500D01*
X8892500Y-19319786D01*
X8878214Y-19334072D01*
X8863928Y-19362643D01*
X9392500Y-19491214D02*
X9392500Y-19191214D01*
X9521071Y-19491214D02*
X9521071Y-19334072D01*
X9506786Y-19305500D01*
X9478214Y-19291214D01*
X9435357Y-19291214D01*
X9406786Y-19305500D01*
X9392500Y-19319786D01*
X9706786Y-19491214D02*
X9678214Y-19476929D01*
X9663928Y-19462643D01*
X9649643Y-19434072D01*
X9649643Y-19348357D01*
X9663928Y-19319786D01*
X9678214Y-19305500D01*
X9706786Y-19291214D01*
X9749643Y-19291214D01*
X9778214Y-19305500D01*
X9792500Y-19319786D01*
X9806786Y-19348357D01*
X9806786Y-19434072D01*
X9792500Y-19462643D01*
X9778214Y-19476929D01*
X9749643Y-19491214D01*
X9706786Y-19491214D01*
X9978214Y-19491214D02*
X9949643Y-19476929D01*
X9935357Y-19448357D01*
X9935357Y-19191214D01*
X10206786Y-19476929D02*
X10178214Y-19491214D01*
X10121071Y-19491214D01*
X10092500Y-19476929D01*
X10078214Y-19448357D01*
X10078214Y-19334072D01*
X10092500Y-19305500D01*
X10121071Y-19291214D01*
X10178214Y-19291214D01*
X10206786Y-19305500D01*
X10221071Y-19334072D01*
X10221071Y-19362643D01*
X10078214Y-19391214D01*
X10335357Y-19476929D02*
X10363929Y-19491214D01*
X10421071Y-19491214D01*
X10449643Y-19476929D01*
X10463929Y-19448357D01*
X10463929Y-19434072D01*
X10449643Y-19405500D01*
X10421071Y-19391214D01*
X10378214Y-19391214D01*
X10349643Y-19376929D01*
X10335357Y-19348357D01*
X10335357Y-19334072D01*
X10349643Y-19305500D01*
X10378214Y-19291214D01*
X10421071Y-19291214D01*
X10449643Y-19305500D01*
X10563928Y-19605500D02*
X10578214Y-19591214D01*
X10606786Y-19548357D01*
X10621071Y-19519786D01*
X10635357Y-19476929D01*
X10649643Y-19405500D01*
X10649643Y-19348357D01*
X10635357Y-19276929D01*
X10621071Y-19234072D01*
X10606786Y-19205500D01*
X10578214Y-19162643D01*
X10563928Y-19148357D01*
X4022500Y-19821500D02*
X4092500Y-19751500D01*
X4022500Y-19681500D01*
X3952500Y-19751500D01*
X4022500Y-19821500D01*
X4521071Y-19887214D02*
X4349643Y-19887214D01*
X4435357Y-19887214D02*
X4435357Y-19587214D01*
X4406786Y-19630072D01*
X4378214Y-19658643D01*
X4349643Y-19672929D01*
X4649643Y-19858643D02*
X4663929Y-19872929D01*
X4649643Y-19887214D01*
X4635357Y-19872929D01*
X4649643Y-19858643D01*
X4649643Y-19887214D01*
X4921071Y-19687214D02*
X4921071Y-19887214D01*
X4849643Y-19572929D02*
X4778214Y-19787214D01*
X4963928Y-19787214D01*
X5135357Y-19587214D02*
X5163929Y-19587214D01*
X5192500Y-19601500D01*
X5206786Y-19615786D01*
X5221071Y-19644357D01*
X5235357Y-19701500D01*
X5235357Y-19772929D01*
X5221071Y-19830072D01*
X5206786Y-19858643D01*
X5192500Y-19872929D01*
X5163929Y-19887214D01*
X5135357Y-19887214D01*
X5106786Y-19872929D01*
X5092500Y-19858643D01*
X5078214Y-19830072D01*
X5063929Y-19772929D01*
X5063929Y-19701500D01*
X5078214Y-19644357D01*
X5092500Y-19615786D01*
X5106786Y-19601500D01*
X5135357Y-19587214D01*
X5363929Y-19887214D02*
X5363929Y-19687214D01*
X5363929Y-19715786D02*
X5378214Y-19701500D01*
X5406786Y-19687214D01*
X5449643Y-19687214D01*
X5478214Y-19701500D01*
X5492500Y-19730072D01*
X5492500Y-19887214D01*
X5492500Y-19730072D02*
X5506786Y-19701500D01*
X5535357Y-19687214D01*
X5578214Y-19687214D01*
X5606786Y-19701500D01*
X5621071Y-19730072D01*
X5621071Y-19887214D01*
X5763928Y-19887214D02*
X5763928Y-19687214D01*
X5763928Y-19715786D02*
X5778214Y-19701500D01*
X5806786Y-19687214D01*
X5849643Y-19687214D01*
X5878214Y-19701500D01*
X5892500Y-19730072D01*
X5892500Y-19887214D01*
X5892500Y-19730072D02*
X5906786Y-19701500D01*
X5935357Y-19687214D01*
X5978214Y-19687214D01*
X6006786Y-19701500D01*
X6021071Y-19730072D01*
X6021071Y-19887214D01*
X6606786Y-19572929D02*
X6349643Y-19958643D01*
X6992500Y-19587214D02*
X7021071Y-19587214D01*
X7049643Y-19601500D01*
X7063928Y-19615786D01*
X7078214Y-19644357D01*
X7092500Y-19701500D01*
X7092500Y-19772929D01*
X7078214Y-19830072D01*
X7063928Y-19858643D01*
X7049643Y-19872929D01*
X7021071Y-19887214D01*
X6992500Y-19887214D01*
X6963928Y-19872929D01*
X6949643Y-19858643D01*
X6935357Y-19830072D01*
X6921071Y-19772929D01*
X6921071Y-19701500D01*
X6935357Y-19644357D01*
X6949643Y-19615786D01*
X6963928Y-19601500D01*
X6992500Y-19587214D01*
X7221071Y-19858643D02*
X7235357Y-19872929D01*
X7221071Y-19887214D01*
X7206786Y-19872929D01*
X7221071Y-19858643D01*
X7221071Y-19887214D01*
X7421071Y-19587214D02*
X7449643Y-19587214D01*
X7478214Y-19601500D01*
X7492500Y-19615786D01*
X7506785Y-19644357D01*
X7521071Y-19701500D01*
X7521071Y-19772929D01*
X7506785Y-19830072D01*
X7492500Y-19858643D01*
X7478214Y-19872929D01*
X7449643Y-19887214D01*
X7421071Y-19887214D01*
X7392500Y-19872929D01*
X7378214Y-19858643D01*
X7363928Y-19830072D01*
X7349643Y-19772929D01*
X7349643Y-19701500D01*
X7363928Y-19644357D01*
X7378214Y-19615786D01*
X7392500Y-19601500D01*
X7421071Y-19587214D01*
X7792500Y-19587214D02*
X7649643Y-19587214D01*
X7635357Y-19730072D01*
X7649643Y-19715786D01*
X7678214Y-19701500D01*
X7749643Y-19701500D01*
X7778214Y-19715786D01*
X7792500Y-19730072D01*
X7806785Y-19758643D01*
X7806785Y-19830072D01*
X7792500Y-19858643D01*
X7778214Y-19872929D01*
X7749643Y-19887214D01*
X7678214Y-19887214D01*
X7649643Y-19872929D01*
X7635357Y-19858643D01*
X8078214Y-19587214D02*
X7935357Y-19587214D01*
X7921071Y-19730072D01*
X7935357Y-19715786D01*
X7963928Y-19701500D01*
X8035357Y-19701500D01*
X8063928Y-19715786D01*
X8078214Y-19730072D01*
X8092500Y-19758643D01*
X8092500Y-19830072D01*
X8078214Y-19858643D01*
X8063928Y-19872929D01*
X8035357Y-19887214D01*
X7963928Y-19887214D01*
X7935357Y-19872929D01*
X7921071Y-19858643D01*
X8206786Y-19587214D02*
X8206786Y-19644357D01*
X8321071Y-19587214D02*
X8321071Y-19644357D01*
X8763928Y-20001500D02*
X8749643Y-19987214D01*
X8721071Y-19944357D01*
X8706786Y-19915786D01*
X8692500Y-19872929D01*
X8678214Y-19801500D01*
X8678214Y-19744357D01*
X8692500Y-19672929D01*
X8706786Y-19630072D01*
X8721071Y-19601500D01*
X8749643Y-19558643D01*
X8763928Y-19544357D01*
X8921071Y-19715786D02*
X8892500Y-19701500D01*
X8878214Y-19687214D01*
X8863928Y-19658643D01*
X8863928Y-19644357D01*
X8878214Y-19615786D01*
X8892500Y-19601500D01*
X8921071Y-19587214D01*
X8978214Y-19587214D01*
X9006786Y-19601500D01*
X9021071Y-19615786D01*
X9035357Y-19644357D01*
X9035357Y-19658643D01*
X9021071Y-19687214D01*
X9006786Y-19701500D01*
X8978214Y-19715786D01*
X8921071Y-19715786D01*
X8892500Y-19730072D01*
X8878214Y-19744357D01*
X8863928Y-19772929D01*
X8863928Y-19830072D01*
X8878214Y-19858643D01*
X8892500Y-19872929D01*
X8921071Y-19887214D01*
X8978214Y-19887214D01*
X9006786Y-19872929D01*
X9021071Y-19858643D01*
X9035357Y-19830072D01*
X9035357Y-19772929D01*
X9021071Y-19744357D01*
X9006786Y-19730072D01*
X8978214Y-19715786D01*
X9392500Y-19887214D02*
X9392500Y-19587214D01*
X9521071Y-19887214D02*
X9521071Y-19730072D01*
X9506786Y-19701500D01*
X9478214Y-19687214D01*
X9435357Y-19687214D01*
X9406786Y-19701500D01*
X9392500Y-19715786D01*
X9706786Y-19887214D02*
X9678214Y-19872929D01*
X9663928Y-19858643D01*
X9649643Y-19830072D01*
X9649643Y-19744357D01*
X9663928Y-19715786D01*
X9678214Y-19701500D01*
X9706786Y-19687214D01*
X9749643Y-19687214D01*
X9778214Y-19701500D01*
X9792500Y-19715786D01*
X9806786Y-19744357D01*
X9806786Y-19830072D01*
X9792500Y-19858643D01*
X9778214Y-19872929D01*
X9749643Y-19887214D01*
X9706786Y-19887214D01*
X9978214Y-19887214D02*
X9949643Y-19872929D01*
X9935357Y-19844357D01*
X9935357Y-19587214D01*
X10206786Y-19872929D02*
X10178214Y-19887214D01*
X10121071Y-19887214D01*
X10092500Y-19872929D01*
X10078214Y-19844357D01*
X10078214Y-19730072D01*
X10092500Y-19701500D01*
X10121071Y-19687214D01*
X10178214Y-19687214D01*
X10206786Y-19701500D01*
X10221071Y-19730072D01*
X10221071Y-19758643D01*
X10078214Y-19787214D01*
X10335357Y-19872929D02*
X10363929Y-19887214D01*
X10421071Y-19887214D01*
X10449643Y-19872929D01*
X10463929Y-19844357D01*
X10463929Y-19830072D01*
X10449643Y-19801500D01*
X10421071Y-19787214D01*
X10378214Y-19787214D01*
X10349643Y-19772929D01*
X10335357Y-19744357D01*
X10335357Y-19730072D01*
X10349643Y-19701500D01*
X10378214Y-19687214D01*
X10421071Y-19687214D01*
X10449643Y-19701500D01*
X10563928Y-20001500D02*
X10578214Y-19987214D01*
X10606786Y-19944357D01*
X10621071Y-19915786D01*
X10635357Y-19872929D01*
X10649643Y-19801500D01*
X10649643Y-19744357D01*
X10635357Y-19672929D01*
X10621071Y-19630072D01*
X10606786Y-19601500D01*
X10578214Y-19558643D01*
X10563928Y-19544357D01*
X3942500Y-20072500D02*
X4092500Y-20222500D01*
X4092500Y-20072500D02*
X3942500Y-20222500D01*
X4092500Y-20147500D02*
G75*
G03X4092500Y-20147500I-75000J0D01*
G01*
X4521071Y-20283214D02*
X4349643Y-20283214D01*
X4435357Y-20283214D02*
X4435357Y-19983214D01*
X4406786Y-20026072D01*
X4378214Y-20054643D01*
X4349643Y-20068929D01*
X4649643Y-20254643D02*
X4663929Y-20268929D01*
X4649643Y-20283214D01*
X4635357Y-20268929D01*
X4649643Y-20254643D01*
X4649643Y-20283214D01*
X4935357Y-19983214D02*
X4792500Y-19983214D01*
X4778214Y-20126072D01*
X4792500Y-20111786D01*
X4821071Y-20097500D01*
X4892500Y-20097500D01*
X4921071Y-20111786D01*
X4935357Y-20126072D01*
X4949643Y-20154643D01*
X4949643Y-20226072D01*
X4935357Y-20254643D01*
X4921071Y-20268929D01*
X4892500Y-20283214D01*
X4821071Y-20283214D01*
X4792500Y-20268929D01*
X4778214Y-20254643D01*
X5135357Y-19983214D02*
X5163929Y-19983214D01*
X5192500Y-19997500D01*
X5206786Y-20011786D01*
X5221071Y-20040357D01*
X5235357Y-20097500D01*
X5235357Y-20168929D01*
X5221071Y-20226072D01*
X5206786Y-20254643D01*
X5192500Y-20268929D01*
X5163929Y-20283214D01*
X5135357Y-20283214D01*
X5106786Y-20268929D01*
X5092500Y-20254643D01*
X5078214Y-20226072D01*
X5063929Y-20168929D01*
X5063929Y-20097500D01*
X5078214Y-20040357D01*
X5092500Y-20011786D01*
X5106786Y-19997500D01*
X5135357Y-19983214D01*
X5363929Y-20283214D02*
X5363929Y-20083214D01*
X5363929Y-20111786D02*
X5378214Y-20097500D01*
X5406786Y-20083214D01*
X5449643Y-20083214D01*
X5478214Y-20097500D01*
X5492500Y-20126072D01*
X5492500Y-20283214D01*
X5492500Y-20126072D02*
X5506786Y-20097500D01*
X5535357Y-20083214D01*
X5578214Y-20083214D01*
X5606786Y-20097500D01*
X5621071Y-20126072D01*
X5621071Y-20283214D01*
X5763928Y-20283214D02*
X5763928Y-20083214D01*
X5763928Y-20111786D02*
X5778214Y-20097500D01*
X5806786Y-20083214D01*
X5849643Y-20083214D01*
X5878214Y-20097500D01*
X5892500Y-20126072D01*
X5892500Y-20283214D01*
X5892500Y-20126072D02*
X5906786Y-20097500D01*
X5935357Y-20083214D01*
X5978214Y-20083214D01*
X6006786Y-20097500D01*
X6021071Y-20126072D01*
X6021071Y-20283214D01*
X6606786Y-19968929D02*
X6349643Y-20354643D01*
X6992500Y-19983214D02*
X7021071Y-19983214D01*
X7049643Y-19997500D01*
X7063928Y-20011786D01*
X7078214Y-20040357D01*
X7092500Y-20097500D01*
X7092500Y-20168929D01*
X7078214Y-20226072D01*
X7063928Y-20254643D01*
X7049643Y-20268929D01*
X7021071Y-20283214D01*
X6992500Y-20283214D01*
X6963928Y-20268929D01*
X6949643Y-20254643D01*
X6935357Y-20226072D01*
X6921071Y-20168929D01*
X6921071Y-20097500D01*
X6935357Y-20040357D01*
X6949643Y-20011786D01*
X6963928Y-19997500D01*
X6992500Y-19983214D01*
X7221071Y-20254643D02*
X7235357Y-20268929D01*
X7221071Y-20283214D01*
X7206786Y-20268929D01*
X7221071Y-20254643D01*
X7221071Y-20283214D01*
X7421071Y-19983214D02*
X7449643Y-19983214D01*
X7478214Y-19997500D01*
X7492500Y-20011786D01*
X7506785Y-20040357D01*
X7521071Y-20097500D01*
X7521071Y-20168929D01*
X7506785Y-20226072D01*
X7492500Y-20254643D01*
X7478214Y-20268929D01*
X7449643Y-20283214D01*
X7421071Y-20283214D01*
X7392500Y-20268929D01*
X7378214Y-20254643D01*
X7363928Y-20226072D01*
X7349643Y-20168929D01*
X7349643Y-20097500D01*
X7363928Y-20040357D01*
X7378214Y-20011786D01*
X7392500Y-19997500D01*
X7421071Y-19983214D01*
X7792500Y-19983214D02*
X7649643Y-19983214D01*
X7635357Y-20126072D01*
X7649643Y-20111786D01*
X7678214Y-20097500D01*
X7749643Y-20097500D01*
X7778214Y-20111786D01*
X7792500Y-20126072D01*
X7806785Y-20154643D01*
X7806785Y-20226072D01*
X7792500Y-20254643D01*
X7778214Y-20268929D01*
X7749643Y-20283214D01*
X7678214Y-20283214D01*
X7649643Y-20268929D01*
X7635357Y-20254643D01*
X7949643Y-20283214D02*
X8006785Y-20283214D01*
X8035357Y-20268929D01*
X8049643Y-20254643D01*
X8078214Y-20211786D01*
X8092500Y-20154643D01*
X8092500Y-20040357D01*
X8078214Y-20011786D01*
X8063928Y-19997500D01*
X8035357Y-19983214D01*
X7978214Y-19983214D01*
X7949643Y-19997500D01*
X7935357Y-20011786D01*
X7921071Y-20040357D01*
X7921071Y-20111786D01*
X7935357Y-20140357D01*
X7949643Y-20154643D01*
X7978214Y-20168929D01*
X8035357Y-20168929D01*
X8063928Y-20154643D01*
X8078214Y-20140357D01*
X8092500Y-20111786D01*
X8206786Y-19983214D02*
X8206786Y-20040357D01*
X8321071Y-19983214D02*
X8321071Y-20040357D01*
X8763928Y-20397500D02*
X8749643Y-20383214D01*
X8721071Y-20340357D01*
X8706786Y-20311786D01*
X8692500Y-20268929D01*
X8678214Y-20197500D01*
X8678214Y-20140357D01*
X8692500Y-20068929D01*
X8706786Y-20026072D01*
X8721071Y-19997500D01*
X8749643Y-19954643D01*
X8763928Y-19940357D01*
X8863928Y-20011786D02*
X8878214Y-19997500D01*
X8906786Y-19983214D01*
X8978214Y-19983214D01*
X9006786Y-19997500D01*
X9021071Y-20011786D01*
X9035357Y-20040357D01*
X9035357Y-20068929D01*
X9021071Y-20111786D01*
X8849643Y-20283214D01*
X9035357Y-20283214D01*
X9392500Y-20283214D02*
X9392500Y-19983214D01*
X9521071Y-20283214D02*
X9521071Y-20126072D01*
X9506786Y-20097500D01*
X9478214Y-20083214D01*
X9435357Y-20083214D01*
X9406786Y-20097500D01*
X9392500Y-20111786D01*
X9706786Y-20283214D02*
X9678214Y-20268929D01*
X9663928Y-20254643D01*
X9649643Y-20226072D01*
X9649643Y-20140357D01*
X9663928Y-20111786D01*
X9678214Y-20097500D01*
X9706786Y-20083214D01*
X9749643Y-20083214D01*
X9778214Y-20097500D01*
X9792500Y-20111786D01*
X9806786Y-20140357D01*
X9806786Y-20226072D01*
X9792500Y-20254643D01*
X9778214Y-20268929D01*
X9749643Y-20283214D01*
X9706786Y-20283214D01*
X9978214Y-20283214D02*
X9949643Y-20268929D01*
X9935357Y-20240357D01*
X9935357Y-19983214D01*
X10206786Y-20268929D02*
X10178214Y-20283214D01*
X10121071Y-20283214D01*
X10092500Y-20268929D01*
X10078214Y-20240357D01*
X10078214Y-20126072D01*
X10092500Y-20097500D01*
X10121071Y-20083214D01*
X10178214Y-20083214D01*
X10206786Y-20097500D01*
X10221071Y-20126072D01*
X10221071Y-20154643D01*
X10078214Y-20183214D01*
X10335357Y-20268929D02*
X10363929Y-20283214D01*
X10421071Y-20283214D01*
X10449643Y-20268929D01*
X10463929Y-20240357D01*
X10463929Y-20226072D01*
X10449643Y-20197500D01*
X10421071Y-20183214D01*
X10378214Y-20183214D01*
X10349643Y-20168929D01*
X10335357Y-20140357D01*
X10335357Y-20126072D01*
X10349643Y-20097500D01*
X10378214Y-20083214D01*
X10421071Y-20083214D01*
X10449643Y-20097500D01*
X10563928Y-20397500D02*
X10578214Y-20383214D01*
X10606786Y-20340357D01*
X10621071Y-20311786D01*
X10635357Y-20268929D01*
X10649643Y-20197500D01*
X10649643Y-20140357D01*
X10635357Y-20068929D01*
X10621071Y-20026072D01*
X10606786Y-19997500D01*
X10578214Y-19954643D01*
X10563928Y-19940357D01*
X3742500Y-20368500D02*
X4092500Y-20718500D01*
X4092500Y-20368500D02*
X3742500Y-20718500D01*
X3917500Y-20368500D02*
X3917500Y-20718500D01*
X3742500Y-20543500D02*
X4092500Y-20543500D01*
X4335357Y-20379214D02*
X4521071Y-20379214D01*
X4421071Y-20493500D01*
X4463929Y-20493500D01*
X4492500Y-20507786D01*
X4506786Y-20522072D01*
X4521071Y-20550643D01*
X4521071Y-20622072D01*
X4506786Y-20650643D01*
X4492500Y-20664929D01*
X4463929Y-20679214D01*
X4378214Y-20679214D01*
X4349643Y-20664929D01*
X4335357Y-20650643D01*
X4649643Y-20650643D02*
X4663929Y-20664929D01*
X4649643Y-20679214D01*
X4635357Y-20664929D01*
X4649643Y-20650643D01*
X4649643Y-20679214D01*
X4935357Y-20379214D02*
X4792500Y-20379214D01*
X4778214Y-20522072D01*
X4792500Y-20507786D01*
X4821071Y-20493500D01*
X4892500Y-20493500D01*
X4921071Y-20507786D01*
X4935357Y-20522072D01*
X4949643Y-20550643D01*
X4949643Y-20622072D01*
X4935357Y-20650643D01*
X4921071Y-20664929D01*
X4892500Y-20679214D01*
X4821071Y-20679214D01*
X4792500Y-20664929D01*
X4778214Y-20650643D01*
X5135357Y-20379214D02*
X5163929Y-20379214D01*
X5192500Y-20393500D01*
X5206786Y-20407786D01*
X5221071Y-20436357D01*
X5235357Y-20493500D01*
X5235357Y-20564929D01*
X5221071Y-20622072D01*
X5206786Y-20650643D01*
X5192500Y-20664929D01*
X5163929Y-20679214D01*
X5135357Y-20679214D01*
X5106786Y-20664929D01*
X5092500Y-20650643D01*
X5078214Y-20622072D01*
X5063929Y-20564929D01*
X5063929Y-20493500D01*
X5078214Y-20436357D01*
X5092500Y-20407786D01*
X5106786Y-20393500D01*
X5135357Y-20379214D01*
X5363929Y-20679214D02*
X5363929Y-20479214D01*
X5363929Y-20507786D02*
X5378214Y-20493500D01*
X5406786Y-20479214D01*
X5449643Y-20479214D01*
X5478214Y-20493500D01*
X5492500Y-20522072D01*
X5492500Y-20679214D01*
X5492500Y-20522072D02*
X5506786Y-20493500D01*
X5535357Y-20479214D01*
X5578214Y-20479214D01*
X5606786Y-20493500D01*
X5621071Y-20522072D01*
X5621071Y-20679214D01*
X5763928Y-20679214D02*
X5763928Y-20479214D01*
X5763928Y-20507786D02*
X5778214Y-20493500D01*
X5806786Y-20479214D01*
X5849643Y-20479214D01*
X5878214Y-20493500D01*
X5892500Y-20522072D01*
X5892500Y-20679214D01*
X5892500Y-20522072D02*
X5906786Y-20493500D01*
X5935357Y-20479214D01*
X5978214Y-20479214D01*
X6006786Y-20493500D01*
X6021071Y-20522072D01*
X6021071Y-20679214D01*
X6606786Y-20364929D02*
X6349643Y-20750643D01*
X6992500Y-20379214D02*
X7021071Y-20379214D01*
X7049643Y-20393500D01*
X7063928Y-20407786D01*
X7078214Y-20436357D01*
X7092500Y-20493500D01*
X7092500Y-20564929D01*
X7078214Y-20622072D01*
X7063928Y-20650643D01*
X7049643Y-20664929D01*
X7021071Y-20679214D01*
X6992500Y-20679214D01*
X6963928Y-20664929D01*
X6949643Y-20650643D01*
X6935357Y-20622072D01*
X6921071Y-20564929D01*
X6921071Y-20493500D01*
X6935357Y-20436357D01*
X6949643Y-20407786D01*
X6963928Y-20393500D01*
X6992500Y-20379214D01*
X7221071Y-20650643D02*
X7235357Y-20664929D01*
X7221071Y-20679214D01*
X7206786Y-20664929D01*
X7221071Y-20650643D01*
X7221071Y-20679214D01*
X7521071Y-20679214D02*
X7349643Y-20679214D01*
X7435357Y-20679214D02*
X7435357Y-20379214D01*
X7406785Y-20422072D01*
X7378214Y-20450643D01*
X7349643Y-20464929D01*
X7621071Y-20379214D02*
X7806785Y-20379214D01*
X7706785Y-20493500D01*
X7749643Y-20493500D01*
X7778214Y-20507786D01*
X7792500Y-20522072D01*
X7806785Y-20550643D01*
X7806785Y-20622072D01*
X7792500Y-20650643D01*
X7778214Y-20664929D01*
X7749643Y-20679214D01*
X7663928Y-20679214D01*
X7635357Y-20664929D01*
X7621071Y-20650643D01*
X7978214Y-20507786D02*
X7949643Y-20493500D01*
X7935357Y-20479214D01*
X7921071Y-20450643D01*
X7921071Y-20436357D01*
X7935357Y-20407786D01*
X7949643Y-20393500D01*
X7978214Y-20379214D01*
X8035357Y-20379214D01*
X8063928Y-20393500D01*
X8078214Y-20407786D01*
X8092500Y-20436357D01*
X8092500Y-20450643D01*
X8078214Y-20479214D01*
X8063928Y-20493500D01*
X8035357Y-20507786D01*
X7978214Y-20507786D01*
X7949643Y-20522072D01*
X7935357Y-20536357D01*
X7921071Y-20564929D01*
X7921071Y-20622072D01*
X7935357Y-20650643D01*
X7949643Y-20664929D01*
X7978214Y-20679214D01*
X8035357Y-20679214D01*
X8063928Y-20664929D01*
X8078214Y-20650643D01*
X8092500Y-20622072D01*
X8092500Y-20564929D01*
X8078214Y-20536357D01*
X8063928Y-20522072D01*
X8035357Y-20507786D01*
X8206786Y-20379214D02*
X8206786Y-20436357D01*
X8321071Y-20379214D02*
X8321071Y-20436357D01*
X8763928Y-20793500D02*
X8749643Y-20779214D01*
X8721071Y-20736357D01*
X8706786Y-20707786D01*
X8692500Y-20664929D01*
X8678214Y-20593500D01*
X8678214Y-20536357D01*
X8692500Y-20464929D01*
X8706786Y-20422072D01*
X8721071Y-20393500D01*
X8749643Y-20350643D01*
X8763928Y-20336357D01*
X9006786Y-20479214D02*
X9006786Y-20679214D01*
X8935357Y-20364929D02*
X8863928Y-20579214D01*
X9049643Y-20579214D01*
X9392500Y-20679214D02*
X9392500Y-20379214D01*
X9521071Y-20679214D02*
X9521071Y-20522072D01*
X9506786Y-20493500D01*
X9478214Y-20479214D01*
X9435357Y-20479214D01*
X9406786Y-20493500D01*
X9392500Y-20507786D01*
X9706786Y-20679214D02*
X9678214Y-20664929D01*
X9663928Y-20650643D01*
X9649643Y-20622072D01*
X9649643Y-20536357D01*
X9663928Y-20507786D01*
X9678214Y-20493500D01*
X9706786Y-20479214D01*
X9749643Y-20479214D01*
X9778214Y-20493500D01*
X9792500Y-20507786D01*
X9806786Y-20536357D01*
X9806786Y-20622072D01*
X9792500Y-20650643D01*
X9778214Y-20664929D01*
X9749643Y-20679214D01*
X9706786Y-20679214D01*
X9978214Y-20679214D02*
X9949643Y-20664929D01*
X9935357Y-20636357D01*
X9935357Y-20379214D01*
X10206786Y-20664929D02*
X10178214Y-20679214D01*
X10121071Y-20679214D01*
X10092500Y-20664929D01*
X10078214Y-20636357D01*
X10078214Y-20522072D01*
X10092500Y-20493500D01*
X10121071Y-20479214D01*
X10178214Y-20479214D01*
X10206786Y-20493500D01*
X10221071Y-20522072D01*
X10221071Y-20550643D01*
X10078214Y-20579214D01*
X10335357Y-20664929D02*
X10363929Y-20679214D01*
X10421071Y-20679214D01*
X10449643Y-20664929D01*
X10463929Y-20636357D01*
X10463929Y-20622072D01*
X10449643Y-20593500D01*
X10421071Y-20579214D01*
X10378214Y-20579214D01*
X10349643Y-20564929D01*
X10335357Y-20536357D01*
X10335357Y-20522072D01*
X10349643Y-20493500D01*
X10378214Y-20479214D01*
X10421071Y-20479214D01*
X10449643Y-20493500D01*
X10563928Y-20793500D02*
X10578214Y-20779214D01*
X10606786Y-20736357D01*
X10621071Y-20707786D01*
X10635357Y-20664929D01*
X10649643Y-20593500D01*
X10649643Y-20536357D01*
X10635357Y-20464929D01*
X10621071Y-20422072D01*
X10606786Y-20393500D01*
X10578214Y-20350643D01*
X10563928Y-20336357D01*
M02*
