G04 #@! TF.FileFunction,Legend,Bot*
%FSLAX46Y46*%
G04 Gerber Fmt 4.6, Leading zero omitted, Abs format (unit mm)*
G04 Created by KiCad (PCBNEW 4.0.5+dfsg1-4) date Mon May 15 15:44:01 2017*
%MOMM*%
%LPD*%
G01*
G04 APERTURE LIST*
%ADD10C,0.100000*%
%ADD11C,0.150000*%
G04 APERTURE END LIST*
D10*
D11*
X81475000Y-157750000D02*
X81475000Y-159750000D01*
X83625000Y-159750000D02*
X83625000Y-157750000D01*
X89095000Y-157750000D02*
X89095000Y-159750000D01*
X91245000Y-159750000D02*
X91245000Y-157750000D01*
X87385000Y-157750000D02*
X87385000Y-159750000D01*
X85335000Y-159750000D02*
X85335000Y-157750000D01*
X95005000Y-157750000D02*
X95005000Y-159750000D01*
X92955000Y-159750000D02*
X92955000Y-157750000D01*
X102625000Y-157750000D02*
X102625000Y-159750000D01*
X100575000Y-159750000D02*
X100575000Y-157750000D01*
X110245000Y-157750000D02*
X110245000Y-159750000D01*
X108195000Y-159750000D02*
X108195000Y-157750000D01*
X52315000Y-153400000D02*
X52315000Y-151400000D01*
X54365000Y-151400000D02*
X54365000Y-153400000D01*
X106680000Y-138101220D02*
X106680000Y-137400180D01*
X106680000Y-139051180D02*
X106680000Y-139599820D01*
X106680000Y-139051180D02*
X105879900Y-139051180D01*
X106680000Y-139051180D02*
X107480100Y-139051180D01*
X106680000Y-139051180D02*
X107480100Y-138101220D01*
X107480100Y-138101220D02*
X105879900Y-138101220D01*
X105879900Y-138101220D02*
X106680000Y-139051180D01*
X107929680Y-139599820D02*
X107929680Y-139698880D01*
X105430320Y-139599820D02*
X105430320Y-139698880D01*
X107929680Y-137301120D02*
X107929680Y-139650620D01*
X105430320Y-137301120D02*
X105430320Y-139549020D01*
X96715000Y-157750000D02*
X96715000Y-159750000D01*
X98865000Y-159750000D02*
X98865000Y-157750000D01*
X104335000Y-157750000D02*
X104335000Y-159750000D01*
X106485000Y-159750000D02*
X106485000Y-157750000D01*
X59250000Y-156480000D02*
X59250000Y-158480000D01*
X61400000Y-158480000D02*
X61400000Y-156480000D01*
X67580000Y-144585000D02*
X69580000Y-144585000D01*
X69580000Y-142435000D02*
X67580000Y-142435000D01*
X69460000Y-161070000D02*
X65860000Y-161070000D01*
X69460000Y-158970000D02*
X65860000Y-158970000D01*
X67410000Y-159720000D02*
X67410000Y-160320000D01*
X67410000Y-160320000D02*
X67710000Y-160020000D01*
X67710000Y-160020000D02*
X67510000Y-159820000D01*
X67510000Y-159820000D02*
X67510000Y-160070000D01*
X67510000Y-160070000D02*
X67560000Y-160020000D01*
X67810000Y-159520000D02*
X67810000Y-160520000D01*
X67310000Y-160020000D02*
X66810000Y-160020000D01*
X67810000Y-160020000D02*
X67310000Y-159520000D01*
X67310000Y-159520000D02*
X67310000Y-160520000D01*
X67310000Y-160520000D02*
X67810000Y-160020000D01*
X46410000Y-147100000D02*
X46410000Y-155400000D01*
X50110000Y-147100000D02*
X50110000Y-155400000D01*
X46410000Y-147100000D02*
X50110000Y-147100000D01*
X83002381Y-163663334D02*
X82526190Y-163330000D01*
X83002381Y-163091905D02*
X82002381Y-163091905D01*
X82002381Y-163472858D01*
X82050000Y-163568096D01*
X82097619Y-163615715D01*
X82192857Y-163663334D01*
X82335714Y-163663334D01*
X82430952Y-163615715D01*
X82478571Y-163568096D01*
X82526190Y-163472858D01*
X82526190Y-163091905D01*
X83002381Y-164615715D02*
X83002381Y-164044286D01*
X83002381Y-164330000D02*
X82002381Y-164330000D01*
X82145238Y-164234762D01*
X82240476Y-164139524D01*
X82288095Y-164044286D01*
X90622381Y-163663334D02*
X90146190Y-163330000D01*
X90622381Y-163091905D02*
X89622381Y-163091905D01*
X89622381Y-163472858D01*
X89670000Y-163568096D01*
X89717619Y-163615715D01*
X89812857Y-163663334D01*
X89955714Y-163663334D01*
X90050952Y-163615715D01*
X90098571Y-163568096D01*
X90146190Y-163472858D01*
X90146190Y-163091905D01*
X89717619Y-164044286D02*
X89670000Y-164091905D01*
X89622381Y-164187143D01*
X89622381Y-164425239D01*
X89670000Y-164520477D01*
X89717619Y-164568096D01*
X89812857Y-164615715D01*
X89908095Y-164615715D01*
X90050952Y-164568096D01*
X90622381Y-163996667D01*
X90622381Y-164615715D01*
X86717143Y-163663334D02*
X86764762Y-163615715D01*
X86812381Y-163472858D01*
X86812381Y-163377620D01*
X86764762Y-163234762D01*
X86669524Y-163139524D01*
X86574286Y-163091905D01*
X86383810Y-163044286D01*
X86240952Y-163044286D01*
X86050476Y-163091905D01*
X85955238Y-163139524D01*
X85860000Y-163234762D01*
X85812381Y-163377620D01*
X85812381Y-163472858D01*
X85860000Y-163615715D01*
X85907619Y-163663334D01*
X86812381Y-164615715D02*
X86812381Y-164044286D01*
X86812381Y-164330000D02*
X85812381Y-164330000D01*
X85955238Y-164234762D01*
X86050476Y-164139524D01*
X86098095Y-164044286D01*
X94337143Y-163663334D02*
X94384762Y-163615715D01*
X94432381Y-163472858D01*
X94432381Y-163377620D01*
X94384762Y-163234762D01*
X94289524Y-163139524D01*
X94194286Y-163091905D01*
X94003810Y-163044286D01*
X93860952Y-163044286D01*
X93670476Y-163091905D01*
X93575238Y-163139524D01*
X93480000Y-163234762D01*
X93432381Y-163377620D01*
X93432381Y-163472858D01*
X93480000Y-163615715D01*
X93527619Y-163663334D01*
X93527619Y-164044286D02*
X93480000Y-164091905D01*
X93432381Y-164187143D01*
X93432381Y-164425239D01*
X93480000Y-164520477D01*
X93527619Y-164568096D01*
X93622857Y-164615715D01*
X93718095Y-164615715D01*
X93860952Y-164568096D01*
X94432381Y-163996667D01*
X94432381Y-164615715D01*
X101957143Y-163663334D02*
X102004762Y-163615715D01*
X102052381Y-163472858D01*
X102052381Y-163377620D01*
X102004762Y-163234762D01*
X101909524Y-163139524D01*
X101814286Y-163091905D01*
X101623810Y-163044286D01*
X101480952Y-163044286D01*
X101290476Y-163091905D01*
X101195238Y-163139524D01*
X101100000Y-163234762D01*
X101052381Y-163377620D01*
X101052381Y-163472858D01*
X101100000Y-163615715D01*
X101147619Y-163663334D01*
X101052381Y-163996667D02*
X101052381Y-164615715D01*
X101433333Y-164282381D01*
X101433333Y-164425239D01*
X101480952Y-164520477D01*
X101528571Y-164568096D01*
X101623810Y-164615715D01*
X101861905Y-164615715D01*
X101957143Y-164568096D01*
X102004762Y-164520477D01*
X102052381Y-164425239D01*
X102052381Y-164139524D01*
X102004762Y-164044286D01*
X101957143Y-163996667D01*
X109577143Y-163663334D02*
X109624762Y-163615715D01*
X109672381Y-163472858D01*
X109672381Y-163377620D01*
X109624762Y-163234762D01*
X109529524Y-163139524D01*
X109434286Y-163091905D01*
X109243810Y-163044286D01*
X109100952Y-163044286D01*
X108910476Y-163091905D01*
X108815238Y-163139524D01*
X108720000Y-163234762D01*
X108672381Y-163377620D01*
X108672381Y-163472858D01*
X108720000Y-163615715D01*
X108767619Y-163663334D01*
X109005714Y-164520477D02*
X109672381Y-164520477D01*
X108624762Y-164282381D02*
X109339048Y-164044286D01*
X109339048Y-164663334D01*
X53697143Y-147153334D02*
X53744762Y-147105715D01*
X53792381Y-146962858D01*
X53792381Y-146867620D01*
X53744762Y-146724762D01*
X53649524Y-146629524D01*
X53554286Y-146581905D01*
X53363810Y-146534286D01*
X53220952Y-146534286D01*
X53030476Y-146581905D01*
X52935238Y-146629524D01*
X52840000Y-146724762D01*
X52792381Y-146867620D01*
X52792381Y-146962858D01*
X52840000Y-147105715D01*
X52887619Y-147153334D01*
X52792381Y-148010477D02*
X52792381Y-147820000D01*
X52840000Y-147724762D01*
X52887619Y-147677143D01*
X53030476Y-147581905D01*
X53220952Y-147534286D01*
X53601905Y-147534286D01*
X53697143Y-147581905D01*
X53744762Y-147629524D01*
X53792381Y-147724762D01*
X53792381Y-147915239D01*
X53744762Y-148010477D01*
X53697143Y-148058096D01*
X53601905Y-148105715D01*
X53363810Y-148105715D01*
X53268571Y-148058096D01*
X53220952Y-148010477D01*
X53173333Y-147915239D01*
X53173333Y-147724762D01*
X53220952Y-147629524D01*
X53268571Y-147581905D01*
X53363810Y-147534286D01*
X109672381Y-132681905D02*
X108672381Y-132681905D01*
X108672381Y-132920000D01*
X108720000Y-133062858D01*
X108815238Y-133158096D01*
X108910476Y-133205715D01*
X109100952Y-133253334D01*
X109243810Y-133253334D01*
X109434286Y-133205715D01*
X109529524Y-133158096D01*
X109624762Y-133062858D01*
X109672381Y-132920000D01*
X109672381Y-132681905D01*
X109672381Y-134205715D02*
X109672381Y-133634286D01*
X109672381Y-133920000D02*
X108672381Y-133920000D01*
X108815238Y-133824762D01*
X108910476Y-133729524D01*
X108958095Y-133634286D01*
X104682381Y-140788095D02*
X103682381Y-140788095D01*
X104682381Y-141359524D02*
X104110952Y-140930952D01*
X103682381Y-141359524D02*
X104253810Y-140788095D01*
X104346667Y-135911905D02*
X104346667Y-136388096D01*
X104632381Y-135816667D02*
X103632381Y-136150000D01*
X104632381Y-136483334D01*
X98242381Y-163663334D02*
X97766190Y-163330000D01*
X98242381Y-163091905D02*
X97242381Y-163091905D01*
X97242381Y-163472858D01*
X97290000Y-163568096D01*
X97337619Y-163615715D01*
X97432857Y-163663334D01*
X97575714Y-163663334D01*
X97670952Y-163615715D01*
X97718571Y-163568096D01*
X97766190Y-163472858D01*
X97766190Y-163091905D01*
X97242381Y-163996667D02*
X97242381Y-164615715D01*
X97623333Y-164282381D01*
X97623333Y-164425239D01*
X97670952Y-164520477D01*
X97718571Y-164568096D01*
X97813810Y-164615715D01*
X98051905Y-164615715D01*
X98147143Y-164568096D01*
X98194762Y-164520477D01*
X98242381Y-164425239D01*
X98242381Y-164139524D01*
X98194762Y-164044286D01*
X98147143Y-163996667D01*
X105862381Y-163663334D02*
X105386190Y-163330000D01*
X105862381Y-163091905D02*
X104862381Y-163091905D01*
X104862381Y-163472858D01*
X104910000Y-163568096D01*
X104957619Y-163615715D01*
X105052857Y-163663334D01*
X105195714Y-163663334D01*
X105290952Y-163615715D01*
X105338571Y-163568096D01*
X105386190Y-163472858D01*
X105386190Y-163091905D01*
X105195714Y-164520477D02*
X105862381Y-164520477D01*
X104814762Y-164282381D02*
X105529048Y-164044286D01*
X105529048Y-164663334D01*
X60777381Y-161758334D02*
X60301190Y-161425000D01*
X60777381Y-161186905D02*
X59777381Y-161186905D01*
X59777381Y-161567858D01*
X59825000Y-161663096D01*
X59872619Y-161710715D01*
X59967857Y-161758334D01*
X60110714Y-161758334D01*
X60205952Y-161710715D01*
X60253571Y-161663096D01*
X60301190Y-161567858D01*
X60301190Y-161186905D01*
X59777381Y-162663096D02*
X59777381Y-162186905D01*
X60253571Y-162139286D01*
X60205952Y-162186905D01*
X60158333Y-162282143D01*
X60158333Y-162520239D01*
X60205952Y-162615477D01*
X60253571Y-162663096D01*
X60348810Y-162710715D01*
X60586905Y-162710715D01*
X60682143Y-162663096D01*
X60729762Y-162615477D01*
X60777381Y-162520239D01*
X60777381Y-162282143D01*
X60729762Y-162186905D01*
X60682143Y-162139286D01*
X64301666Y-143962381D02*
X64635000Y-143486190D01*
X64873095Y-143962381D02*
X64873095Y-142962381D01*
X64492142Y-142962381D01*
X64396904Y-143010000D01*
X64349285Y-143057619D01*
X64301666Y-143152857D01*
X64301666Y-143295714D01*
X64349285Y-143390952D01*
X64396904Y-143438571D01*
X64492142Y-143486190D01*
X64873095Y-143486190D01*
X63444523Y-142962381D02*
X63635000Y-142962381D01*
X63730238Y-143010000D01*
X63777857Y-143057619D01*
X63873095Y-143200476D01*
X63920714Y-143390952D01*
X63920714Y-143771905D01*
X63873095Y-143867143D01*
X63825476Y-143914762D01*
X63730238Y-143962381D01*
X63539761Y-143962381D01*
X63444523Y-143914762D01*
X63396904Y-143867143D01*
X63349285Y-143771905D01*
X63349285Y-143533810D01*
X63396904Y-143438571D01*
X63444523Y-143390952D01*
X63539761Y-143343333D01*
X63730238Y-143343333D01*
X63825476Y-143390952D01*
X63873095Y-143438571D01*
X63920714Y-143533810D01*
X68048095Y-158472381D02*
X68048095Y-157472381D01*
X67810000Y-157472381D01*
X67667142Y-157520000D01*
X67571904Y-157615238D01*
X67524285Y-157710476D01*
X67476666Y-157900952D01*
X67476666Y-158043810D01*
X67524285Y-158234286D01*
X67571904Y-158329524D01*
X67667142Y-158424762D01*
X67810000Y-158472381D01*
X68048095Y-158472381D01*
X67143333Y-157472381D02*
X66524285Y-157472381D01*
X66857619Y-157853333D01*
X66714761Y-157853333D01*
X66619523Y-157900952D01*
X66571904Y-157948571D01*
X66524285Y-158043810D01*
X66524285Y-158281905D01*
X66571904Y-158377143D01*
X66619523Y-158424762D01*
X66714761Y-158472381D01*
X67000476Y-158472381D01*
X67095714Y-158424762D01*
X67143333Y-158377143D01*
X45267143Y-152233334D02*
X45314762Y-152185715D01*
X45362381Y-152042858D01*
X45362381Y-151947620D01*
X45314762Y-151804762D01*
X45219524Y-151709524D01*
X45124286Y-151661905D01*
X44933810Y-151614286D01*
X44790952Y-151614286D01*
X44600476Y-151661905D01*
X44505238Y-151709524D01*
X44410000Y-151804762D01*
X44362381Y-151947620D01*
X44362381Y-152042858D01*
X44410000Y-152185715D01*
X44457619Y-152233334D01*
X44362381Y-153138096D02*
X44362381Y-152661905D01*
X44838571Y-152614286D01*
X44790952Y-152661905D01*
X44743333Y-152757143D01*
X44743333Y-152995239D01*
X44790952Y-153090477D01*
X44838571Y-153138096D01*
X44933810Y-153185715D01*
X45171905Y-153185715D01*
X45267143Y-153138096D01*
X45314762Y-153090477D01*
X45362381Y-152995239D01*
X45362381Y-152757143D01*
X45314762Y-152661905D01*
X45267143Y-152614286D01*
M02*
