M48
;DRILL file {KiCad 4.0.5+dfsg1-4} date Tue May 16 10:22:53 2017
;FORMAT={-:-/ absolute / inch / decimal}
FMAT,2
INCH,TZ
T1C0.020
T2C0.031
T3C0.039
T4C0.039
T5C0.040
T6C0.055
T7C0.059
T8C0.138
%
G90
G05
M72
T1
X1.9Y-6.275
X1.9004Y-5.7379
T2
X2.5Y-5.9
X2.5Y-6.
X2.5Y-6.1
X2.5Y-6.2
X2.8Y-5.9
X2.8Y-6.
X2.8Y-6.1
X2.8Y-6.2
T3
X2.25Y-5.9
X2.25Y-6.
X2.25Y-6.1
X2.25Y-6.2
X2.25Y-6.3
X2.25Y-6.4
T4
X2.6Y-6.4
X2.7Y-6.4
T5
X1.6929Y-5.748
X1.9685Y-4.7244
X2.5Y-5.75
X2.6Y-5.75
X4.6063Y-4.7244
X4.8819Y-5.748
T6
X3.1Y-6.0295
X3.3Y-6.0295
X3.5Y-6.0295
X3.7Y-6.0295
X3.9Y-6.0295
X4.1Y-6.0295
X4.3Y-6.0295
X4.5Y-6.0295
T7
X3.0118Y-5.2362
X3.8185Y-5.2362
T8
X1.7323Y-5.1969
X2.9921Y-6.5945
X3.2874Y-5.1969
X4.8425Y-5.1969
T0
M30
