G04 #@! TF.FileFunction,Legend,Top*
%FSLAX46Y46*%
G04 Gerber Fmt 4.6, Leading zero omitted, Abs format (unit mm)*
G04 Created by KiCad (PCBNEW 4.0.5+dfsg1-4) date Mon May 15 15:44:01 2017*
%MOMM*%
%LPD*%
G01*
G04 APERTURE LIST*
%ADD10C,0.100000*%
%ADD11C,0.150000*%
%ADD12C,0.120000*%
G04 APERTURE END LIST*
D10*
D11*
X55880000Y-163830000D02*
X55880000Y-160020000D01*
X58420000Y-163830000D02*
X55880000Y-163830000D01*
X58420000Y-160020000D02*
X58420000Y-163830000D01*
X48260000Y-156210000D02*
X48260000Y-151130000D01*
X45720000Y-156210000D02*
X45720000Y-151130000D01*
X45720000Y-156210000D02*
G75*
G03X48260000Y-156210000I1270000J0D01*
G01*
X48260000Y-151130000D02*
G75*
G03X45720000Y-151130000I-1270000J0D01*
G01*
X58420000Y-158750000D02*
X44450000Y-158750000D01*
X44450000Y-158750000D02*
X44450000Y-148590000D01*
X44450000Y-148590000D02*
X58420000Y-148590000D01*
X58420000Y-148590000D02*
X58420000Y-158750000D01*
D12*
X80726841Y-153345821D02*
G75*
G02X76740000Y-153330000I-1986841J1665821D01*
G01*
X85806841Y-153345821D02*
G75*
G02X81820000Y-153330000I-1986841J1665821D01*
G01*
X90886841Y-153345821D02*
G75*
G02X86900000Y-153330000I-1986841J1665821D01*
G01*
X95966841Y-153345821D02*
G75*
G02X91980000Y-153330000I-1986841J1665821D01*
G01*
X101046841Y-153345821D02*
G75*
G02X97060000Y-153330000I-1986841J1665821D01*
G01*
X106126841Y-153345821D02*
G75*
G02X102140000Y-153330000I-1986841J1665821D01*
G01*
X111206841Y-153345821D02*
G75*
G02X107220000Y-153330000I-1986841J1665821D01*
G01*
X116286841Y-153345821D02*
G75*
G02X112300000Y-153330000I-1986841J1665821D01*
G01*
X75120000Y-146250000D02*
X75120000Y-155010000D01*
X75120000Y-155010000D02*
X117920000Y-155010000D01*
X117920000Y-155010000D02*
X117920000Y-146250000D01*
X117920000Y-146250000D02*
X75120000Y-146250000D01*
X75120000Y-147030000D02*
X77660000Y-147030000D01*
X117920000Y-147030000D02*
X115380000Y-147030000D01*
X79740000Y-147030000D02*
X82820000Y-147030000D01*
X84820000Y-147030000D02*
X87900000Y-147030000D01*
X89900000Y-147030000D02*
X92980000Y-147030000D01*
X94980000Y-147030000D02*
X98060000Y-147030000D01*
X100060000Y-147030000D02*
X103140000Y-147030000D01*
X105140000Y-147030000D02*
X108220000Y-147030000D01*
X110220000Y-147030000D02*
X113300000Y-147030000D01*
X77740000Y-148030000D02*
X77740000Y-146250000D01*
X77740000Y-146250000D02*
X79740000Y-146250000D01*
X79740000Y-146250000D02*
X79740000Y-148030000D01*
X79740000Y-148030000D02*
X77740000Y-148030000D01*
X82820000Y-148030000D02*
X82820000Y-146250000D01*
X82820000Y-146250000D02*
X84820000Y-146250000D01*
X84820000Y-146250000D02*
X84820000Y-148030000D01*
X84820000Y-148030000D02*
X82820000Y-148030000D01*
X87900000Y-148030000D02*
X87900000Y-146250000D01*
X87900000Y-146250000D02*
X89900000Y-146250000D01*
X89900000Y-146250000D02*
X89900000Y-148030000D01*
X89900000Y-148030000D02*
X87900000Y-148030000D01*
X92980000Y-148030000D02*
X92980000Y-146250000D01*
X92980000Y-146250000D02*
X94980000Y-146250000D01*
X94980000Y-146250000D02*
X94980000Y-148030000D01*
X94980000Y-148030000D02*
X92980000Y-148030000D01*
X98060000Y-148030000D02*
X98060000Y-146250000D01*
X98060000Y-146250000D02*
X100060000Y-146250000D01*
X100060000Y-146250000D02*
X100060000Y-148030000D01*
X100060000Y-148030000D02*
X98060000Y-148030000D01*
X103140000Y-148030000D02*
X103140000Y-146250000D01*
X103140000Y-146250000D02*
X105140000Y-146250000D01*
X105140000Y-146250000D02*
X105140000Y-148030000D01*
X105140000Y-148030000D02*
X103140000Y-148030000D01*
X108220000Y-148030000D02*
X108220000Y-146250000D01*
X108220000Y-146250000D02*
X110220000Y-146250000D01*
X110220000Y-146250000D02*
X110220000Y-148030000D01*
X110220000Y-148030000D02*
X108220000Y-148030000D01*
X113300000Y-148030000D02*
X113300000Y-146250000D01*
X113300000Y-146250000D02*
X115300000Y-146250000D01*
X115300000Y-146250000D02*
X115300000Y-148030000D01*
X115300000Y-148030000D02*
X113300000Y-148030000D01*
X80740000Y-153330000D02*
X81820000Y-153330000D01*
X85820000Y-153330000D02*
X86900000Y-153330000D01*
X90900000Y-153330000D02*
X91980000Y-153330000D01*
X95980000Y-153330000D02*
X97060000Y-153330000D01*
X101060000Y-153330000D02*
X102140000Y-153330000D01*
X106140000Y-153330000D02*
X107220000Y-153330000D01*
X111220000Y-153330000D02*
X112300000Y-153330000D01*
X76740000Y-153330000D02*
X76000000Y-153330000D01*
X76000000Y-153330000D02*
X76000000Y-148030000D01*
X76000000Y-148030000D02*
X117040000Y-148030000D01*
X117040000Y-148030000D02*
X117040000Y-153330000D01*
X117040000Y-153330000D02*
X116300000Y-153330000D01*
X79040000Y-145450000D02*
X78740000Y-146050000D01*
X78740000Y-146050000D02*
X78440000Y-145450000D01*
X78440000Y-145450000D02*
X79040000Y-145450000D01*
D11*
X63635000Y-147565000D02*
X63635000Y-148835000D01*
X70985000Y-147565000D02*
X70985000Y-148835000D01*
X70985000Y-159775000D02*
X70985000Y-158505000D01*
X63635000Y-159775000D02*
X63635000Y-158505000D01*
X63635000Y-147565000D02*
X70985000Y-147565000D01*
X63635000Y-159775000D02*
X70985000Y-159775000D01*
X63635000Y-148835000D02*
X62350000Y-148835000D01*
D12*
X67790262Y-133015231D02*
G75*
G02X95340000Y-129480000I13999738J15231D01*
G01*
X67790262Y-132984769D02*
G75*
G03X95340000Y-136520000I13999738J-15231D01*
G01*
X95335231Y-129456515D02*
G75*
G03X96040000Y-129950000I704769J256515D01*
G01*
X95335231Y-136543485D02*
G75*
G02X96040000Y-136050000I704769J-256515D01*
G01*
X96040000Y-136050000D02*
X98490000Y-136050000D01*
X98490000Y-129950000D02*
X96040000Y-129950000D01*
X98490000Y-136050000D02*
G75*
G03X99040000Y-135500000I0J550000D01*
G01*
X98490000Y-129950000D02*
G75*
G02X99040000Y-130500000I0J-550000D01*
G01*
X99040000Y-135500000D02*
X99040000Y-130500000D01*
D11*
X118550000Y-118450000D02*
X118550000Y-120000000D01*
X115450000Y-120000000D02*
X115450000Y-118450000D01*
X115450000Y-118450000D02*
X118550000Y-118450000D01*
X115730000Y-121270000D02*
X118270000Y-121270000D01*
X51550000Y-118450000D02*
X51550000Y-120000000D01*
X48450000Y-120000000D02*
X48450000Y-118450000D01*
X48450000Y-118450000D02*
X51550000Y-118450000D01*
X48730000Y-121270000D02*
X51270000Y-121270000D01*
X69794888Y-161035096D02*
G75*
G03X69810000Y-164060000I-2484888J-1524904D01*
G01*
X69810000Y-161060000D02*
X69810000Y-164060000D01*
X69827936Y-162560000D02*
G75*
G03X69827936Y-162560000I-2517936J0D01*
G01*
X64770000Y-144780000D02*
X67310000Y-144780000D01*
X61950000Y-144500000D02*
X63500000Y-144500000D01*
X64770000Y-144780000D02*
X64770000Y-147320000D01*
X63500000Y-147600000D02*
X61950000Y-147600000D01*
X61950000Y-147600000D02*
X61950000Y-144500000D01*
X64770000Y-147320000D02*
X67310000Y-147320000D01*
X67310000Y-147320000D02*
X67310000Y-144780000D01*
X125550000Y-144450000D02*
X125550000Y-146000000D01*
X122450000Y-146000000D02*
X122450000Y-144450000D01*
X122450000Y-144450000D02*
X125550000Y-144450000D01*
X122730000Y-147270000D02*
X125270000Y-147270000D01*
X44550000Y-144450000D02*
X44550000Y-146000000D01*
X41450000Y-146000000D02*
X41450000Y-144450000D01*
X41450000Y-144450000D02*
X44550000Y-144450000D01*
X41730000Y-147270000D02*
X44270000Y-147270000D01*
X46180476Y-160472381D02*
X46180476Y-159472381D01*
X46513810Y-160186667D01*
X46847143Y-159472381D01*
X46847143Y-160472381D01*
X47847143Y-160472381D02*
X47275714Y-160472381D01*
X47561428Y-160472381D02*
X47561428Y-159472381D01*
X47466190Y-159615238D01*
X47370952Y-159710476D01*
X47275714Y-159758095D01*
X46775714Y-155622380D02*
X47442381Y-155622380D01*
X46394762Y-155860476D02*
X47109048Y-156098571D01*
X47109048Y-155479523D01*
X46442381Y-155193809D02*
X46442381Y-154574761D01*
X46823333Y-154908095D01*
X46823333Y-154765237D01*
X46870952Y-154669999D01*
X46918571Y-154622380D01*
X47013810Y-154574761D01*
X47251905Y-154574761D01*
X47347143Y-154622380D01*
X47394762Y-154669999D01*
X47442381Y-154765237D01*
X47442381Y-155050952D01*
X47394762Y-155146190D01*
X47347143Y-155193809D01*
X46442381Y-154241428D02*
X46442381Y-153622380D01*
X46823333Y-153955714D01*
X46823333Y-153812856D01*
X46870952Y-153717618D01*
X46918571Y-153669999D01*
X47013810Y-153622380D01*
X47251905Y-153622380D01*
X47347143Y-153669999D01*
X47394762Y-153717618D01*
X47442381Y-153812856D01*
X47442381Y-154098571D01*
X47394762Y-154193809D01*
X47347143Y-154241428D01*
X47347143Y-153193809D02*
X47394762Y-153146190D01*
X47442381Y-153193809D01*
X47394762Y-153241428D01*
X47347143Y-153193809D01*
X47442381Y-153193809D01*
X47442381Y-152670000D02*
X47442381Y-152479524D01*
X47394762Y-152384285D01*
X47347143Y-152336666D01*
X47204286Y-152241428D01*
X47013810Y-152193809D01*
X46632857Y-152193809D01*
X46537619Y-152241428D01*
X46490000Y-152289047D01*
X46442381Y-152384285D01*
X46442381Y-152574762D01*
X46490000Y-152670000D01*
X46537619Y-152717619D01*
X46632857Y-152765238D01*
X46870952Y-152765238D01*
X46966190Y-152717619D01*
X47013810Y-152670000D01*
X47061429Y-152574762D01*
X47061429Y-152384285D01*
X47013810Y-152289047D01*
X46966190Y-152241428D01*
X46870952Y-152193809D01*
X46537619Y-151812857D02*
X46490000Y-151765238D01*
X46442381Y-151670000D01*
X46442381Y-151431904D01*
X46490000Y-151336666D01*
X46537619Y-151289047D01*
X46632857Y-151241428D01*
X46728095Y-151241428D01*
X46870952Y-151289047D01*
X47442381Y-151860476D01*
X47442381Y-151241428D01*
X53276667Y-149312381D02*
X53610000Y-150312381D01*
X53943334Y-149312381D01*
X54848096Y-150217143D02*
X54800477Y-150264762D01*
X54657620Y-150312381D01*
X54562382Y-150312381D01*
X54419524Y-150264762D01*
X54324286Y-150169524D01*
X54276667Y-150074286D01*
X54229048Y-149883810D01*
X54229048Y-149740952D01*
X54276667Y-149550476D01*
X54324286Y-149455238D01*
X54419524Y-149360000D01*
X54562382Y-149312381D01*
X54657620Y-149312381D01*
X54800477Y-149360000D01*
X54848096Y-149407619D01*
X55848096Y-150217143D02*
X55800477Y-150264762D01*
X55657620Y-150312381D01*
X55562382Y-150312381D01*
X55419524Y-150264762D01*
X55324286Y-150169524D01*
X55276667Y-150074286D01*
X55229048Y-149883810D01*
X55229048Y-149740952D01*
X55276667Y-149550476D01*
X55324286Y-149455238D01*
X55419524Y-149360000D01*
X55562382Y-149312381D01*
X55657620Y-149312381D01*
X55800477Y-149360000D01*
X55848096Y-149407619D01*
X53538571Y-152852381D02*
X53538571Y-151852381D01*
X53776666Y-151852381D01*
X53919524Y-151900000D01*
X54014762Y-151995238D01*
X54062381Y-152090476D01*
X54110000Y-152280952D01*
X54110000Y-152423810D01*
X54062381Y-152614286D01*
X54014762Y-152709524D01*
X53919524Y-152804762D01*
X53776666Y-152852381D01*
X53538571Y-152852381D01*
X54490952Y-152566667D02*
X54967143Y-152566667D01*
X54395714Y-152852381D02*
X54729047Y-151852381D01*
X55062381Y-152852381D01*
X55252857Y-151852381D02*
X55824286Y-151852381D01*
X55538571Y-152852381D02*
X55538571Y-151852381D01*
X53848096Y-154440000D02*
X53752858Y-154392381D01*
X53610001Y-154392381D01*
X53467143Y-154440000D01*
X53371905Y-154535238D01*
X53324286Y-154630476D01*
X53276667Y-154820952D01*
X53276667Y-154963810D01*
X53324286Y-155154286D01*
X53371905Y-155249524D01*
X53467143Y-155344762D01*
X53610001Y-155392381D01*
X53705239Y-155392381D01*
X53848096Y-155344762D01*
X53895715Y-155297143D01*
X53895715Y-154963810D01*
X53705239Y-154963810D01*
X54324286Y-155392381D02*
X54324286Y-154392381D01*
X54895715Y-155392381D01*
X54895715Y-154392381D01*
X55371905Y-155392381D02*
X55371905Y-154392381D01*
X55610000Y-154392381D01*
X55752858Y-154440000D01*
X55848096Y-154535238D01*
X55895715Y-154630476D01*
X55943334Y-154820952D01*
X55943334Y-154963810D01*
X55895715Y-155154286D01*
X55848096Y-155249524D01*
X55752858Y-155344762D01*
X55610000Y-155392381D01*
X55371905Y-155392381D01*
X53467143Y-157646667D02*
X53943334Y-157646667D01*
X53371905Y-157932381D02*
X53705238Y-156932381D01*
X54038572Y-157932381D01*
X54371905Y-157932381D02*
X54371905Y-156932381D01*
X54943334Y-157932381D01*
X54943334Y-156932381D01*
X55276667Y-156932381D02*
X55848096Y-156932381D01*
X55562381Y-157932381D02*
X55562381Y-156932381D01*
X95781905Y-145782381D02*
X95781905Y-144782381D01*
X96162858Y-144782381D01*
X96258096Y-144830000D01*
X96305715Y-144877619D01*
X96353334Y-144972857D01*
X96353334Y-145115714D01*
X96305715Y-145210952D01*
X96258096Y-145258571D01*
X96162858Y-145306190D01*
X95781905Y-145306190D01*
X97305715Y-145782381D02*
X96734286Y-145782381D01*
X97020000Y-145782381D02*
X97020000Y-144782381D01*
X96924762Y-144925238D01*
X96829524Y-145020476D01*
X96734286Y-145068095D01*
X66422710Y-149042381D02*
X66422710Y-148042381D01*
X67470329Y-148947143D02*
X67422710Y-148994762D01*
X67279853Y-149042381D01*
X67184615Y-149042381D01*
X67041757Y-148994762D01*
X66946519Y-148899524D01*
X66898900Y-148804286D01*
X66851281Y-148613810D01*
X66851281Y-148470952D01*
X66898900Y-148280476D01*
X66946519Y-148185238D01*
X67041757Y-148090000D01*
X67184615Y-148042381D01*
X67279853Y-148042381D01*
X67422710Y-148090000D01*
X67470329Y-148137619D01*
X68422710Y-149042381D02*
X67851281Y-149042381D01*
X68136995Y-149042381D02*
X68136995Y-148042381D01*
X68041757Y-148185238D01*
X67946519Y-148280476D01*
X67851281Y-148328095D01*
X97454286Y-137428571D02*
X97597143Y-137476190D01*
X97644762Y-137523810D01*
X97692381Y-137619048D01*
X97692381Y-137761905D01*
X97644762Y-137857143D01*
X97597143Y-137904762D01*
X97501905Y-137952381D01*
X97120952Y-137952381D01*
X97120952Y-136952381D01*
X97454286Y-136952381D01*
X97549524Y-137000000D01*
X97597143Y-137047619D01*
X97644762Y-137142857D01*
X97644762Y-137238095D01*
X97597143Y-137333333D01*
X97549524Y-137380952D01*
X97454286Y-137428571D01*
X97120952Y-137428571D01*
X97978095Y-136952381D02*
X98549524Y-136952381D01*
X98263809Y-137952381D02*
X98263809Y-136952381D01*
X99406667Y-137952381D02*
X98835238Y-137952381D01*
X99120952Y-137952381D02*
X99120952Y-136952381D01*
X99025714Y-137095238D01*
X98930476Y-137190476D01*
X98835238Y-137238095D01*
X93668572Y-133107143D02*
X94811429Y-133107143D01*
X94240000Y-133678571D02*
X94240000Y-132535714D01*
X116261905Y-115352381D02*
X116261905Y-114352381D01*
X116642858Y-114352381D01*
X116738096Y-114400000D01*
X116785715Y-114447619D01*
X116833334Y-114542857D01*
X116833334Y-114685714D01*
X116785715Y-114780952D01*
X116738096Y-114828571D01*
X116642858Y-114876190D01*
X116261905Y-114876190D01*
X117166667Y-114352381D02*
X117833334Y-114352381D01*
X117404762Y-115352381D01*
X49261905Y-115352381D02*
X49261905Y-114352381D01*
X49642858Y-114352381D01*
X49738096Y-114400000D01*
X49785715Y-114447619D01*
X49833334Y-114542857D01*
X49833334Y-114685714D01*
X49785715Y-114780952D01*
X49738096Y-114828571D01*
X49642858Y-114876190D01*
X49261905Y-114876190D01*
X50404762Y-114780952D02*
X50309524Y-114733333D01*
X50261905Y-114685714D01*
X50214286Y-114590476D01*
X50214286Y-114542857D01*
X50261905Y-114447619D01*
X50309524Y-114400000D01*
X50404762Y-114352381D01*
X50595239Y-114352381D01*
X50690477Y-114400000D01*
X50738096Y-114447619D01*
X50785715Y-114542857D01*
X50785715Y-114590476D01*
X50738096Y-114685714D01*
X50690477Y-114733333D01*
X50595239Y-114780952D01*
X50404762Y-114780952D01*
X50309524Y-114828571D01*
X50261905Y-114876190D01*
X50214286Y-114971429D01*
X50214286Y-115161905D01*
X50261905Y-115257143D01*
X50309524Y-115304762D01*
X50404762Y-115352381D01*
X50595239Y-115352381D01*
X50690477Y-115304762D01*
X50738096Y-115257143D01*
X50785715Y-115161905D01*
X50785715Y-114971429D01*
X50738096Y-114876190D01*
X50690477Y-114828571D01*
X50595239Y-114780952D01*
X66317905Y-158948381D02*
X66317905Y-157948381D01*
X66556000Y-157948381D01*
X66698858Y-157996000D01*
X66794096Y-158091238D01*
X66841715Y-158186476D01*
X66889334Y-158376952D01*
X66889334Y-158519810D01*
X66841715Y-158710286D01*
X66794096Y-158805524D01*
X66698858Y-158900762D01*
X66556000Y-158948381D01*
X66317905Y-158948381D01*
X67270286Y-158043619D02*
X67317905Y-157996000D01*
X67413143Y-157948381D01*
X67651239Y-157948381D01*
X67746477Y-157996000D01*
X67794096Y-158043619D01*
X67841715Y-158138857D01*
X67841715Y-158234095D01*
X67794096Y-158376952D01*
X67222667Y-158948381D01*
X67841715Y-158948381D01*
X70223095Y-161107381D02*
X70223095Y-160107381D01*
X70794524Y-161107381D02*
X70365952Y-160535952D01*
X70794524Y-160107381D02*
X70223095Y-160678810D01*
X58852381Y-146788095D02*
X57852381Y-146788095D01*
X57852381Y-146407142D01*
X57900000Y-146311904D01*
X57947619Y-146264285D01*
X58042857Y-146216666D01*
X58185714Y-146216666D01*
X58280952Y-146264285D01*
X58328571Y-146311904D01*
X58376190Y-146407142D01*
X58376190Y-146788095D01*
X57947619Y-145835714D02*
X57900000Y-145788095D01*
X57852381Y-145692857D01*
X57852381Y-145454761D01*
X57900000Y-145359523D01*
X57947619Y-145311904D01*
X58042857Y-145264285D01*
X58138095Y-145264285D01*
X58280952Y-145311904D01*
X58852381Y-145883333D01*
X58852381Y-145264285D01*
X123261905Y-141352381D02*
X123261905Y-140352381D01*
X123642858Y-140352381D01*
X123738096Y-140400000D01*
X123785715Y-140447619D01*
X123833334Y-140542857D01*
X123833334Y-140685714D01*
X123785715Y-140780952D01*
X123738096Y-140828571D01*
X123642858Y-140876190D01*
X123261905Y-140876190D01*
X124309524Y-141352381D02*
X124500000Y-141352381D01*
X124595239Y-141304762D01*
X124642858Y-141257143D01*
X124738096Y-141114286D01*
X124785715Y-140923810D01*
X124785715Y-140542857D01*
X124738096Y-140447619D01*
X124690477Y-140400000D01*
X124595239Y-140352381D01*
X124404762Y-140352381D01*
X124309524Y-140400000D01*
X124261905Y-140447619D01*
X124214286Y-140542857D01*
X124214286Y-140780952D01*
X124261905Y-140876190D01*
X124309524Y-140923810D01*
X124404762Y-140971429D01*
X124595239Y-140971429D01*
X124690477Y-140923810D01*
X124738096Y-140876190D01*
X124785715Y-140780952D01*
X41785714Y-141352381D02*
X41785714Y-140352381D01*
X42166667Y-140352381D01*
X42261905Y-140400000D01*
X42309524Y-140447619D01*
X42357143Y-140542857D01*
X42357143Y-140685714D01*
X42309524Y-140780952D01*
X42261905Y-140828571D01*
X42166667Y-140876190D01*
X41785714Y-140876190D01*
X43309524Y-141352381D02*
X42738095Y-141352381D01*
X43023809Y-141352381D02*
X43023809Y-140352381D01*
X42928571Y-140495238D01*
X42833333Y-140590476D01*
X42738095Y-140638095D01*
X43928571Y-140352381D02*
X44023810Y-140352381D01*
X44119048Y-140400000D01*
X44166667Y-140447619D01*
X44214286Y-140542857D01*
X44261905Y-140733333D01*
X44261905Y-140971429D01*
X44214286Y-141161905D01*
X44166667Y-141257143D01*
X44119048Y-141304762D01*
X44023810Y-141352381D01*
X43928571Y-141352381D01*
X43833333Y-141304762D01*
X43785714Y-141257143D01*
X43738095Y-141161905D01*
X43690476Y-140971429D01*
X43690476Y-140733333D01*
X43738095Y-140542857D01*
X43785714Y-140447619D01*
X43833333Y-140400000D01*
X43928571Y-140352381D01*
X82761905Y-127952381D02*
X82761905Y-126952381D01*
X83142858Y-126952381D01*
X83238096Y-127000000D01*
X83285715Y-127047619D01*
X83333334Y-127142857D01*
X83333334Y-127285714D01*
X83285715Y-127380952D01*
X83238096Y-127428571D01*
X83142858Y-127476190D01*
X82761905Y-127476190D01*
X83666667Y-126952381D02*
X84285715Y-126952381D01*
X83952381Y-127333333D01*
X84095239Y-127333333D01*
X84190477Y-127380952D01*
X84238096Y-127428571D01*
X84285715Y-127523810D01*
X84285715Y-127761905D01*
X84238096Y-127857143D01*
X84190477Y-127904762D01*
X84095239Y-127952381D01*
X83809524Y-127952381D01*
X83714286Y-127904762D01*
X83666667Y-127857143D01*
X122261905Y-127952381D02*
X122261905Y-126952381D01*
X122642858Y-126952381D01*
X122738096Y-127000000D01*
X122785715Y-127047619D01*
X122833334Y-127142857D01*
X122833334Y-127285714D01*
X122785715Y-127380952D01*
X122738096Y-127428571D01*
X122642858Y-127476190D01*
X122261905Y-127476190D01*
X123690477Y-127285714D02*
X123690477Y-127952381D01*
X123452381Y-126904762D02*
X123214286Y-127619048D01*
X123833334Y-127619048D01*
X43261905Y-127952381D02*
X43261905Y-126952381D01*
X43642858Y-126952381D01*
X43738096Y-127000000D01*
X43785715Y-127047619D01*
X43833334Y-127142857D01*
X43833334Y-127285714D01*
X43785715Y-127380952D01*
X43738096Y-127428571D01*
X43642858Y-127476190D01*
X43261905Y-127476190D01*
X44738096Y-126952381D02*
X44261905Y-126952381D01*
X44214286Y-127428571D01*
X44261905Y-127380952D01*
X44357143Y-127333333D01*
X44595239Y-127333333D01*
X44690477Y-127380952D01*
X44738096Y-127428571D01*
X44785715Y-127523810D01*
X44785715Y-127761905D01*
X44738096Y-127857143D01*
X44690477Y-127904762D01*
X44595239Y-127952381D01*
X44357143Y-127952381D01*
X44261905Y-127904762D01*
X44214286Y-127857143D01*
X82761905Y-164452381D02*
X82761905Y-163452381D01*
X83142858Y-163452381D01*
X83238096Y-163500000D01*
X83285715Y-163547619D01*
X83333334Y-163642857D01*
X83333334Y-163785714D01*
X83285715Y-163880952D01*
X83238096Y-163928571D01*
X83142858Y-163976190D01*
X82761905Y-163976190D01*
X84190477Y-163452381D02*
X84000000Y-163452381D01*
X83904762Y-163500000D01*
X83857143Y-163547619D01*
X83761905Y-163690476D01*
X83714286Y-163880952D01*
X83714286Y-164261905D01*
X83761905Y-164357143D01*
X83809524Y-164404762D01*
X83904762Y-164452381D01*
X84095239Y-164452381D01*
X84190477Y-164404762D01*
X84238096Y-164357143D01*
X84285715Y-164261905D01*
X84285715Y-164023810D01*
X84238096Y-163928571D01*
X84190477Y-163880952D01*
X84095239Y-163833333D01*
X83904762Y-163833333D01*
X83809524Y-163880952D01*
X83761905Y-163928571D01*
X83714286Y-164023810D01*
M02*
