M48
;DRILL file {KiCad 4.0.5+dfsg1-4} date Mon May 15 15:44:03 2017
;FORMAT={-:-/ absolute / inch / decimal}
FMAT,2
INCH,TZ
T1C0.031
T2C0.039
T3C0.039
T4C0.040
T5C0.055
T6C0.059
T7C0.138
%
G90
G05
M72
T1
X2.5Y-5.9
X2.5Y-6.
X2.5Y-6.1
X2.5Y-6.2
X2.8Y-5.9
X2.8Y-6.
X2.8Y-6.1
X2.8Y-6.2
T2
X2.25Y-5.9
X2.25Y-6.
X2.25Y-6.1
X2.25Y-6.2
X2.25Y-6.3
X2.25Y-6.4
T3
X2.6Y-6.4
X2.7Y-6.4
T4
X1.6929Y-5.748
X1.9685Y-4.7244
X2.5Y-5.75
X2.6Y-5.75
X4.6063Y-4.7244
X4.8819Y-5.748
T5
X3.1Y-5.95
X3.3Y-5.95
X3.5Y-5.95
X3.7Y-5.95
X3.9Y-5.95
X4.1Y-5.95
X4.3Y-5.95
X4.5Y-5.95
T6
X3.0118Y-5.2362
X3.8185Y-5.2362
T7
X1.7323Y-5.1969
X3.2874Y-5.1969
X3.2874Y-6.6339
X4.8425Y-5.1969
T0
M30
