G04 #@! TF.FileFunction,Copper,L2,Bot,Signal*
%FSLAX46Y46*%
G04 Gerber Fmt 4.6, Leading zero omitted, Abs format (unit mm)*
G04 Created by KiCad (PCBNEW 4.0.5+dfsg1-4) date Tue May 16 10:22:51 2017*
%MOMM*%
%LPD*%
G01*
G04 APERTURE LIST*
%ADD10C,0.100000*%
%ADD11C,1.000000*%
%ADD12R,2.000000X1.700000*%
%ADD13O,2.000000X1.700000*%
%ADD14R,2.100000X3.600000*%
%ADD15O,2.100000X3.600000*%
%ADD16R,1.700000X2.000000*%
%ADD17R,1.600000X2.000000*%
%ADD18C,3.000000*%
%ADD19R,3.000000X3.000000*%
%ADD20R,2.235200X2.235200*%
%ADD21R,1.900000X2.000000*%
%ADD22C,1.900000*%
%ADD23R,1.597660X1.800860*%
%ADD24R,2.032000X2.032000*%
%ADD25O,2.032000X2.032000*%
%ADD26C,7.000000*%
%ADD27C,6.000000*%
%ADD28O,2.300000X1.600000*%
%ADD29R,1.699260X3.299460*%
%ADD30C,1.000000*%
%ADD31C,0.400000*%
%ADD32C,0.254000*%
G04 APERTURE END LIST*
D10*
D11*
X124459762Y-124857143D02*
X120650238Y-124857143D01*
X122555000Y-126761905D02*
X122555000Y-122952381D01*
X45719762Y-124857143D02*
X41910238Y-124857143D01*
D12*
X57150000Y-157480000D03*
D13*
X57150000Y-154940000D03*
X57150000Y-152400000D03*
X57150000Y-149860000D03*
X57150000Y-160020000D03*
X57150000Y-162560000D03*
D14*
X78740000Y-153150000D03*
D15*
X83820000Y-153150000D03*
X88900000Y-153150000D03*
X93980000Y-153150000D03*
X99060000Y-153150000D03*
X104140000Y-153150000D03*
X109220000Y-153150000D03*
X114300000Y-153150000D03*
D16*
X82550000Y-162770000D03*
X82550000Y-158770000D03*
X90170000Y-162770000D03*
X90170000Y-158770000D03*
D17*
X86360000Y-162770000D03*
X86360000Y-158770000D03*
X93980000Y-162770000D03*
X93980000Y-158770000D03*
X101600000Y-162770000D03*
X101600000Y-158770000D03*
X109220000Y-162770000D03*
X109220000Y-158770000D03*
X53340000Y-150400000D03*
X53340000Y-154400000D03*
D16*
X97790000Y-162770000D03*
X97790000Y-158770000D03*
X105410000Y-162770000D03*
X105410000Y-158770000D03*
X60325000Y-159480000D03*
X60325000Y-155480000D03*
D12*
X70580000Y-143510000D03*
X66580000Y-143510000D03*
D18*
X76500000Y-133000000D03*
D19*
X96990000Y-133000000D03*
D20*
X117000000Y-120000000D03*
X50000000Y-120000000D03*
D21*
X68580000Y-162560000D03*
D22*
X66040000Y-162560000D03*
D23*
X65890140Y-160020000D03*
X68729860Y-160020000D03*
D24*
X63500000Y-146050000D03*
D25*
X66040000Y-146050000D03*
D20*
X124000000Y-146000000D03*
X43000000Y-146000000D03*
D26*
X83500000Y-132000000D03*
D27*
X123000000Y-132000000D03*
X44000000Y-132000000D03*
D26*
X76000000Y-167500000D03*
D28*
X63500000Y-149860000D03*
X63500000Y-152400000D03*
X63500000Y-154940000D03*
X63500000Y-157480000D03*
X71120000Y-157480000D03*
X71120000Y-154940000D03*
X71120000Y-152400000D03*
X71120000Y-149860000D03*
D29*
X106680000Y-141250820D03*
X106680000Y-135749180D03*
D17*
X48260000Y-150495000D03*
X48260000Y-154495000D03*
D30*
X48260000Y-159385000D03*
X48269438Y-145741697D03*
D31*
X48260000Y-159385000D02*
X48260000Y-154495000D01*
X68580000Y-162560000D02*
X68580000Y-157925000D01*
X68580000Y-157925000D02*
X68135000Y-157480000D01*
X109430000Y-158770000D02*
X109220000Y-158770000D01*
X101600000Y-156440000D02*
X101600000Y-158770000D01*
X104140000Y-153150000D02*
X104140000Y-153900000D01*
X104140000Y-153900000D02*
X101600000Y-156440000D01*
X86360000Y-156440000D02*
X86360000Y-158770000D01*
X83820000Y-153150000D02*
X83820000Y-153900000D01*
X83820000Y-153900000D02*
X86360000Y-156440000D01*
X58850000Y-157480000D02*
X58850000Y-156640000D01*
X58850000Y-156640000D02*
X57150000Y-154940000D01*
X93980000Y-153150000D02*
X93980000Y-158770000D01*
X68135000Y-157480000D02*
X68135000Y-156210000D01*
X68135000Y-154114600D02*
X68580000Y-153670000D01*
X68135000Y-156210000D02*
X68135000Y-154114600D01*
X58850000Y-157480000D02*
X63500000Y-157480000D01*
X63500000Y-157480000D02*
X68135000Y-157480000D01*
X78740000Y-153150000D02*
X78740000Y-155350000D01*
X79080000Y-155690000D02*
X79080000Y-157480000D01*
X78740000Y-155350000D02*
X79080000Y-155690000D01*
X71120000Y-157480000D02*
X79080000Y-157480000D01*
X79080000Y-157480000D02*
X80370000Y-158770000D01*
X71120000Y-157480000D02*
X71470000Y-157480000D01*
X86360000Y-162770000D02*
X86360000Y-162247665D01*
X80370000Y-158770000D02*
X82550000Y-158770000D01*
X78740000Y-153150000D02*
X78740000Y-153900000D01*
X78740000Y-153900000D02*
X78770000Y-153930000D01*
X82550000Y-158770000D02*
X83231756Y-158770000D01*
X83231756Y-158770000D02*
X86360000Y-161898244D01*
X86360000Y-161898244D02*
X86360000Y-162770000D01*
X82550000Y-158620000D02*
X82550000Y-158770000D01*
X71120000Y-154940000D02*
X72658555Y-154940000D01*
X72658555Y-154940000D02*
X75313223Y-152285332D01*
X75313223Y-152285332D02*
X75313223Y-147340121D01*
X75313223Y-147340121D02*
X76279516Y-146373828D01*
X76279516Y-146373828D02*
X87953828Y-146373828D01*
X87953828Y-146373828D02*
X88900000Y-147320000D01*
X88900000Y-147320000D02*
X88900000Y-150950000D01*
X88900000Y-150950000D02*
X88900000Y-153150000D01*
X90170000Y-158770000D02*
X90854093Y-158770000D01*
X93980000Y-161895907D02*
X93980000Y-162770000D01*
X90854093Y-158770000D02*
X93980000Y-161895907D01*
X88900000Y-155690000D02*
X90170000Y-156960000D01*
X90170000Y-156960000D02*
X90170000Y-158770000D01*
X88900000Y-153150000D02*
X88900000Y-155690000D01*
X99060000Y-153150000D02*
X99060000Y-147144484D01*
X99060000Y-147144484D02*
X97276805Y-145361289D01*
X97276805Y-145361289D02*
X75994159Y-145361289D01*
X75994159Y-145361289D02*
X74340796Y-147014652D01*
X74340796Y-147014652D02*
X74340796Y-150729204D01*
X74340796Y-150729204D02*
X72670000Y-152400000D01*
X72670000Y-152400000D02*
X71120000Y-152400000D01*
X101600000Y-162770000D02*
X101600000Y-162033282D01*
X101600000Y-162033282D02*
X98336718Y-158770000D01*
X98336718Y-158770000D02*
X97790000Y-158770000D01*
X99060000Y-155690000D02*
X97790000Y-156960000D01*
X97790000Y-156960000D02*
X97790000Y-158770000D01*
X99060000Y-153150000D02*
X99060000Y-155690000D01*
X109220000Y-153150000D02*
X109220000Y-145720000D01*
X109220000Y-145720000D02*
X107852706Y-144352706D01*
X107852706Y-144352706D02*
X75787851Y-144352706D01*
X75787851Y-144352706D02*
X73492134Y-146648423D01*
X73492134Y-146648423D02*
X73492134Y-150027866D01*
X73492134Y-150027866D02*
X72390000Y-151130000D01*
X72390000Y-151130000D02*
X67932000Y-151130000D01*
X67932000Y-151130000D02*
X66662000Y-152400000D01*
X66662000Y-152400000D02*
X63500000Y-152400000D01*
X105410000Y-158770000D02*
X105979498Y-158770000D01*
X105979498Y-158770000D02*
X109220000Y-162010502D01*
X109220000Y-162010502D02*
X109220000Y-162770000D01*
X109220000Y-153150000D02*
X105410000Y-156960000D01*
X105410000Y-156960000D02*
X105410000Y-158770000D01*
X48269438Y-146165961D02*
X48269438Y-145741697D01*
X48269438Y-149265562D02*
X48269438Y-146165961D01*
X48260000Y-149275000D02*
X48269438Y-149265562D01*
X48260000Y-149275000D02*
X48260000Y-150495000D01*
X82550000Y-162770000D02*
X82550000Y-164715712D01*
X82550000Y-164715712D02*
X84204288Y-166370000D01*
X84204288Y-166370000D02*
X87400000Y-166370000D01*
X87400000Y-166370000D02*
X90170000Y-166370000D01*
X106680000Y-140250060D02*
X106680000Y-141901060D01*
X90170000Y-162770000D02*
X90170000Y-166370000D01*
X90170000Y-166370000D02*
X97790000Y-166370000D01*
X97790000Y-166370000D02*
X105410000Y-166370000D01*
X97790000Y-162770000D02*
X97790000Y-166370000D01*
X105410000Y-166370000D02*
X110490000Y-166370000D01*
X105410000Y-162770000D02*
X105410000Y-166370000D01*
X110490000Y-166370000D02*
X111690932Y-165169068D01*
X111690932Y-165169068D02*
X111690932Y-145161982D01*
X111690932Y-145161982D02*
X108430010Y-141901060D01*
X108430010Y-141901060D02*
X106680000Y-141901060D01*
X70938940Y-141901060D02*
X97790000Y-141901060D01*
X96990000Y-134900000D02*
X97790000Y-135700000D01*
X97790000Y-141901060D02*
X103553049Y-141901060D01*
X96990000Y-133000000D02*
X96990000Y-134900000D01*
X97790000Y-135700000D02*
X97790000Y-141901060D01*
X70580000Y-143510000D02*
X70580000Y-142260000D01*
X70580000Y-142260000D02*
X70938940Y-141901060D01*
X103553049Y-141901060D02*
X106680000Y-141901060D01*
X48260000Y-149275000D02*
X53340000Y-149275000D01*
X53340000Y-149275000D02*
X56565000Y-149275000D01*
X53340000Y-150400000D02*
X53340000Y-149275000D01*
X56565000Y-149275000D02*
X57150000Y-149860000D01*
X71120000Y-145992311D02*
X70580000Y-145452311D01*
X70580000Y-145452311D02*
X70580000Y-143510000D01*
X71120000Y-149860000D02*
X71120000Y-145992311D01*
X67945000Y-149860000D02*
X69000000Y-149860000D01*
X69000000Y-149860000D02*
X71120000Y-149860000D01*
X67719000Y-149860000D02*
X67945000Y-149860000D01*
X58420000Y-149860000D02*
X59690000Y-151130000D01*
X59690000Y-151130000D02*
X66449000Y-151130000D01*
X57150000Y-149860000D02*
X58420000Y-149860000D01*
X66449000Y-151130000D02*
X67719000Y-149860000D01*
X65890140Y-160020000D02*
X65890140Y-162410140D01*
X65890140Y-162410140D02*
X66040000Y-162560000D01*
X65890140Y-160020000D02*
X63500000Y-160020000D01*
X63500000Y-160020000D02*
X62960000Y-159480000D01*
X60325000Y-159480000D02*
X62960000Y-159480000D01*
X62960000Y-159480000D02*
X63924000Y-160444000D01*
X63924000Y-160444000D02*
X66040000Y-162560000D01*
X57150000Y-152400000D02*
X60230000Y-155480000D01*
X60230000Y-155480000D02*
X60325000Y-155480000D01*
X60325000Y-155330000D02*
X60325000Y-155480000D01*
X62960000Y-155480000D02*
X63500000Y-154940000D01*
X60325000Y-155480000D02*
X62960000Y-155480000D01*
X63500000Y-149860000D02*
X63850000Y-149860000D01*
X63850000Y-149860000D02*
X66040000Y-147670000D01*
X66040000Y-147670000D02*
X66040000Y-147486840D01*
X66040000Y-147486840D02*
X66040000Y-146050000D01*
X66040000Y-146050000D02*
X66040000Y-144050000D01*
X66040000Y-144050000D02*
X66580000Y-143510000D01*
X63425000Y-149860000D02*
X63500000Y-149860000D01*
X57150000Y-160020000D02*
X57150000Y-162560000D01*
X57150000Y-157480000D02*
X57150000Y-160020000D01*
D11*
X106680000Y-135098940D02*
X106680000Y-136749940D01*
X109901060Y-135098940D02*
X106680000Y-135098940D01*
X117000000Y-120000000D02*
X117000000Y-121517600D01*
X117000000Y-121517600D02*
X119000000Y-123517600D01*
X119000000Y-123517600D02*
X119000000Y-125000000D01*
X119000000Y-139482400D02*
X119000000Y-132000000D01*
X124000000Y-146000000D02*
X124000000Y-144482400D01*
X124000000Y-144482400D02*
X119000000Y-139482400D01*
X119000000Y-132000000D02*
X123000000Y-132000000D01*
X119000000Y-125000000D02*
X119000000Y-132000000D01*
X109901060Y-135098940D02*
X113000000Y-132000000D01*
X113000000Y-132000000D02*
X119000000Y-132000000D01*
D32*
G36*
X115234960Y-118882400D02*
X115234960Y-121117600D01*
X115279238Y-121352917D01*
X115418310Y-121569041D01*
X115630510Y-121714031D01*
X115882400Y-121765040D01*
X115914219Y-121765040D01*
X115951397Y-121951946D01*
X116197434Y-122320166D01*
X117865000Y-123987732D01*
X117865000Y-130865000D01*
X113000000Y-130865000D01*
X112565654Y-130951397D01*
X112283794Y-131139730D01*
X112197434Y-131197434D01*
X109430928Y-133963940D01*
X108151572Y-133963940D01*
X108132792Y-133864133D01*
X107993720Y-133648009D01*
X107781520Y-133503019D01*
X107529630Y-133452010D01*
X105830370Y-133452010D01*
X105595053Y-133496288D01*
X105378929Y-133635360D01*
X105233939Y-133847560D01*
X105182930Y-134099450D01*
X105182930Y-137398910D01*
X105227208Y-137634227D01*
X105366280Y-137850351D01*
X105578480Y-137995341D01*
X105830370Y-138046350D01*
X107529630Y-138046350D01*
X107764947Y-138002072D01*
X107981071Y-137863000D01*
X108126061Y-137650800D01*
X108177070Y-137398910D01*
X108177070Y-136233940D01*
X109901060Y-136233940D01*
X110335406Y-136147543D01*
X110703626Y-135901506D01*
X113470132Y-133135000D01*
X117865000Y-133135000D01*
X117865000Y-139482400D01*
X117951397Y-139916746D01*
X117960600Y-139930519D01*
X118197434Y-140284966D01*
X122390294Y-144477826D01*
X122285969Y-144630510D01*
X122234960Y-144882400D01*
X122234960Y-147117600D01*
X122279238Y-147352917D01*
X122418310Y-147569041D01*
X122630510Y-147714031D01*
X122882400Y-147765040D01*
X125117600Y-147765040D01*
X125290000Y-147732601D01*
X125290000Y-162930069D01*
X125140938Y-163679456D01*
X117679456Y-171140938D01*
X116930069Y-171290000D01*
X77657798Y-171290000D01*
X78310145Y-171026750D01*
X78374238Y-170983924D01*
X78777707Y-170457312D01*
X76000000Y-167679605D01*
X73222293Y-170457312D01*
X73625762Y-170983924D01*
X74346001Y-171290000D01*
X50069931Y-171290000D01*
X49320544Y-171140938D01*
X46464272Y-168284666D01*
X71857654Y-168284666D01*
X72473250Y-169810145D01*
X72516076Y-169874238D01*
X73042688Y-170277707D01*
X75820395Y-167500000D01*
X76179605Y-167500000D01*
X78957312Y-170277707D01*
X79483924Y-169874238D01*
X80127307Y-168360270D01*
X80142346Y-166715334D01*
X79526750Y-165189855D01*
X79483924Y-165125762D01*
X78957312Y-164722293D01*
X76179605Y-167500000D01*
X75820395Y-167500000D01*
X73042688Y-164722293D01*
X72516076Y-165125762D01*
X71872693Y-166639730D01*
X71857654Y-168284666D01*
X46464272Y-168284666D01*
X42722294Y-164542688D01*
X73222293Y-164542688D01*
X76000000Y-167320395D01*
X78777707Y-164542688D01*
X78374238Y-164016076D01*
X76860270Y-163372693D01*
X75215334Y-163357654D01*
X73689855Y-163973250D01*
X73625762Y-164016076D01*
X73222293Y-164542688D01*
X42722294Y-164542688D01*
X41859062Y-163679456D01*
X41710000Y-162930069D01*
X41710000Y-154780750D01*
X46825000Y-154780750D01*
X46825000Y-155621309D01*
X46921673Y-155854698D01*
X47100301Y-156033327D01*
X47333690Y-156130000D01*
X47974250Y-156130000D01*
X48133000Y-155971250D01*
X48133000Y-154622000D01*
X48387000Y-154622000D01*
X48387000Y-155971250D01*
X48545750Y-156130000D01*
X49186310Y-156130000D01*
X49419699Y-156033327D01*
X49598327Y-155854698D01*
X49695000Y-155621309D01*
X49695000Y-154780750D01*
X49600000Y-154685750D01*
X51905000Y-154685750D01*
X51905000Y-155526309D01*
X52001673Y-155759698D01*
X52180301Y-155938327D01*
X52413690Y-156035000D01*
X53054250Y-156035000D01*
X53213000Y-155876250D01*
X53213000Y-154527000D01*
X53467000Y-154527000D01*
X53467000Y-155876250D01*
X53625750Y-156035000D01*
X54266310Y-156035000D01*
X54499699Y-155938327D01*
X54678327Y-155759698D01*
X54775000Y-155526309D01*
X54775000Y-154685750D01*
X54616250Y-154527000D01*
X53467000Y-154527000D01*
X53213000Y-154527000D01*
X52063750Y-154527000D01*
X51905000Y-154685750D01*
X49600000Y-154685750D01*
X49536250Y-154622000D01*
X48387000Y-154622000D01*
X48133000Y-154622000D01*
X46983750Y-154622000D01*
X46825000Y-154780750D01*
X41710000Y-154780750D01*
X41710000Y-153368691D01*
X46825000Y-153368691D01*
X46825000Y-154209250D01*
X46983750Y-154368000D01*
X48133000Y-154368000D01*
X48133000Y-153018750D01*
X48387000Y-153018750D01*
X48387000Y-154368000D01*
X49536250Y-154368000D01*
X49695000Y-154209250D01*
X49695000Y-153368691D01*
X49655650Y-153273691D01*
X51905000Y-153273691D01*
X51905000Y-154114250D01*
X52063750Y-154273000D01*
X53213000Y-154273000D01*
X53213000Y-152923750D01*
X53467000Y-152923750D01*
X53467000Y-154273000D01*
X54616250Y-154273000D01*
X54775000Y-154114250D01*
X54775000Y-153273691D01*
X54678327Y-153040302D01*
X54499699Y-152861673D01*
X54266310Y-152765000D01*
X53625750Y-152765000D01*
X53467000Y-152923750D01*
X53213000Y-152923750D01*
X53054250Y-152765000D01*
X52413690Y-152765000D01*
X52180301Y-152861673D01*
X52001673Y-153040302D01*
X51905000Y-153273691D01*
X49655650Y-153273691D01*
X49598327Y-153135302D01*
X49419699Y-152956673D01*
X49186310Y-152860000D01*
X48545750Y-152860000D01*
X48387000Y-153018750D01*
X48133000Y-153018750D01*
X47974250Y-152860000D01*
X47333690Y-152860000D01*
X47100301Y-152956673D01*
X46921673Y-153135302D01*
X46825000Y-153368691D01*
X41710000Y-153368691D01*
X41710000Y-149495000D01*
X46812560Y-149495000D01*
X46812560Y-151495000D01*
X46856838Y-151730317D01*
X46995910Y-151946441D01*
X47208110Y-152091431D01*
X47460000Y-152142440D01*
X49060000Y-152142440D01*
X49295317Y-152098162D01*
X49511441Y-151959090D01*
X49656431Y-151746890D01*
X49707440Y-151495000D01*
X49707440Y-150110000D01*
X51892560Y-150110000D01*
X51892560Y-151400000D01*
X51936838Y-151635317D01*
X52075910Y-151851441D01*
X52288110Y-151996431D01*
X52540000Y-152047440D01*
X54140000Y-152047440D01*
X54375317Y-152003162D01*
X54591441Y-151864090D01*
X54736431Y-151651890D01*
X54787440Y-151400000D01*
X54787440Y-150110000D01*
X55532696Y-150110000D01*
X55596007Y-150428285D01*
X55917914Y-150910054D01*
X56247087Y-151130000D01*
X55917914Y-151349946D01*
X55596007Y-151831715D01*
X55482968Y-152400000D01*
X55596007Y-152968285D01*
X55917914Y-153450054D01*
X56239085Y-153664653D01*
X55811336Y-154047955D01*
X55560447Y-154570740D01*
X55558524Y-154583110D01*
X55679845Y-154813000D01*
X57023000Y-154813000D01*
X57023000Y-154793000D01*
X57277000Y-154793000D01*
X57277000Y-154813000D01*
X57297000Y-154813000D01*
X57297000Y-155067000D01*
X57277000Y-155067000D01*
X57277000Y-155087000D01*
X57023000Y-155087000D01*
X57023000Y-155067000D01*
X55679845Y-155067000D01*
X55558524Y-155296890D01*
X55560447Y-155309260D01*
X55811336Y-155832045D01*
X56008927Y-156009105D01*
X55914683Y-156026838D01*
X55698559Y-156165910D01*
X55553569Y-156378110D01*
X55502560Y-156630000D01*
X55502560Y-158330000D01*
X55546838Y-158565317D01*
X55685910Y-158781441D01*
X55898110Y-158926431D01*
X55963286Y-158939629D01*
X55917914Y-158969946D01*
X55596007Y-159451715D01*
X55482968Y-160020000D01*
X55596007Y-160588285D01*
X55917914Y-161070054D01*
X56247087Y-161290000D01*
X55917914Y-161509946D01*
X55596007Y-161991715D01*
X55482968Y-162560000D01*
X55596007Y-163128285D01*
X55917914Y-163610054D01*
X56399683Y-163931961D01*
X56967968Y-164045000D01*
X57332032Y-164045000D01*
X57900317Y-163931961D01*
X58382086Y-163610054D01*
X58703993Y-163128285D01*
X58817032Y-162560000D01*
X58703993Y-161991715D01*
X58382086Y-161509946D01*
X58052913Y-161290000D01*
X58382086Y-161070054D01*
X58703993Y-160588285D01*
X58817032Y-160020000D01*
X58703993Y-159451715D01*
X58382086Y-158969946D01*
X58339841Y-158941719D01*
X58385317Y-158933162D01*
X58601441Y-158794090D01*
X58746431Y-158581890D01*
X58767064Y-158480000D01*
X58827560Y-158480000D01*
X58827560Y-160480000D01*
X58871838Y-160715317D01*
X59010910Y-160931441D01*
X59223110Y-161076431D01*
X59475000Y-161127440D01*
X61175000Y-161127440D01*
X61410317Y-161083162D01*
X61626441Y-160944090D01*
X61771431Y-160731890D01*
X61822440Y-160480000D01*
X61822440Y-160315000D01*
X62614132Y-160315000D01*
X64480860Y-162181728D01*
X64455276Y-162243341D01*
X64454725Y-162873893D01*
X64695519Y-163456657D01*
X65140997Y-163902914D01*
X65723341Y-164144724D01*
X66353893Y-164145275D01*
X66936657Y-163904481D01*
X67041867Y-163799455D01*
X67091673Y-163919698D01*
X67270301Y-164098327D01*
X67503690Y-164195000D01*
X68294250Y-164195000D01*
X68453000Y-164036250D01*
X68453000Y-162687000D01*
X68707000Y-162687000D01*
X68707000Y-164036250D01*
X68865750Y-164195000D01*
X69656310Y-164195000D01*
X69889699Y-164098327D01*
X70068327Y-163919698D01*
X70165000Y-163686309D01*
X70165000Y-162845750D01*
X70006250Y-162687000D01*
X68707000Y-162687000D01*
X68453000Y-162687000D01*
X68433000Y-162687000D01*
X68433000Y-162433000D01*
X68453000Y-162433000D01*
X68453000Y-162413000D01*
X68707000Y-162413000D01*
X68707000Y-162433000D01*
X70006250Y-162433000D01*
X70165000Y-162274250D01*
X70165000Y-161433691D01*
X70084205Y-161238634D01*
X70163690Y-161046740D01*
X70163690Y-160305750D01*
X70004940Y-160147000D01*
X68856860Y-160147000D01*
X68856860Y-160167000D01*
X68602860Y-160167000D01*
X68602860Y-160147000D01*
X68582860Y-160147000D01*
X68582860Y-159893000D01*
X68602860Y-159893000D01*
X68602860Y-158643320D01*
X68444110Y-158484570D01*
X67804721Y-158484570D01*
X67571332Y-158581243D01*
X67392703Y-158759871D01*
X67307454Y-158965681D01*
X67292132Y-158884253D01*
X67153060Y-158668129D01*
X66940860Y-158523139D01*
X66688970Y-158472130D01*
X65091310Y-158472130D01*
X64855993Y-158516408D01*
X64655136Y-158645656D01*
X64954500Y-158404896D01*
X65224367Y-157911819D01*
X65241904Y-157829039D01*
X65119915Y-157607000D01*
X63627000Y-157607000D01*
X63627000Y-157627000D01*
X63373000Y-157627000D01*
X63373000Y-157607000D01*
X61880085Y-157607000D01*
X61758096Y-157829039D01*
X61775633Y-157911819D01*
X62045500Y-158404896D01*
X62344048Y-158645000D01*
X61822440Y-158645000D01*
X61822440Y-158480000D01*
X61778162Y-158244683D01*
X61639090Y-158028559D01*
X61426890Y-157883569D01*
X61175000Y-157832560D01*
X59475000Y-157832560D01*
X59239683Y-157876838D01*
X59023559Y-158015910D01*
X58878569Y-158228110D01*
X58827560Y-158480000D01*
X58767064Y-158480000D01*
X58797440Y-158330000D01*
X58797440Y-156630000D01*
X58753162Y-156394683D01*
X58614090Y-156178559D01*
X58401890Y-156033569D01*
X58289231Y-156010755D01*
X58488664Y-155832045D01*
X58739553Y-155309260D01*
X58741476Y-155296890D01*
X58620156Y-155067002D01*
X58636134Y-155067002D01*
X58827560Y-155258428D01*
X58827560Y-156480000D01*
X58871838Y-156715317D01*
X59010910Y-156931441D01*
X59223110Y-157076431D01*
X59475000Y-157127440D01*
X61175000Y-157127440D01*
X61410317Y-157083162D01*
X61626441Y-156944090D01*
X61771431Y-156731890D01*
X61822440Y-156480000D01*
X61822440Y-156315000D01*
X62344048Y-156315000D01*
X62045500Y-156555104D01*
X61775633Y-157048181D01*
X61758096Y-157130961D01*
X61880085Y-157353000D01*
X63373000Y-157353000D01*
X63373000Y-157333000D01*
X63627000Y-157333000D01*
X63627000Y-157353000D01*
X65119915Y-157353000D01*
X65241904Y-157130961D01*
X65224367Y-157048181D01*
X64954500Y-156555104D01*
X64521849Y-156207149D01*
X64899668Y-155954698D01*
X65210737Y-155489151D01*
X65319970Y-154940000D01*
X65210737Y-154390849D01*
X64899668Y-153925302D01*
X64517582Y-153670000D01*
X64899668Y-153414698D01*
X65019739Y-153235000D01*
X66662000Y-153235000D01*
X66981541Y-153171439D01*
X67252434Y-152990434D01*
X68277868Y-151965000D01*
X69386557Y-151965000D01*
X69300030Y-152400000D01*
X69409263Y-152949151D01*
X69720332Y-153414698D01*
X70102418Y-153670000D01*
X69720332Y-153925302D01*
X69409263Y-154390849D01*
X69300030Y-154940000D01*
X69409263Y-155489151D01*
X69720332Y-155954698D01*
X70102418Y-156210000D01*
X69720332Y-156465302D01*
X69409263Y-156930849D01*
X69300030Y-157480000D01*
X69409263Y-158029151D01*
X69720332Y-158494698D01*
X69787010Y-158539251D01*
X69654999Y-158484570D01*
X69015610Y-158484570D01*
X68856860Y-158643320D01*
X68856860Y-159893000D01*
X70004940Y-159893000D01*
X70163690Y-159734250D01*
X70163690Y-158993260D01*
X70067017Y-158759871D01*
X69965981Y-158658836D01*
X70185879Y-158805767D01*
X70735030Y-158915000D01*
X71504970Y-158915000D01*
X72054121Y-158805767D01*
X72519668Y-158494698D01*
X72639739Y-158315000D01*
X78734132Y-158315000D01*
X79779565Y-159360434D01*
X79883029Y-159429566D01*
X80050459Y-159541439D01*
X80370000Y-159605000D01*
X81052560Y-159605000D01*
X81052560Y-159770000D01*
X81096838Y-160005317D01*
X81235910Y-160221441D01*
X81448110Y-160366431D01*
X81700000Y-160417440D01*
X83400000Y-160417440D01*
X83635317Y-160373162D01*
X83646715Y-160365827D01*
X84935855Y-161654967D01*
X84912560Y-161770000D01*
X84912560Y-163770000D01*
X84956838Y-164005317D01*
X85095910Y-164221441D01*
X85308110Y-164366431D01*
X85560000Y-164417440D01*
X87160000Y-164417440D01*
X87395317Y-164373162D01*
X87611441Y-164234090D01*
X87756431Y-164021890D01*
X87807440Y-163770000D01*
X87807440Y-161770000D01*
X87763162Y-161534683D01*
X87624090Y-161318559D01*
X87411890Y-161173569D01*
X87160000Y-161122560D01*
X86765184Y-161122560D01*
X86047624Y-160405000D01*
X86074250Y-160405000D01*
X86233000Y-160246250D01*
X86233000Y-158897000D01*
X86487000Y-158897000D01*
X86487000Y-160246250D01*
X86645750Y-160405000D01*
X87286310Y-160405000D01*
X87519699Y-160308327D01*
X87698327Y-160129698D01*
X87795000Y-159896309D01*
X87795000Y-159055750D01*
X87636250Y-158897000D01*
X86487000Y-158897000D01*
X86233000Y-158897000D01*
X85083750Y-158897000D01*
X84925000Y-159055750D01*
X84925000Y-159282376D01*
X84047440Y-158404816D01*
X84047440Y-157770000D01*
X84023674Y-157643691D01*
X84925000Y-157643691D01*
X84925000Y-158484250D01*
X85083750Y-158643000D01*
X86233000Y-158643000D01*
X86233000Y-157293750D01*
X86487000Y-157293750D01*
X86487000Y-158643000D01*
X87636250Y-158643000D01*
X87795000Y-158484250D01*
X87795000Y-157643691D01*
X87698327Y-157410302D01*
X87519699Y-157231673D01*
X87286310Y-157135000D01*
X86645750Y-157135000D01*
X86487000Y-157293750D01*
X86233000Y-157293750D01*
X86074250Y-157135000D01*
X85433690Y-157135000D01*
X85200301Y-157231673D01*
X85021673Y-157410302D01*
X84925000Y-157643691D01*
X84023674Y-157643691D01*
X84003162Y-157534683D01*
X83864090Y-157318559D01*
X83651890Y-157173569D01*
X83400000Y-157122560D01*
X81700000Y-157122560D01*
X81464683Y-157166838D01*
X81248559Y-157305910D01*
X81103569Y-157518110D01*
X81052560Y-157770000D01*
X81052560Y-157935000D01*
X80715869Y-157935000D01*
X79915000Y-157134132D01*
X79915000Y-155690000D01*
X79903603Y-155632704D01*
X79892743Y-155578107D01*
X80025317Y-155553162D01*
X80241441Y-155414090D01*
X80386431Y-155201890D01*
X80437440Y-154950000D01*
X80437440Y-153277000D01*
X82135000Y-153277000D01*
X82135000Y-154027000D01*
X82311864Y-154662154D01*
X82718328Y-155181277D01*
X83292511Y-155505337D01*
X83431721Y-155539654D01*
X83693000Y-155420957D01*
X83693000Y-153277000D01*
X83947000Y-153277000D01*
X83947000Y-155420957D01*
X84208279Y-155539654D01*
X84347489Y-155505337D01*
X84921672Y-155181277D01*
X85328136Y-154662154D01*
X85505000Y-154027000D01*
X85505000Y-153277000D01*
X83947000Y-153277000D01*
X83693000Y-153277000D01*
X82135000Y-153277000D01*
X80437440Y-153277000D01*
X80437440Y-152273000D01*
X82135000Y-152273000D01*
X82135000Y-153023000D01*
X83693000Y-153023000D01*
X83693000Y-150879043D01*
X83947000Y-150879043D01*
X83947000Y-153023000D01*
X85505000Y-153023000D01*
X85505000Y-152273000D01*
X85328136Y-151637846D01*
X84921672Y-151118723D01*
X84347489Y-150794663D01*
X84208279Y-150760346D01*
X83947000Y-150879043D01*
X83693000Y-150879043D01*
X83431721Y-150760346D01*
X83292511Y-150794663D01*
X82718328Y-151118723D01*
X82311864Y-151637846D01*
X82135000Y-152273000D01*
X80437440Y-152273000D01*
X80437440Y-151350000D01*
X80393162Y-151114683D01*
X80254090Y-150898559D01*
X80041890Y-150753569D01*
X79790000Y-150702560D01*
X77690000Y-150702560D01*
X77454683Y-150746838D01*
X77238559Y-150885910D01*
X77093569Y-151098110D01*
X77042560Y-151350000D01*
X77042560Y-154950000D01*
X77086838Y-155185317D01*
X77225910Y-155401441D01*
X77438110Y-155546431D01*
X77690000Y-155597440D01*
X77954219Y-155597440D01*
X77968561Y-155669541D01*
X78077143Y-155832045D01*
X78149566Y-155940434D01*
X78245000Y-156035868D01*
X78245000Y-156645000D01*
X72639739Y-156645000D01*
X72519668Y-156465302D01*
X72137582Y-156210000D01*
X72519668Y-155954698D01*
X72639739Y-155775000D01*
X72658555Y-155775000D01*
X72978096Y-155711439D01*
X73248989Y-155530434D01*
X75903657Y-152875767D01*
X76008044Y-152719540D01*
X76084662Y-152604873D01*
X76148223Y-152285332D01*
X76148223Y-147685989D01*
X76625384Y-147208828D01*
X87607960Y-147208828D01*
X88065000Y-147665868D01*
X88065000Y-150922632D01*
X87708525Y-151160821D01*
X87343263Y-151707474D01*
X87215000Y-152352296D01*
X87215000Y-153947704D01*
X87343263Y-154592526D01*
X87708525Y-155139179D01*
X88065000Y-155377368D01*
X88065000Y-155690000D01*
X88128561Y-156009541D01*
X88268533Y-156219024D01*
X88309566Y-156280434D01*
X89178346Y-157149214D01*
X89084683Y-157166838D01*
X88868559Y-157305910D01*
X88723569Y-157518110D01*
X88672560Y-157770000D01*
X88672560Y-159770000D01*
X88716838Y-160005317D01*
X88855910Y-160221441D01*
X89068110Y-160366431D01*
X89320000Y-160417440D01*
X91020000Y-160417440D01*
X91255317Y-160373162D01*
X91268137Y-160364912D01*
X92556248Y-161653023D01*
X92532560Y-161770000D01*
X92532560Y-163770000D01*
X92576838Y-164005317D01*
X92715910Y-164221441D01*
X92928110Y-164366431D01*
X93180000Y-164417440D01*
X94780000Y-164417440D01*
X95015317Y-164373162D01*
X95231441Y-164234090D01*
X95376431Y-164021890D01*
X95427440Y-163770000D01*
X95427440Y-161770000D01*
X95383162Y-161534683D01*
X95244090Y-161318559D01*
X95031890Y-161173569D01*
X94780000Y-161122560D01*
X94387521Y-161122560D01*
X93669961Y-160405000D01*
X93694250Y-160405000D01*
X93853000Y-160246250D01*
X93853000Y-158897000D01*
X94107000Y-158897000D01*
X94107000Y-160246250D01*
X94265750Y-160405000D01*
X94906310Y-160405000D01*
X95139699Y-160308327D01*
X95318327Y-160129698D01*
X95415000Y-159896309D01*
X95415000Y-159055750D01*
X95256250Y-158897000D01*
X94107000Y-158897000D01*
X93853000Y-158897000D01*
X92703750Y-158897000D01*
X92545000Y-159055750D01*
X92545000Y-159280039D01*
X91667440Y-158402479D01*
X91667440Y-157770000D01*
X91643674Y-157643691D01*
X92545000Y-157643691D01*
X92545000Y-158484250D01*
X92703750Y-158643000D01*
X93853000Y-158643000D01*
X93853000Y-157293750D01*
X94107000Y-157293750D01*
X94107000Y-158643000D01*
X95256250Y-158643000D01*
X95415000Y-158484250D01*
X95415000Y-157643691D01*
X95318327Y-157410302D01*
X95139699Y-157231673D01*
X94906310Y-157135000D01*
X94265750Y-157135000D01*
X94107000Y-157293750D01*
X93853000Y-157293750D01*
X93694250Y-157135000D01*
X93053690Y-157135000D01*
X92820301Y-157231673D01*
X92641673Y-157410302D01*
X92545000Y-157643691D01*
X91643674Y-157643691D01*
X91623162Y-157534683D01*
X91484090Y-157318559D01*
X91271890Y-157173569D01*
X91020000Y-157122560D01*
X91005000Y-157122560D01*
X91005000Y-156960000D01*
X90941439Y-156640459D01*
X90760434Y-156369566D01*
X89754924Y-155364056D01*
X90091475Y-155139179D01*
X90456737Y-154592526D01*
X90585000Y-153947704D01*
X90585000Y-153277000D01*
X92295000Y-153277000D01*
X92295000Y-154027000D01*
X92471864Y-154662154D01*
X92878328Y-155181277D01*
X93452511Y-155505337D01*
X93591721Y-155539654D01*
X93853000Y-155420957D01*
X93853000Y-153277000D01*
X94107000Y-153277000D01*
X94107000Y-155420957D01*
X94368279Y-155539654D01*
X94507489Y-155505337D01*
X95081672Y-155181277D01*
X95488136Y-154662154D01*
X95665000Y-154027000D01*
X95665000Y-153277000D01*
X94107000Y-153277000D01*
X93853000Y-153277000D01*
X92295000Y-153277000D01*
X90585000Y-153277000D01*
X90585000Y-152352296D01*
X90569228Y-152273000D01*
X92295000Y-152273000D01*
X92295000Y-153023000D01*
X93853000Y-153023000D01*
X93853000Y-150879043D01*
X94107000Y-150879043D01*
X94107000Y-153023000D01*
X95665000Y-153023000D01*
X95665000Y-152273000D01*
X95488136Y-151637846D01*
X95081672Y-151118723D01*
X94507489Y-150794663D01*
X94368279Y-150760346D01*
X94107000Y-150879043D01*
X93853000Y-150879043D01*
X93591721Y-150760346D01*
X93452511Y-150794663D01*
X92878328Y-151118723D01*
X92471864Y-151637846D01*
X92295000Y-152273000D01*
X90569228Y-152273000D01*
X90456737Y-151707474D01*
X90091475Y-151160821D01*
X89735000Y-150922632D01*
X89735000Y-147320000D01*
X89671439Y-147000459D01*
X89490434Y-146729566D01*
X88957157Y-146196289D01*
X96930937Y-146196289D01*
X98225000Y-147490352D01*
X98225000Y-150922632D01*
X97868525Y-151160821D01*
X97503263Y-151707474D01*
X97375000Y-152352296D01*
X97375000Y-153947704D01*
X97503263Y-154592526D01*
X97868525Y-155139179D01*
X98205076Y-155364056D01*
X97199566Y-156369566D01*
X97018561Y-156640459D01*
X96955000Y-156960000D01*
X96955000Y-157122560D01*
X96940000Y-157122560D01*
X96704683Y-157166838D01*
X96488559Y-157305910D01*
X96343569Y-157518110D01*
X96292560Y-157770000D01*
X96292560Y-159770000D01*
X96336838Y-160005317D01*
X96475910Y-160221441D01*
X96688110Y-160366431D01*
X96940000Y-160417440D01*
X98640000Y-160417440D01*
X98777431Y-160391581D01*
X100153114Y-161767264D01*
X100152560Y-161770000D01*
X100152560Y-163770000D01*
X100196838Y-164005317D01*
X100335910Y-164221441D01*
X100548110Y-164366431D01*
X100800000Y-164417440D01*
X102400000Y-164417440D01*
X102635317Y-164373162D01*
X102851441Y-164234090D01*
X102996431Y-164021890D01*
X103047440Y-163770000D01*
X103047440Y-161770000D01*
X103003162Y-161534683D01*
X102864090Y-161318559D01*
X102651890Y-161173569D01*
X102400000Y-161122560D01*
X101870146Y-161122560D01*
X101152586Y-160405000D01*
X101314250Y-160405000D01*
X101473000Y-160246250D01*
X101473000Y-158897000D01*
X101727000Y-158897000D01*
X101727000Y-160246250D01*
X101885750Y-160405000D01*
X102526310Y-160405000D01*
X102759699Y-160308327D01*
X102938327Y-160129698D01*
X103035000Y-159896309D01*
X103035000Y-159055750D01*
X102876250Y-158897000D01*
X101727000Y-158897000D01*
X101473000Y-158897000D01*
X100323750Y-158897000D01*
X100165000Y-159055750D01*
X100165000Y-159417414D01*
X99287440Y-158539854D01*
X99287440Y-157770000D01*
X99263674Y-157643691D01*
X100165000Y-157643691D01*
X100165000Y-158484250D01*
X100323750Y-158643000D01*
X101473000Y-158643000D01*
X101473000Y-157293750D01*
X101727000Y-157293750D01*
X101727000Y-158643000D01*
X102876250Y-158643000D01*
X103035000Y-158484250D01*
X103035000Y-157643691D01*
X102938327Y-157410302D01*
X102759699Y-157231673D01*
X102526310Y-157135000D01*
X101885750Y-157135000D01*
X101727000Y-157293750D01*
X101473000Y-157293750D01*
X101314250Y-157135000D01*
X100673690Y-157135000D01*
X100440301Y-157231673D01*
X100261673Y-157410302D01*
X100165000Y-157643691D01*
X99263674Y-157643691D01*
X99243162Y-157534683D01*
X99104090Y-157318559D01*
X98891890Y-157173569D01*
X98779964Y-157150904D01*
X99650434Y-156280434D01*
X99691467Y-156219024D01*
X99831439Y-156009541D01*
X99895000Y-155690000D01*
X99895000Y-155377368D01*
X100251475Y-155139179D01*
X100616737Y-154592526D01*
X100745000Y-153947704D01*
X100745000Y-153277000D01*
X102455000Y-153277000D01*
X102455000Y-154027000D01*
X102631864Y-154662154D01*
X103038328Y-155181277D01*
X103612511Y-155505337D01*
X103751721Y-155539654D01*
X104013000Y-155420957D01*
X104013000Y-153277000D01*
X104267000Y-153277000D01*
X104267000Y-155420957D01*
X104528279Y-155539654D01*
X104667489Y-155505337D01*
X105241672Y-155181277D01*
X105648136Y-154662154D01*
X105825000Y-154027000D01*
X105825000Y-153277000D01*
X104267000Y-153277000D01*
X104013000Y-153277000D01*
X102455000Y-153277000D01*
X100745000Y-153277000D01*
X100745000Y-152352296D01*
X100729228Y-152273000D01*
X102455000Y-152273000D01*
X102455000Y-153023000D01*
X104013000Y-153023000D01*
X104013000Y-150879043D01*
X104267000Y-150879043D01*
X104267000Y-153023000D01*
X105825000Y-153023000D01*
X105825000Y-152273000D01*
X105648136Y-151637846D01*
X105241672Y-151118723D01*
X104667489Y-150794663D01*
X104528279Y-150760346D01*
X104267000Y-150879043D01*
X104013000Y-150879043D01*
X103751721Y-150760346D01*
X103612511Y-150794663D01*
X103038328Y-151118723D01*
X102631864Y-151637846D01*
X102455000Y-152273000D01*
X100729228Y-152273000D01*
X100616737Y-151707474D01*
X100251475Y-151160821D01*
X99895000Y-150922632D01*
X99895000Y-147144484D01*
X99869175Y-147014652D01*
X99831440Y-146824944D01*
X99650434Y-146554050D01*
X98284090Y-145187706D01*
X107506838Y-145187706D01*
X108385000Y-146065868D01*
X108385000Y-150922632D01*
X108028525Y-151160821D01*
X107663263Y-151707474D01*
X107535000Y-152352296D01*
X107535000Y-153654132D01*
X104819566Y-156369566D01*
X104638561Y-156640459D01*
X104575000Y-156960000D01*
X104575000Y-157122560D01*
X104560000Y-157122560D01*
X104324683Y-157166838D01*
X104108559Y-157305910D01*
X103963569Y-157518110D01*
X103912560Y-157770000D01*
X103912560Y-159770000D01*
X103956838Y-160005317D01*
X104095910Y-160221441D01*
X104308110Y-160366431D01*
X104560000Y-160417440D01*
X106260000Y-160417440D01*
X106416603Y-160387973D01*
X107776950Y-161748320D01*
X107772560Y-161770000D01*
X107772560Y-163770000D01*
X107816838Y-164005317D01*
X107955910Y-164221441D01*
X108168110Y-164366431D01*
X108420000Y-164417440D01*
X110020000Y-164417440D01*
X110255317Y-164373162D01*
X110471441Y-164234090D01*
X110616431Y-164021890D01*
X110667440Y-163770000D01*
X110667440Y-161770000D01*
X110623162Y-161534683D01*
X110484090Y-161318559D01*
X110271890Y-161173569D01*
X110020000Y-161122560D01*
X109512926Y-161122560D01*
X108795366Y-160405000D01*
X108934250Y-160405000D01*
X109093000Y-160246250D01*
X109093000Y-158897000D01*
X109347000Y-158897000D01*
X109347000Y-160246250D01*
X109505750Y-160405000D01*
X110146310Y-160405000D01*
X110379699Y-160308327D01*
X110558327Y-160129698D01*
X110655000Y-159896309D01*
X110655000Y-159055750D01*
X110496250Y-158897000D01*
X109347000Y-158897000D01*
X109093000Y-158897000D01*
X107943750Y-158897000D01*
X107785000Y-159055750D01*
X107785000Y-159394634D01*
X106907440Y-158517074D01*
X106907440Y-157770000D01*
X106883674Y-157643691D01*
X107785000Y-157643691D01*
X107785000Y-158484250D01*
X107943750Y-158643000D01*
X109093000Y-158643000D01*
X109093000Y-157293750D01*
X109347000Y-157293750D01*
X109347000Y-158643000D01*
X110496250Y-158643000D01*
X110655000Y-158484250D01*
X110655000Y-157643691D01*
X110558327Y-157410302D01*
X110379699Y-157231673D01*
X110146310Y-157135000D01*
X109505750Y-157135000D01*
X109347000Y-157293750D01*
X109093000Y-157293750D01*
X108934250Y-157135000D01*
X108293690Y-157135000D01*
X108060301Y-157231673D01*
X107881673Y-157410302D01*
X107785000Y-157643691D01*
X106883674Y-157643691D01*
X106863162Y-157534683D01*
X106724090Y-157318559D01*
X106511890Y-157173569D01*
X106399964Y-157150904D01*
X108258215Y-155292653D01*
X108575178Y-155504441D01*
X109220000Y-155632704D01*
X109864822Y-155504441D01*
X110411475Y-155139179D01*
X110776737Y-154592526D01*
X110855932Y-154194386D01*
X110855932Y-164823200D01*
X110144132Y-165535000D01*
X106245000Y-165535000D01*
X106245000Y-164417440D01*
X106260000Y-164417440D01*
X106495317Y-164373162D01*
X106711441Y-164234090D01*
X106856431Y-164021890D01*
X106907440Y-163770000D01*
X106907440Y-161770000D01*
X106863162Y-161534683D01*
X106724090Y-161318559D01*
X106511890Y-161173569D01*
X106260000Y-161122560D01*
X104560000Y-161122560D01*
X104324683Y-161166838D01*
X104108559Y-161305910D01*
X103963569Y-161518110D01*
X103912560Y-161770000D01*
X103912560Y-163770000D01*
X103956838Y-164005317D01*
X104095910Y-164221441D01*
X104308110Y-164366431D01*
X104560000Y-164417440D01*
X104575000Y-164417440D01*
X104575000Y-165535000D01*
X98625000Y-165535000D01*
X98625000Y-164417440D01*
X98640000Y-164417440D01*
X98875317Y-164373162D01*
X99091441Y-164234090D01*
X99236431Y-164021890D01*
X99287440Y-163770000D01*
X99287440Y-161770000D01*
X99243162Y-161534683D01*
X99104090Y-161318559D01*
X98891890Y-161173569D01*
X98640000Y-161122560D01*
X96940000Y-161122560D01*
X96704683Y-161166838D01*
X96488559Y-161305910D01*
X96343569Y-161518110D01*
X96292560Y-161770000D01*
X96292560Y-163770000D01*
X96336838Y-164005317D01*
X96475910Y-164221441D01*
X96688110Y-164366431D01*
X96940000Y-164417440D01*
X96955000Y-164417440D01*
X96955000Y-165535000D01*
X91005000Y-165535000D01*
X91005000Y-164417440D01*
X91020000Y-164417440D01*
X91255317Y-164373162D01*
X91471441Y-164234090D01*
X91616431Y-164021890D01*
X91667440Y-163770000D01*
X91667440Y-161770000D01*
X91623162Y-161534683D01*
X91484090Y-161318559D01*
X91271890Y-161173569D01*
X91020000Y-161122560D01*
X89320000Y-161122560D01*
X89084683Y-161166838D01*
X88868559Y-161305910D01*
X88723569Y-161518110D01*
X88672560Y-161770000D01*
X88672560Y-163770000D01*
X88716838Y-164005317D01*
X88855910Y-164221441D01*
X89068110Y-164366431D01*
X89320000Y-164417440D01*
X89335000Y-164417440D01*
X89335000Y-165535000D01*
X84550156Y-165535000D01*
X83427434Y-164412278D01*
X83635317Y-164373162D01*
X83851441Y-164234090D01*
X83996431Y-164021890D01*
X84047440Y-163770000D01*
X84047440Y-161770000D01*
X84003162Y-161534683D01*
X83864090Y-161318559D01*
X83651890Y-161173569D01*
X83400000Y-161122560D01*
X81700000Y-161122560D01*
X81464683Y-161166838D01*
X81248559Y-161305910D01*
X81103569Y-161518110D01*
X81052560Y-161770000D01*
X81052560Y-163770000D01*
X81096838Y-164005317D01*
X81235910Y-164221441D01*
X81448110Y-164366431D01*
X81700000Y-164417440D01*
X81715000Y-164417440D01*
X81715000Y-164715712D01*
X81778561Y-165035253D01*
X81881863Y-165189855D01*
X81959566Y-165306146D01*
X83613854Y-166960434D01*
X83884748Y-167141440D01*
X84204288Y-167205000D01*
X110490000Y-167205000D01*
X110809541Y-167141439D01*
X111080434Y-166960434D01*
X112281366Y-165759502D01*
X112420875Y-165550712D01*
X112462371Y-165488609D01*
X112525932Y-165169068D01*
X112525932Y-153277000D01*
X112615000Y-153277000D01*
X112615000Y-154027000D01*
X112791864Y-154662154D01*
X113198328Y-155181277D01*
X113772511Y-155505337D01*
X113911721Y-155539654D01*
X114173000Y-155420957D01*
X114173000Y-153277000D01*
X114427000Y-153277000D01*
X114427000Y-155420957D01*
X114688279Y-155539654D01*
X114827489Y-155505337D01*
X115401672Y-155181277D01*
X115808136Y-154662154D01*
X115985000Y-154027000D01*
X115985000Y-153277000D01*
X114427000Y-153277000D01*
X114173000Y-153277000D01*
X112615000Y-153277000D01*
X112525932Y-153277000D01*
X112525932Y-152273000D01*
X112615000Y-152273000D01*
X112615000Y-153023000D01*
X114173000Y-153023000D01*
X114173000Y-150879043D01*
X114427000Y-150879043D01*
X114427000Y-153023000D01*
X115985000Y-153023000D01*
X115985000Y-152273000D01*
X115808136Y-151637846D01*
X115401672Y-151118723D01*
X114827489Y-150794663D01*
X114688279Y-150760346D01*
X114427000Y-150879043D01*
X114173000Y-150879043D01*
X113911721Y-150760346D01*
X113772511Y-150794663D01*
X113198328Y-151118723D01*
X112791864Y-151637846D01*
X112615000Y-152273000D01*
X112525932Y-152273000D01*
X112525932Y-145161982D01*
X112462371Y-144842441D01*
X112281366Y-144571548D01*
X109020444Y-141310626D01*
X108749551Y-141129621D01*
X108430010Y-141066060D01*
X108177070Y-141066060D01*
X108177070Y-139601090D01*
X108132792Y-139365773D01*
X107993720Y-139149649D01*
X107781520Y-139004659D01*
X107529630Y-138953650D01*
X105830370Y-138953650D01*
X105595053Y-138997928D01*
X105378929Y-139137000D01*
X105233939Y-139349200D01*
X105182930Y-139601090D01*
X105182930Y-141066060D01*
X98625000Y-141066060D01*
X98625000Y-135700000D01*
X98561439Y-135380459D01*
X98405741Y-135147440D01*
X98490000Y-135147440D01*
X98725317Y-135103162D01*
X98941441Y-134964090D01*
X99086431Y-134751890D01*
X99137440Y-134500000D01*
X99137440Y-131500000D01*
X99093162Y-131264683D01*
X98954090Y-131048559D01*
X98741890Y-130903569D01*
X98490000Y-130852560D01*
X95490000Y-130852560D01*
X95254683Y-130896838D01*
X95038559Y-131035910D01*
X94893569Y-131248110D01*
X94842560Y-131500000D01*
X94842560Y-134500000D01*
X94886838Y-134735317D01*
X95025910Y-134951441D01*
X95238110Y-135096431D01*
X95490000Y-135147440D01*
X96204219Y-135147440D01*
X96218561Y-135219541D01*
X96326083Y-135380459D01*
X96399566Y-135490434D01*
X96955000Y-136045868D01*
X96955000Y-141066060D01*
X70938940Y-141066060D01*
X70619399Y-141129621D01*
X70348506Y-141310626D01*
X69989566Y-141669566D01*
X69808561Y-141940459D01*
X69794219Y-142012560D01*
X69580000Y-142012560D01*
X69344683Y-142056838D01*
X69128559Y-142195910D01*
X68983569Y-142408110D01*
X68932560Y-142660000D01*
X68932560Y-144360000D01*
X68976838Y-144595317D01*
X69115910Y-144811441D01*
X69328110Y-144956431D01*
X69580000Y-145007440D01*
X69745000Y-145007440D01*
X69745000Y-145452311D01*
X69808561Y-145771852D01*
X69836338Y-145813423D01*
X69989566Y-146042745D01*
X70285000Y-146338179D01*
X70285000Y-148514517D01*
X70185879Y-148534233D01*
X69720332Y-148845302D01*
X69600261Y-149025000D01*
X67719000Y-149025000D01*
X67399459Y-149088561D01*
X67243356Y-149192866D01*
X67128566Y-149269566D01*
X66103132Y-150295000D01*
X65233443Y-150295000D01*
X65319970Y-149860000D01*
X65272005Y-149618863D01*
X66630434Y-148260434D01*
X66811440Y-147989540D01*
X66875000Y-147670000D01*
X66875000Y-147471903D01*
X67207433Y-147249778D01*
X67565325Y-146714155D01*
X67691000Y-146082345D01*
X67691000Y-146017655D01*
X67565325Y-145385845D01*
X67312483Y-145007440D01*
X67580000Y-145007440D01*
X67815317Y-144963162D01*
X68031441Y-144824090D01*
X68176431Y-144611890D01*
X68227440Y-144360000D01*
X68227440Y-142660000D01*
X68183162Y-142424683D01*
X68044090Y-142208559D01*
X67831890Y-142063569D01*
X67580000Y-142012560D01*
X65580000Y-142012560D01*
X65344683Y-142056838D01*
X65128559Y-142195910D01*
X64983569Y-142408110D01*
X64932560Y-142660000D01*
X64932560Y-144360000D01*
X64976838Y-144595317D01*
X64979537Y-144599512D01*
X64875699Y-144495673D01*
X64642310Y-144399000D01*
X63785750Y-144399000D01*
X63627000Y-144557750D01*
X63627000Y-145923000D01*
X63647000Y-145923000D01*
X63647000Y-146177000D01*
X63627000Y-146177000D01*
X63627000Y-147542250D01*
X63785750Y-147701000D01*
X64642310Y-147701000D01*
X64875699Y-147604327D01*
X65054327Y-147425698D01*
X65071999Y-147383034D01*
X65116418Y-147412714D01*
X64067771Y-148461361D01*
X63884970Y-148425000D01*
X63115030Y-148425000D01*
X62565879Y-148534233D01*
X62100332Y-148845302D01*
X61789263Y-149310849D01*
X61680030Y-149860000D01*
X61766557Y-150295000D01*
X60035868Y-150295000D01*
X59010434Y-149269566D01*
X58895644Y-149192866D01*
X58739541Y-149088561D01*
X58541994Y-149049266D01*
X58382086Y-148809946D01*
X57900317Y-148488039D01*
X57332032Y-148375000D01*
X56967968Y-148375000D01*
X56603096Y-148447578D01*
X56565000Y-148440000D01*
X49104438Y-148440000D01*
X49104438Y-146511886D01*
X49231083Y-146385462D01*
X49251725Y-146335750D01*
X61849000Y-146335750D01*
X61849000Y-147192309D01*
X61945673Y-147425698D01*
X62124301Y-147604327D01*
X62357690Y-147701000D01*
X63214250Y-147701000D01*
X63373000Y-147542250D01*
X63373000Y-146177000D01*
X62007750Y-146177000D01*
X61849000Y-146335750D01*
X49251725Y-146335750D01*
X49404241Y-145968453D01*
X49404635Y-145516922D01*
X49232205Y-145099611D01*
X49040620Y-144907691D01*
X61849000Y-144907691D01*
X61849000Y-145764250D01*
X62007750Y-145923000D01*
X63373000Y-145923000D01*
X63373000Y-144557750D01*
X63214250Y-144399000D01*
X62357690Y-144399000D01*
X62124301Y-144495673D01*
X61945673Y-144674302D01*
X61849000Y-144907691D01*
X49040620Y-144907691D01*
X48913203Y-144780052D01*
X48496194Y-144606894D01*
X48044663Y-144606500D01*
X47627352Y-144778930D01*
X47307793Y-145097932D01*
X47134635Y-145514941D01*
X47134241Y-145966472D01*
X47306671Y-146383783D01*
X47434438Y-146511773D01*
X47434438Y-148852370D01*
X47224683Y-148891838D01*
X47008559Y-149030910D01*
X46863569Y-149243110D01*
X46812560Y-149495000D01*
X41710000Y-149495000D01*
X41710000Y-147733508D01*
X41756091Y-147752600D01*
X42714250Y-147752600D01*
X42873000Y-147593850D01*
X42873000Y-146127000D01*
X43127000Y-146127000D01*
X43127000Y-147593850D01*
X43285750Y-147752600D01*
X44243909Y-147752600D01*
X44477298Y-147655927D01*
X44655927Y-147477299D01*
X44752600Y-147243910D01*
X44752600Y-146285750D01*
X44593850Y-146127000D01*
X43127000Y-146127000D01*
X42873000Y-146127000D01*
X42853000Y-146127000D01*
X42853000Y-145873000D01*
X42873000Y-145873000D01*
X42873000Y-144406150D01*
X43127000Y-144406150D01*
X43127000Y-145873000D01*
X44593850Y-145873000D01*
X44752600Y-145714250D01*
X44752600Y-144756090D01*
X44655927Y-144522701D01*
X44477298Y-144344073D01*
X44243909Y-144247400D01*
X43285750Y-144247400D01*
X43127000Y-144406150D01*
X42873000Y-144406150D01*
X42714250Y-144247400D01*
X41756091Y-144247400D01*
X41710000Y-144266492D01*
X41710000Y-134772618D01*
X41925566Y-135071277D01*
X43258800Y-135631342D01*
X44704875Y-135638568D01*
X46043639Y-135091854D01*
X46074434Y-135071277D01*
X46417025Y-134596630D01*
X46334365Y-134513970D01*
X75165635Y-134513970D01*
X75325418Y-134832739D01*
X76116187Y-135142723D01*
X76965387Y-135126497D01*
X77373835Y-134957312D01*
X80722293Y-134957312D01*
X81125762Y-135483924D01*
X82639730Y-136127307D01*
X84284666Y-136142346D01*
X85810145Y-135526750D01*
X85874238Y-135483924D01*
X86277707Y-134957312D01*
X83500000Y-132179605D01*
X80722293Y-134957312D01*
X77373835Y-134957312D01*
X77674582Y-134832739D01*
X77834365Y-134513970D01*
X76500000Y-133179605D01*
X75165635Y-134513970D01*
X46334365Y-134513970D01*
X44000000Y-132179605D01*
X43985858Y-132193748D01*
X43806253Y-132014143D01*
X43820395Y-132000000D01*
X43806253Y-131985858D01*
X43985858Y-131806253D01*
X44000000Y-131820395D01*
X44014143Y-131806253D01*
X44193748Y-131985858D01*
X44179605Y-132000000D01*
X46596630Y-134417025D01*
X47071277Y-134074434D01*
X47631342Y-132741200D01*
X47631966Y-132616187D01*
X74357277Y-132616187D01*
X74373503Y-133465387D01*
X74667261Y-134174582D01*
X74986030Y-134334365D01*
X76320395Y-133000000D01*
X76679605Y-133000000D01*
X78013970Y-134334365D01*
X78332739Y-134174582D01*
X78642723Y-133383813D01*
X78631275Y-132784666D01*
X79357654Y-132784666D01*
X79973250Y-134310145D01*
X80016076Y-134374238D01*
X80542688Y-134777707D01*
X83320395Y-132000000D01*
X83679605Y-132000000D01*
X86457312Y-134777707D01*
X86983924Y-134374238D01*
X87627307Y-132860270D01*
X87642346Y-131215334D01*
X87026750Y-129689855D01*
X86983924Y-129625762D01*
X86457312Y-129222293D01*
X83679605Y-132000000D01*
X83320395Y-132000000D01*
X80542688Y-129222293D01*
X80016076Y-129625762D01*
X79372693Y-131139730D01*
X79357654Y-132784666D01*
X78631275Y-132784666D01*
X78626497Y-132534613D01*
X78332739Y-131825418D01*
X78013970Y-131665635D01*
X76679605Y-133000000D01*
X76320395Y-133000000D01*
X74986030Y-131665635D01*
X74667261Y-131825418D01*
X74357277Y-132616187D01*
X47631966Y-132616187D01*
X47637613Y-131486030D01*
X75165635Y-131486030D01*
X76500000Y-132820395D01*
X77834365Y-131486030D01*
X77674582Y-131167261D01*
X76883813Y-130857277D01*
X76034613Y-130873503D01*
X75325418Y-131167261D01*
X75165635Y-131486030D01*
X47637613Y-131486030D01*
X47638568Y-131295125D01*
X47091854Y-129956361D01*
X47071277Y-129925566D01*
X46668709Y-129635000D01*
X47545238Y-129635000D01*
X47545238Y-129042688D01*
X80722293Y-129042688D01*
X83500000Y-131820395D01*
X86277707Y-129042688D01*
X85874238Y-128516076D01*
X84360270Y-127872693D01*
X82715334Y-127857654D01*
X81189855Y-128473250D01*
X81125762Y-128516076D01*
X80722293Y-129042688D01*
X47545238Y-129042688D01*
X47545238Y-120634368D01*
X47893856Y-120285750D01*
X48247400Y-120285750D01*
X48247400Y-121243910D01*
X48344073Y-121477299D01*
X48522702Y-121655927D01*
X48756091Y-121752600D01*
X49714250Y-121752600D01*
X49873000Y-121593850D01*
X49873000Y-120127000D01*
X50127000Y-120127000D01*
X50127000Y-121593850D01*
X50285750Y-121752600D01*
X51243909Y-121752600D01*
X51477298Y-121655927D01*
X51655927Y-121477299D01*
X51752600Y-121243910D01*
X51752600Y-120285750D01*
X51593850Y-120127000D01*
X50127000Y-120127000D01*
X49873000Y-120127000D01*
X48406150Y-120127000D01*
X48247400Y-120285750D01*
X47893856Y-120285750D01*
X48356378Y-119823228D01*
X48406150Y-119873000D01*
X49873000Y-119873000D01*
X49873000Y-119853000D01*
X50127000Y-119853000D01*
X50127000Y-119873000D01*
X51593850Y-119873000D01*
X51752600Y-119714250D01*
X51752600Y-118756090D01*
X51733509Y-118710000D01*
X115269872Y-118710000D01*
X115234960Y-118882400D01*
X115234960Y-118882400D01*
G37*
X115234960Y-118882400D02*
X115234960Y-121117600D01*
X115279238Y-121352917D01*
X115418310Y-121569041D01*
X115630510Y-121714031D01*
X115882400Y-121765040D01*
X115914219Y-121765040D01*
X115951397Y-121951946D01*
X116197434Y-122320166D01*
X117865000Y-123987732D01*
X117865000Y-130865000D01*
X113000000Y-130865000D01*
X112565654Y-130951397D01*
X112283794Y-131139730D01*
X112197434Y-131197434D01*
X109430928Y-133963940D01*
X108151572Y-133963940D01*
X108132792Y-133864133D01*
X107993720Y-133648009D01*
X107781520Y-133503019D01*
X107529630Y-133452010D01*
X105830370Y-133452010D01*
X105595053Y-133496288D01*
X105378929Y-133635360D01*
X105233939Y-133847560D01*
X105182930Y-134099450D01*
X105182930Y-137398910D01*
X105227208Y-137634227D01*
X105366280Y-137850351D01*
X105578480Y-137995341D01*
X105830370Y-138046350D01*
X107529630Y-138046350D01*
X107764947Y-138002072D01*
X107981071Y-137863000D01*
X108126061Y-137650800D01*
X108177070Y-137398910D01*
X108177070Y-136233940D01*
X109901060Y-136233940D01*
X110335406Y-136147543D01*
X110703626Y-135901506D01*
X113470132Y-133135000D01*
X117865000Y-133135000D01*
X117865000Y-139482400D01*
X117951397Y-139916746D01*
X117960600Y-139930519D01*
X118197434Y-140284966D01*
X122390294Y-144477826D01*
X122285969Y-144630510D01*
X122234960Y-144882400D01*
X122234960Y-147117600D01*
X122279238Y-147352917D01*
X122418310Y-147569041D01*
X122630510Y-147714031D01*
X122882400Y-147765040D01*
X125117600Y-147765040D01*
X125290000Y-147732601D01*
X125290000Y-162930069D01*
X125140938Y-163679456D01*
X117679456Y-171140938D01*
X116930069Y-171290000D01*
X77657798Y-171290000D01*
X78310145Y-171026750D01*
X78374238Y-170983924D01*
X78777707Y-170457312D01*
X76000000Y-167679605D01*
X73222293Y-170457312D01*
X73625762Y-170983924D01*
X74346001Y-171290000D01*
X50069931Y-171290000D01*
X49320544Y-171140938D01*
X46464272Y-168284666D01*
X71857654Y-168284666D01*
X72473250Y-169810145D01*
X72516076Y-169874238D01*
X73042688Y-170277707D01*
X75820395Y-167500000D01*
X76179605Y-167500000D01*
X78957312Y-170277707D01*
X79483924Y-169874238D01*
X80127307Y-168360270D01*
X80142346Y-166715334D01*
X79526750Y-165189855D01*
X79483924Y-165125762D01*
X78957312Y-164722293D01*
X76179605Y-167500000D01*
X75820395Y-167500000D01*
X73042688Y-164722293D01*
X72516076Y-165125762D01*
X71872693Y-166639730D01*
X71857654Y-168284666D01*
X46464272Y-168284666D01*
X42722294Y-164542688D01*
X73222293Y-164542688D01*
X76000000Y-167320395D01*
X78777707Y-164542688D01*
X78374238Y-164016076D01*
X76860270Y-163372693D01*
X75215334Y-163357654D01*
X73689855Y-163973250D01*
X73625762Y-164016076D01*
X73222293Y-164542688D01*
X42722294Y-164542688D01*
X41859062Y-163679456D01*
X41710000Y-162930069D01*
X41710000Y-154780750D01*
X46825000Y-154780750D01*
X46825000Y-155621309D01*
X46921673Y-155854698D01*
X47100301Y-156033327D01*
X47333690Y-156130000D01*
X47974250Y-156130000D01*
X48133000Y-155971250D01*
X48133000Y-154622000D01*
X48387000Y-154622000D01*
X48387000Y-155971250D01*
X48545750Y-156130000D01*
X49186310Y-156130000D01*
X49419699Y-156033327D01*
X49598327Y-155854698D01*
X49695000Y-155621309D01*
X49695000Y-154780750D01*
X49600000Y-154685750D01*
X51905000Y-154685750D01*
X51905000Y-155526309D01*
X52001673Y-155759698D01*
X52180301Y-155938327D01*
X52413690Y-156035000D01*
X53054250Y-156035000D01*
X53213000Y-155876250D01*
X53213000Y-154527000D01*
X53467000Y-154527000D01*
X53467000Y-155876250D01*
X53625750Y-156035000D01*
X54266310Y-156035000D01*
X54499699Y-155938327D01*
X54678327Y-155759698D01*
X54775000Y-155526309D01*
X54775000Y-154685750D01*
X54616250Y-154527000D01*
X53467000Y-154527000D01*
X53213000Y-154527000D01*
X52063750Y-154527000D01*
X51905000Y-154685750D01*
X49600000Y-154685750D01*
X49536250Y-154622000D01*
X48387000Y-154622000D01*
X48133000Y-154622000D01*
X46983750Y-154622000D01*
X46825000Y-154780750D01*
X41710000Y-154780750D01*
X41710000Y-153368691D01*
X46825000Y-153368691D01*
X46825000Y-154209250D01*
X46983750Y-154368000D01*
X48133000Y-154368000D01*
X48133000Y-153018750D01*
X48387000Y-153018750D01*
X48387000Y-154368000D01*
X49536250Y-154368000D01*
X49695000Y-154209250D01*
X49695000Y-153368691D01*
X49655650Y-153273691D01*
X51905000Y-153273691D01*
X51905000Y-154114250D01*
X52063750Y-154273000D01*
X53213000Y-154273000D01*
X53213000Y-152923750D01*
X53467000Y-152923750D01*
X53467000Y-154273000D01*
X54616250Y-154273000D01*
X54775000Y-154114250D01*
X54775000Y-153273691D01*
X54678327Y-153040302D01*
X54499699Y-152861673D01*
X54266310Y-152765000D01*
X53625750Y-152765000D01*
X53467000Y-152923750D01*
X53213000Y-152923750D01*
X53054250Y-152765000D01*
X52413690Y-152765000D01*
X52180301Y-152861673D01*
X52001673Y-153040302D01*
X51905000Y-153273691D01*
X49655650Y-153273691D01*
X49598327Y-153135302D01*
X49419699Y-152956673D01*
X49186310Y-152860000D01*
X48545750Y-152860000D01*
X48387000Y-153018750D01*
X48133000Y-153018750D01*
X47974250Y-152860000D01*
X47333690Y-152860000D01*
X47100301Y-152956673D01*
X46921673Y-153135302D01*
X46825000Y-153368691D01*
X41710000Y-153368691D01*
X41710000Y-149495000D01*
X46812560Y-149495000D01*
X46812560Y-151495000D01*
X46856838Y-151730317D01*
X46995910Y-151946441D01*
X47208110Y-152091431D01*
X47460000Y-152142440D01*
X49060000Y-152142440D01*
X49295317Y-152098162D01*
X49511441Y-151959090D01*
X49656431Y-151746890D01*
X49707440Y-151495000D01*
X49707440Y-150110000D01*
X51892560Y-150110000D01*
X51892560Y-151400000D01*
X51936838Y-151635317D01*
X52075910Y-151851441D01*
X52288110Y-151996431D01*
X52540000Y-152047440D01*
X54140000Y-152047440D01*
X54375317Y-152003162D01*
X54591441Y-151864090D01*
X54736431Y-151651890D01*
X54787440Y-151400000D01*
X54787440Y-150110000D01*
X55532696Y-150110000D01*
X55596007Y-150428285D01*
X55917914Y-150910054D01*
X56247087Y-151130000D01*
X55917914Y-151349946D01*
X55596007Y-151831715D01*
X55482968Y-152400000D01*
X55596007Y-152968285D01*
X55917914Y-153450054D01*
X56239085Y-153664653D01*
X55811336Y-154047955D01*
X55560447Y-154570740D01*
X55558524Y-154583110D01*
X55679845Y-154813000D01*
X57023000Y-154813000D01*
X57023000Y-154793000D01*
X57277000Y-154793000D01*
X57277000Y-154813000D01*
X57297000Y-154813000D01*
X57297000Y-155067000D01*
X57277000Y-155067000D01*
X57277000Y-155087000D01*
X57023000Y-155087000D01*
X57023000Y-155067000D01*
X55679845Y-155067000D01*
X55558524Y-155296890D01*
X55560447Y-155309260D01*
X55811336Y-155832045D01*
X56008927Y-156009105D01*
X55914683Y-156026838D01*
X55698559Y-156165910D01*
X55553569Y-156378110D01*
X55502560Y-156630000D01*
X55502560Y-158330000D01*
X55546838Y-158565317D01*
X55685910Y-158781441D01*
X55898110Y-158926431D01*
X55963286Y-158939629D01*
X55917914Y-158969946D01*
X55596007Y-159451715D01*
X55482968Y-160020000D01*
X55596007Y-160588285D01*
X55917914Y-161070054D01*
X56247087Y-161290000D01*
X55917914Y-161509946D01*
X55596007Y-161991715D01*
X55482968Y-162560000D01*
X55596007Y-163128285D01*
X55917914Y-163610054D01*
X56399683Y-163931961D01*
X56967968Y-164045000D01*
X57332032Y-164045000D01*
X57900317Y-163931961D01*
X58382086Y-163610054D01*
X58703993Y-163128285D01*
X58817032Y-162560000D01*
X58703993Y-161991715D01*
X58382086Y-161509946D01*
X58052913Y-161290000D01*
X58382086Y-161070054D01*
X58703993Y-160588285D01*
X58817032Y-160020000D01*
X58703993Y-159451715D01*
X58382086Y-158969946D01*
X58339841Y-158941719D01*
X58385317Y-158933162D01*
X58601441Y-158794090D01*
X58746431Y-158581890D01*
X58767064Y-158480000D01*
X58827560Y-158480000D01*
X58827560Y-160480000D01*
X58871838Y-160715317D01*
X59010910Y-160931441D01*
X59223110Y-161076431D01*
X59475000Y-161127440D01*
X61175000Y-161127440D01*
X61410317Y-161083162D01*
X61626441Y-160944090D01*
X61771431Y-160731890D01*
X61822440Y-160480000D01*
X61822440Y-160315000D01*
X62614132Y-160315000D01*
X64480860Y-162181728D01*
X64455276Y-162243341D01*
X64454725Y-162873893D01*
X64695519Y-163456657D01*
X65140997Y-163902914D01*
X65723341Y-164144724D01*
X66353893Y-164145275D01*
X66936657Y-163904481D01*
X67041867Y-163799455D01*
X67091673Y-163919698D01*
X67270301Y-164098327D01*
X67503690Y-164195000D01*
X68294250Y-164195000D01*
X68453000Y-164036250D01*
X68453000Y-162687000D01*
X68707000Y-162687000D01*
X68707000Y-164036250D01*
X68865750Y-164195000D01*
X69656310Y-164195000D01*
X69889699Y-164098327D01*
X70068327Y-163919698D01*
X70165000Y-163686309D01*
X70165000Y-162845750D01*
X70006250Y-162687000D01*
X68707000Y-162687000D01*
X68453000Y-162687000D01*
X68433000Y-162687000D01*
X68433000Y-162433000D01*
X68453000Y-162433000D01*
X68453000Y-162413000D01*
X68707000Y-162413000D01*
X68707000Y-162433000D01*
X70006250Y-162433000D01*
X70165000Y-162274250D01*
X70165000Y-161433691D01*
X70084205Y-161238634D01*
X70163690Y-161046740D01*
X70163690Y-160305750D01*
X70004940Y-160147000D01*
X68856860Y-160147000D01*
X68856860Y-160167000D01*
X68602860Y-160167000D01*
X68602860Y-160147000D01*
X68582860Y-160147000D01*
X68582860Y-159893000D01*
X68602860Y-159893000D01*
X68602860Y-158643320D01*
X68444110Y-158484570D01*
X67804721Y-158484570D01*
X67571332Y-158581243D01*
X67392703Y-158759871D01*
X67307454Y-158965681D01*
X67292132Y-158884253D01*
X67153060Y-158668129D01*
X66940860Y-158523139D01*
X66688970Y-158472130D01*
X65091310Y-158472130D01*
X64855993Y-158516408D01*
X64655136Y-158645656D01*
X64954500Y-158404896D01*
X65224367Y-157911819D01*
X65241904Y-157829039D01*
X65119915Y-157607000D01*
X63627000Y-157607000D01*
X63627000Y-157627000D01*
X63373000Y-157627000D01*
X63373000Y-157607000D01*
X61880085Y-157607000D01*
X61758096Y-157829039D01*
X61775633Y-157911819D01*
X62045500Y-158404896D01*
X62344048Y-158645000D01*
X61822440Y-158645000D01*
X61822440Y-158480000D01*
X61778162Y-158244683D01*
X61639090Y-158028559D01*
X61426890Y-157883569D01*
X61175000Y-157832560D01*
X59475000Y-157832560D01*
X59239683Y-157876838D01*
X59023559Y-158015910D01*
X58878569Y-158228110D01*
X58827560Y-158480000D01*
X58767064Y-158480000D01*
X58797440Y-158330000D01*
X58797440Y-156630000D01*
X58753162Y-156394683D01*
X58614090Y-156178559D01*
X58401890Y-156033569D01*
X58289231Y-156010755D01*
X58488664Y-155832045D01*
X58739553Y-155309260D01*
X58741476Y-155296890D01*
X58620156Y-155067002D01*
X58636134Y-155067002D01*
X58827560Y-155258428D01*
X58827560Y-156480000D01*
X58871838Y-156715317D01*
X59010910Y-156931441D01*
X59223110Y-157076431D01*
X59475000Y-157127440D01*
X61175000Y-157127440D01*
X61410317Y-157083162D01*
X61626441Y-156944090D01*
X61771431Y-156731890D01*
X61822440Y-156480000D01*
X61822440Y-156315000D01*
X62344048Y-156315000D01*
X62045500Y-156555104D01*
X61775633Y-157048181D01*
X61758096Y-157130961D01*
X61880085Y-157353000D01*
X63373000Y-157353000D01*
X63373000Y-157333000D01*
X63627000Y-157333000D01*
X63627000Y-157353000D01*
X65119915Y-157353000D01*
X65241904Y-157130961D01*
X65224367Y-157048181D01*
X64954500Y-156555104D01*
X64521849Y-156207149D01*
X64899668Y-155954698D01*
X65210737Y-155489151D01*
X65319970Y-154940000D01*
X65210737Y-154390849D01*
X64899668Y-153925302D01*
X64517582Y-153670000D01*
X64899668Y-153414698D01*
X65019739Y-153235000D01*
X66662000Y-153235000D01*
X66981541Y-153171439D01*
X67252434Y-152990434D01*
X68277868Y-151965000D01*
X69386557Y-151965000D01*
X69300030Y-152400000D01*
X69409263Y-152949151D01*
X69720332Y-153414698D01*
X70102418Y-153670000D01*
X69720332Y-153925302D01*
X69409263Y-154390849D01*
X69300030Y-154940000D01*
X69409263Y-155489151D01*
X69720332Y-155954698D01*
X70102418Y-156210000D01*
X69720332Y-156465302D01*
X69409263Y-156930849D01*
X69300030Y-157480000D01*
X69409263Y-158029151D01*
X69720332Y-158494698D01*
X69787010Y-158539251D01*
X69654999Y-158484570D01*
X69015610Y-158484570D01*
X68856860Y-158643320D01*
X68856860Y-159893000D01*
X70004940Y-159893000D01*
X70163690Y-159734250D01*
X70163690Y-158993260D01*
X70067017Y-158759871D01*
X69965981Y-158658836D01*
X70185879Y-158805767D01*
X70735030Y-158915000D01*
X71504970Y-158915000D01*
X72054121Y-158805767D01*
X72519668Y-158494698D01*
X72639739Y-158315000D01*
X78734132Y-158315000D01*
X79779565Y-159360434D01*
X79883029Y-159429566D01*
X80050459Y-159541439D01*
X80370000Y-159605000D01*
X81052560Y-159605000D01*
X81052560Y-159770000D01*
X81096838Y-160005317D01*
X81235910Y-160221441D01*
X81448110Y-160366431D01*
X81700000Y-160417440D01*
X83400000Y-160417440D01*
X83635317Y-160373162D01*
X83646715Y-160365827D01*
X84935855Y-161654967D01*
X84912560Y-161770000D01*
X84912560Y-163770000D01*
X84956838Y-164005317D01*
X85095910Y-164221441D01*
X85308110Y-164366431D01*
X85560000Y-164417440D01*
X87160000Y-164417440D01*
X87395317Y-164373162D01*
X87611441Y-164234090D01*
X87756431Y-164021890D01*
X87807440Y-163770000D01*
X87807440Y-161770000D01*
X87763162Y-161534683D01*
X87624090Y-161318559D01*
X87411890Y-161173569D01*
X87160000Y-161122560D01*
X86765184Y-161122560D01*
X86047624Y-160405000D01*
X86074250Y-160405000D01*
X86233000Y-160246250D01*
X86233000Y-158897000D01*
X86487000Y-158897000D01*
X86487000Y-160246250D01*
X86645750Y-160405000D01*
X87286310Y-160405000D01*
X87519699Y-160308327D01*
X87698327Y-160129698D01*
X87795000Y-159896309D01*
X87795000Y-159055750D01*
X87636250Y-158897000D01*
X86487000Y-158897000D01*
X86233000Y-158897000D01*
X85083750Y-158897000D01*
X84925000Y-159055750D01*
X84925000Y-159282376D01*
X84047440Y-158404816D01*
X84047440Y-157770000D01*
X84023674Y-157643691D01*
X84925000Y-157643691D01*
X84925000Y-158484250D01*
X85083750Y-158643000D01*
X86233000Y-158643000D01*
X86233000Y-157293750D01*
X86487000Y-157293750D01*
X86487000Y-158643000D01*
X87636250Y-158643000D01*
X87795000Y-158484250D01*
X87795000Y-157643691D01*
X87698327Y-157410302D01*
X87519699Y-157231673D01*
X87286310Y-157135000D01*
X86645750Y-157135000D01*
X86487000Y-157293750D01*
X86233000Y-157293750D01*
X86074250Y-157135000D01*
X85433690Y-157135000D01*
X85200301Y-157231673D01*
X85021673Y-157410302D01*
X84925000Y-157643691D01*
X84023674Y-157643691D01*
X84003162Y-157534683D01*
X83864090Y-157318559D01*
X83651890Y-157173569D01*
X83400000Y-157122560D01*
X81700000Y-157122560D01*
X81464683Y-157166838D01*
X81248559Y-157305910D01*
X81103569Y-157518110D01*
X81052560Y-157770000D01*
X81052560Y-157935000D01*
X80715869Y-157935000D01*
X79915000Y-157134132D01*
X79915000Y-155690000D01*
X79903603Y-155632704D01*
X79892743Y-155578107D01*
X80025317Y-155553162D01*
X80241441Y-155414090D01*
X80386431Y-155201890D01*
X80437440Y-154950000D01*
X80437440Y-153277000D01*
X82135000Y-153277000D01*
X82135000Y-154027000D01*
X82311864Y-154662154D01*
X82718328Y-155181277D01*
X83292511Y-155505337D01*
X83431721Y-155539654D01*
X83693000Y-155420957D01*
X83693000Y-153277000D01*
X83947000Y-153277000D01*
X83947000Y-155420957D01*
X84208279Y-155539654D01*
X84347489Y-155505337D01*
X84921672Y-155181277D01*
X85328136Y-154662154D01*
X85505000Y-154027000D01*
X85505000Y-153277000D01*
X83947000Y-153277000D01*
X83693000Y-153277000D01*
X82135000Y-153277000D01*
X80437440Y-153277000D01*
X80437440Y-152273000D01*
X82135000Y-152273000D01*
X82135000Y-153023000D01*
X83693000Y-153023000D01*
X83693000Y-150879043D01*
X83947000Y-150879043D01*
X83947000Y-153023000D01*
X85505000Y-153023000D01*
X85505000Y-152273000D01*
X85328136Y-151637846D01*
X84921672Y-151118723D01*
X84347489Y-150794663D01*
X84208279Y-150760346D01*
X83947000Y-150879043D01*
X83693000Y-150879043D01*
X83431721Y-150760346D01*
X83292511Y-150794663D01*
X82718328Y-151118723D01*
X82311864Y-151637846D01*
X82135000Y-152273000D01*
X80437440Y-152273000D01*
X80437440Y-151350000D01*
X80393162Y-151114683D01*
X80254090Y-150898559D01*
X80041890Y-150753569D01*
X79790000Y-150702560D01*
X77690000Y-150702560D01*
X77454683Y-150746838D01*
X77238559Y-150885910D01*
X77093569Y-151098110D01*
X77042560Y-151350000D01*
X77042560Y-154950000D01*
X77086838Y-155185317D01*
X77225910Y-155401441D01*
X77438110Y-155546431D01*
X77690000Y-155597440D01*
X77954219Y-155597440D01*
X77968561Y-155669541D01*
X78077143Y-155832045D01*
X78149566Y-155940434D01*
X78245000Y-156035868D01*
X78245000Y-156645000D01*
X72639739Y-156645000D01*
X72519668Y-156465302D01*
X72137582Y-156210000D01*
X72519668Y-155954698D01*
X72639739Y-155775000D01*
X72658555Y-155775000D01*
X72978096Y-155711439D01*
X73248989Y-155530434D01*
X75903657Y-152875767D01*
X76008044Y-152719540D01*
X76084662Y-152604873D01*
X76148223Y-152285332D01*
X76148223Y-147685989D01*
X76625384Y-147208828D01*
X87607960Y-147208828D01*
X88065000Y-147665868D01*
X88065000Y-150922632D01*
X87708525Y-151160821D01*
X87343263Y-151707474D01*
X87215000Y-152352296D01*
X87215000Y-153947704D01*
X87343263Y-154592526D01*
X87708525Y-155139179D01*
X88065000Y-155377368D01*
X88065000Y-155690000D01*
X88128561Y-156009541D01*
X88268533Y-156219024D01*
X88309566Y-156280434D01*
X89178346Y-157149214D01*
X89084683Y-157166838D01*
X88868559Y-157305910D01*
X88723569Y-157518110D01*
X88672560Y-157770000D01*
X88672560Y-159770000D01*
X88716838Y-160005317D01*
X88855910Y-160221441D01*
X89068110Y-160366431D01*
X89320000Y-160417440D01*
X91020000Y-160417440D01*
X91255317Y-160373162D01*
X91268137Y-160364912D01*
X92556248Y-161653023D01*
X92532560Y-161770000D01*
X92532560Y-163770000D01*
X92576838Y-164005317D01*
X92715910Y-164221441D01*
X92928110Y-164366431D01*
X93180000Y-164417440D01*
X94780000Y-164417440D01*
X95015317Y-164373162D01*
X95231441Y-164234090D01*
X95376431Y-164021890D01*
X95427440Y-163770000D01*
X95427440Y-161770000D01*
X95383162Y-161534683D01*
X95244090Y-161318559D01*
X95031890Y-161173569D01*
X94780000Y-161122560D01*
X94387521Y-161122560D01*
X93669961Y-160405000D01*
X93694250Y-160405000D01*
X93853000Y-160246250D01*
X93853000Y-158897000D01*
X94107000Y-158897000D01*
X94107000Y-160246250D01*
X94265750Y-160405000D01*
X94906310Y-160405000D01*
X95139699Y-160308327D01*
X95318327Y-160129698D01*
X95415000Y-159896309D01*
X95415000Y-159055750D01*
X95256250Y-158897000D01*
X94107000Y-158897000D01*
X93853000Y-158897000D01*
X92703750Y-158897000D01*
X92545000Y-159055750D01*
X92545000Y-159280039D01*
X91667440Y-158402479D01*
X91667440Y-157770000D01*
X91643674Y-157643691D01*
X92545000Y-157643691D01*
X92545000Y-158484250D01*
X92703750Y-158643000D01*
X93853000Y-158643000D01*
X93853000Y-157293750D01*
X94107000Y-157293750D01*
X94107000Y-158643000D01*
X95256250Y-158643000D01*
X95415000Y-158484250D01*
X95415000Y-157643691D01*
X95318327Y-157410302D01*
X95139699Y-157231673D01*
X94906310Y-157135000D01*
X94265750Y-157135000D01*
X94107000Y-157293750D01*
X93853000Y-157293750D01*
X93694250Y-157135000D01*
X93053690Y-157135000D01*
X92820301Y-157231673D01*
X92641673Y-157410302D01*
X92545000Y-157643691D01*
X91643674Y-157643691D01*
X91623162Y-157534683D01*
X91484090Y-157318559D01*
X91271890Y-157173569D01*
X91020000Y-157122560D01*
X91005000Y-157122560D01*
X91005000Y-156960000D01*
X90941439Y-156640459D01*
X90760434Y-156369566D01*
X89754924Y-155364056D01*
X90091475Y-155139179D01*
X90456737Y-154592526D01*
X90585000Y-153947704D01*
X90585000Y-153277000D01*
X92295000Y-153277000D01*
X92295000Y-154027000D01*
X92471864Y-154662154D01*
X92878328Y-155181277D01*
X93452511Y-155505337D01*
X93591721Y-155539654D01*
X93853000Y-155420957D01*
X93853000Y-153277000D01*
X94107000Y-153277000D01*
X94107000Y-155420957D01*
X94368279Y-155539654D01*
X94507489Y-155505337D01*
X95081672Y-155181277D01*
X95488136Y-154662154D01*
X95665000Y-154027000D01*
X95665000Y-153277000D01*
X94107000Y-153277000D01*
X93853000Y-153277000D01*
X92295000Y-153277000D01*
X90585000Y-153277000D01*
X90585000Y-152352296D01*
X90569228Y-152273000D01*
X92295000Y-152273000D01*
X92295000Y-153023000D01*
X93853000Y-153023000D01*
X93853000Y-150879043D01*
X94107000Y-150879043D01*
X94107000Y-153023000D01*
X95665000Y-153023000D01*
X95665000Y-152273000D01*
X95488136Y-151637846D01*
X95081672Y-151118723D01*
X94507489Y-150794663D01*
X94368279Y-150760346D01*
X94107000Y-150879043D01*
X93853000Y-150879043D01*
X93591721Y-150760346D01*
X93452511Y-150794663D01*
X92878328Y-151118723D01*
X92471864Y-151637846D01*
X92295000Y-152273000D01*
X90569228Y-152273000D01*
X90456737Y-151707474D01*
X90091475Y-151160821D01*
X89735000Y-150922632D01*
X89735000Y-147320000D01*
X89671439Y-147000459D01*
X89490434Y-146729566D01*
X88957157Y-146196289D01*
X96930937Y-146196289D01*
X98225000Y-147490352D01*
X98225000Y-150922632D01*
X97868525Y-151160821D01*
X97503263Y-151707474D01*
X97375000Y-152352296D01*
X97375000Y-153947704D01*
X97503263Y-154592526D01*
X97868525Y-155139179D01*
X98205076Y-155364056D01*
X97199566Y-156369566D01*
X97018561Y-156640459D01*
X96955000Y-156960000D01*
X96955000Y-157122560D01*
X96940000Y-157122560D01*
X96704683Y-157166838D01*
X96488559Y-157305910D01*
X96343569Y-157518110D01*
X96292560Y-157770000D01*
X96292560Y-159770000D01*
X96336838Y-160005317D01*
X96475910Y-160221441D01*
X96688110Y-160366431D01*
X96940000Y-160417440D01*
X98640000Y-160417440D01*
X98777431Y-160391581D01*
X100153114Y-161767264D01*
X100152560Y-161770000D01*
X100152560Y-163770000D01*
X100196838Y-164005317D01*
X100335910Y-164221441D01*
X100548110Y-164366431D01*
X100800000Y-164417440D01*
X102400000Y-164417440D01*
X102635317Y-164373162D01*
X102851441Y-164234090D01*
X102996431Y-164021890D01*
X103047440Y-163770000D01*
X103047440Y-161770000D01*
X103003162Y-161534683D01*
X102864090Y-161318559D01*
X102651890Y-161173569D01*
X102400000Y-161122560D01*
X101870146Y-161122560D01*
X101152586Y-160405000D01*
X101314250Y-160405000D01*
X101473000Y-160246250D01*
X101473000Y-158897000D01*
X101727000Y-158897000D01*
X101727000Y-160246250D01*
X101885750Y-160405000D01*
X102526310Y-160405000D01*
X102759699Y-160308327D01*
X102938327Y-160129698D01*
X103035000Y-159896309D01*
X103035000Y-159055750D01*
X102876250Y-158897000D01*
X101727000Y-158897000D01*
X101473000Y-158897000D01*
X100323750Y-158897000D01*
X100165000Y-159055750D01*
X100165000Y-159417414D01*
X99287440Y-158539854D01*
X99287440Y-157770000D01*
X99263674Y-157643691D01*
X100165000Y-157643691D01*
X100165000Y-158484250D01*
X100323750Y-158643000D01*
X101473000Y-158643000D01*
X101473000Y-157293750D01*
X101727000Y-157293750D01*
X101727000Y-158643000D01*
X102876250Y-158643000D01*
X103035000Y-158484250D01*
X103035000Y-157643691D01*
X102938327Y-157410302D01*
X102759699Y-157231673D01*
X102526310Y-157135000D01*
X101885750Y-157135000D01*
X101727000Y-157293750D01*
X101473000Y-157293750D01*
X101314250Y-157135000D01*
X100673690Y-157135000D01*
X100440301Y-157231673D01*
X100261673Y-157410302D01*
X100165000Y-157643691D01*
X99263674Y-157643691D01*
X99243162Y-157534683D01*
X99104090Y-157318559D01*
X98891890Y-157173569D01*
X98779964Y-157150904D01*
X99650434Y-156280434D01*
X99691467Y-156219024D01*
X99831439Y-156009541D01*
X99895000Y-155690000D01*
X99895000Y-155377368D01*
X100251475Y-155139179D01*
X100616737Y-154592526D01*
X100745000Y-153947704D01*
X100745000Y-153277000D01*
X102455000Y-153277000D01*
X102455000Y-154027000D01*
X102631864Y-154662154D01*
X103038328Y-155181277D01*
X103612511Y-155505337D01*
X103751721Y-155539654D01*
X104013000Y-155420957D01*
X104013000Y-153277000D01*
X104267000Y-153277000D01*
X104267000Y-155420957D01*
X104528279Y-155539654D01*
X104667489Y-155505337D01*
X105241672Y-155181277D01*
X105648136Y-154662154D01*
X105825000Y-154027000D01*
X105825000Y-153277000D01*
X104267000Y-153277000D01*
X104013000Y-153277000D01*
X102455000Y-153277000D01*
X100745000Y-153277000D01*
X100745000Y-152352296D01*
X100729228Y-152273000D01*
X102455000Y-152273000D01*
X102455000Y-153023000D01*
X104013000Y-153023000D01*
X104013000Y-150879043D01*
X104267000Y-150879043D01*
X104267000Y-153023000D01*
X105825000Y-153023000D01*
X105825000Y-152273000D01*
X105648136Y-151637846D01*
X105241672Y-151118723D01*
X104667489Y-150794663D01*
X104528279Y-150760346D01*
X104267000Y-150879043D01*
X104013000Y-150879043D01*
X103751721Y-150760346D01*
X103612511Y-150794663D01*
X103038328Y-151118723D01*
X102631864Y-151637846D01*
X102455000Y-152273000D01*
X100729228Y-152273000D01*
X100616737Y-151707474D01*
X100251475Y-151160821D01*
X99895000Y-150922632D01*
X99895000Y-147144484D01*
X99869175Y-147014652D01*
X99831440Y-146824944D01*
X99650434Y-146554050D01*
X98284090Y-145187706D01*
X107506838Y-145187706D01*
X108385000Y-146065868D01*
X108385000Y-150922632D01*
X108028525Y-151160821D01*
X107663263Y-151707474D01*
X107535000Y-152352296D01*
X107535000Y-153654132D01*
X104819566Y-156369566D01*
X104638561Y-156640459D01*
X104575000Y-156960000D01*
X104575000Y-157122560D01*
X104560000Y-157122560D01*
X104324683Y-157166838D01*
X104108559Y-157305910D01*
X103963569Y-157518110D01*
X103912560Y-157770000D01*
X103912560Y-159770000D01*
X103956838Y-160005317D01*
X104095910Y-160221441D01*
X104308110Y-160366431D01*
X104560000Y-160417440D01*
X106260000Y-160417440D01*
X106416603Y-160387973D01*
X107776950Y-161748320D01*
X107772560Y-161770000D01*
X107772560Y-163770000D01*
X107816838Y-164005317D01*
X107955910Y-164221441D01*
X108168110Y-164366431D01*
X108420000Y-164417440D01*
X110020000Y-164417440D01*
X110255317Y-164373162D01*
X110471441Y-164234090D01*
X110616431Y-164021890D01*
X110667440Y-163770000D01*
X110667440Y-161770000D01*
X110623162Y-161534683D01*
X110484090Y-161318559D01*
X110271890Y-161173569D01*
X110020000Y-161122560D01*
X109512926Y-161122560D01*
X108795366Y-160405000D01*
X108934250Y-160405000D01*
X109093000Y-160246250D01*
X109093000Y-158897000D01*
X109347000Y-158897000D01*
X109347000Y-160246250D01*
X109505750Y-160405000D01*
X110146310Y-160405000D01*
X110379699Y-160308327D01*
X110558327Y-160129698D01*
X110655000Y-159896309D01*
X110655000Y-159055750D01*
X110496250Y-158897000D01*
X109347000Y-158897000D01*
X109093000Y-158897000D01*
X107943750Y-158897000D01*
X107785000Y-159055750D01*
X107785000Y-159394634D01*
X106907440Y-158517074D01*
X106907440Y-157770000D01*
X106883674Y-157643691D01*
X107785000Y-157643691D01*
X107785000Y-158484250D01*
X107943750Y-158643000D01*
X109093000Y-158643000D01*
X109093000Y-157293750D01*
X109347000Y-157293750D01*
X109347000Y-158643000D01*
X110496250Y-158643000D01*
X110655000Y-158484250D01*
X110655000Y-157643691D01*
X110558327Y-157410302D01*
X110379699Y-157231673D01*
X110146310Y-157135000D01*
X109505750Y-157135000D01*
X109347000Y-157293750D01*
X109093000Y-157293750D01*
X108934250Y-157135000D01*
X108293690Y-157135000D01*
X108060301Y-157231673D01*
X107881673Y-157410302D01*
X107785000Y-157643691D01*
X106883674Y-157643691D01*
X106863162Y-157534683D01*
X106724090Y-157318559D01*
X106511890Y-157173569D01*
X106399964Y-157150904D01*
X108258215Y-155292653D01*
X108575178Y-155504441D01*
X109220000Y-155632704D01*
X109864822Y-155504441D01*
X110411475Y-155139179D01*
X110776737Y-154592526D01*
X110855932Y-154194386D01*
X110855932Y-164823200D01*
X110144132Y-165535000D01*
X106245000Y-165535000D01*
X106245000Y-164417440D01*
X106260000Y-164417440D01*
X106495317Y-164373162D01*
X106711441Y-164234090D01*
X106856431Y-164021890D01*
X106907440Y-163770000D01*
X106907440Y-161770000D01*
X106863162Y-161534683D01*
X106724090Y-161318559D01*
X106511890Y-161173569D01*
X106260000Y-161122560D01*
X104560000Y-161122560D01*
X104324683Y-161166838D01*
X104108559Y-161305910D01*
X103963569Y-161518110D01*
X103912560Y-161770000D01*
X103912560Y-163770000D01*
X103956838Y-164005317D01*
X104095910Y-164221441D01*
X104308110Y-164366431D01*
X104560000Y-164417440D01*
X104575000Y-164417440D01*
X104575000Y-165535000D01*
X98625000Y-165535000D01*
X98625000Y-164417440D01*
X98640000Y-164417440D01*
X98875317Y-164373162D01*
X99091441Y-164234090D01*
X99236431Y-164021890D01*
X99287440Y-163770000D01*
X99287440Y-161770000D01*
X99243162Y-161534683D01*
X99104090Y-161318559D01*
X98891890Y-161173569D01*
X98640000Y-161122560D01*
X96940000Y-161122560D01*
X96704683Y-161166838D01*
X96488559Y-161305910D01*
X96343569Y-161518110D01*
X96292560Y-161770000D01*
X96292560Y-163770000D01*
X96336838Y-164005317D01*
X96475910Y-164221441D01*
X96688110Y-164366431D01*
X96940000Y-164417440D01*
X96955000Y-164417440D01*
X96955000Y-165535000D01*
X91005000Y-165535000D01*
X91005000Y-164417440D01*
X91020000Y-164417440D01*
X91255317Y-164373162D01*
X91471441Y-164234090D01*
X91616431Y-164021890D01*
X91667440Y-163770000D01*
X91667440Y-161770000D01*
X91623162Y-161534683D01*
X91484090Y-161318559D01*
X91271890Y-161173569D01*
X91020000Y-161122560D01*
X89320000Y-161122560D01*
X89084683Y-161166838D01*
X88868559Y-161305910D01*
X88723569Y-161518110D01*
X88672560Y-161770000D01*
X88672560Y-163770000D01*
X88716838Y-164005317D01*
X88855910Y-164221441D01*
X89068110Y-164366431D01*
X89320000Y-164417440D01*
X89335000Y-164417440D01*
X89335000Y-165535000D01*
X84550156Y-165535000D01*
X83427434Y-164412278D01*
X83635317Y-164373162D01*
X83851441Y-164234090D01*
X83996431Y-164021890D01*
X84047440Y-163770000D01*
X84047440Y-161770000D01*
X84003162Y-161534683D01*
X83864090Y-161318559D01*
X83651890Y-161173569D01*
X83400000Y-161122560D01*
X81700000Y-161122560D01*
X81464683Y-161166838D01*
X81248559Y-161305910D01*
X81103569Y-161518110D01*
X81052560Y-161770000D01*
X81052560Y-163770000D01*
X81096838Y-164005317D01*
X81235910Y-164221441D01*
X81448110Y-164366431D01*
X81700000Y-164417440D01*
X81715000Y-164417440D01*
X81715000Y-164715712D01*
X81778561Y-165035253D01*
X81881863Y-165189855D01*
X81959566Y-165306146D01*
X83613854Y-166960434D01*
X83884748Y-167141440D01*
X84204288Y-167205000D01*
X110490000Y-167205000D01*
X110809541Y-167141439D01*
X111080434Y-166960434D01*
X112281366Y-165759502D01*
X112420875Y-165550712D01*
X112462371Y-165488609D01*
X112525932Y-165169068D01*
X112525932Y-153277000D01*
X112615000Y-153277000D01*
X112615000Y-154027000D01*
X112791864Y-154662154D01*
X113198328Y-155181277D01*
X113772511Y-155505337D01*
X113911721Y-155539654D01*
X114173000Y-155420957D01*
X114173000Y-153277000D01*
X114427000Y-153277000D01*
X114427000Y-155420957D01*
X114688279Y-155539654D01*
X114827489Y-155505337D01*
X115401672Y-155181277D01*
X115808136Y-154662154D01*
X115985000Y-154027000D01*
X115985000Y-153277000D01*
X114427000Y-153277000D01*
X114173000Y-153277000D01*
X112615000Y-153277000D01*
X112525932Y-153277000D01*
X112525932Y-152273000D01*
X112615000Y-152273000D01*
X112615000Y-153023000D01*
X114173000Y-153023000D01*
X114173000Y-150879043D01*
X114427000Y-150879043D01*
X114427000Y-153023000D01*
X115985000Y-153023000D01*
X115985000Y-152273000D01*
X115808136Y-151637846D01*
X115401672Y-151118723D01*
X114827489Y-150794663D01*
X114688279Y-150760346D01*
X114427000Y-150879043D01*
X114173000Y-150879043D01*
X113911721Y-150760346D01*
X113772511Y-150794663D01*
X113198328Y-151118723D01*
X112791864Y-151637846D01*
X112615000Y-152273000D01*
X112525932Y-152273000D01*
X112525932Y-145161982D01*
X112462371Y-144842441D01*
X112281366Y-144571548D01*
X109020444Y-141310626D01*
X108749551Y-141129621D01*
X108430010Y-141066060D01*
X108177070Y-141066060D01*
X108177070Y-139601090D01*
X108132792Y-139365773D01*
X107993720Y-139149649D01*
X107781520Y-139004659D01*
X107529630Y-138953650D01*
X105830370Y-138953650D01*
X105595053Y-138997928D01*
X105378929Y-139137000D01*
X105233939Y-139349200D01*
X105182930Y-139601090D01*
X105182930Y-141066060D01*
X98625000Y-141066060D01*
X98625000Y-135700000D01*
X98561439Y-135380459D01*
X98405741Y-135147440D01*
X98490000Y-135147440D01*
X98725317Y-135103162D01*
X98941441Y-134964090D01*
X99086431Y-134751890D01*
X99137440Y-134500000D01*
X99137440Y-131500000D01*
X99093162Y-131264683D01*
X98954090Y-131048559D01*
X98741890Y-130903569D01*
X98490000Y-130852560D01*
X95490000Y-130852560D01*
X95254683Y-130896838D01*
X95038559Y-131035910D01*
X94893569Y-131248110D01*
X94842560Y-131500000D01*
X94842560Y-134500000D01*
X94886838Y-134735317D01*
X95025910Y-134951441D01*
X95238110Y-135096431D01*
X95490000Y-135147440D01*
X96204219Y-135147440D01*
X96218561Y-135219541D01*
X96326083Y-135380459D01*
X96399566Y-135490434D01*
X96955000Y-136045868D01*
X96955000Y-141066060D01*
X70938940Y-141066060D01*
X70619399Y-141129621D01*
X70348506Y-141310626D01*
X69989566Y-141669566D01*
X69808561Y-141940459D01*
X69794219Y-142012560D01*
X69580000Y-142012560D01*
X69344683Y-142056838D01*
X69128559Y-142195910D01*
X68983569Y-142408110D01*
X68932560Y-142660000D01*
X68932560Y-144360000D01*
X68976838Y-144595317D01*
X69115910Y-144811441D01*
X69328110Y-144956431D01*
X69580000Y-145007440D01*
X69745000Y-145007440D01*
X69745000Y-145452311D01*
X69808561Y-145771852D01*
X69836338Y-145813423D01*
X69989566Y-146042745D01*
X70285000Y-146338179D01*
X70285000Y-148514517D01*
X70185879Y-148534233D01*
X69720332Y-148845302D01*
X69600261Y-149025000D01*
X67719000Y-149025000D01*
X67399459Y-149088561D01*
X67243356Y-149192866D01*
X67128566Y-149269566D01*
X66103132Y-150295000D01*
X65233443Y-150295000D01*
X65319970Y-149860000D01*
X65272005Y-149618863D01*
X66630434Y-148260434D01*
X66811440Y-147989540D01*
X66875000Y-147670000D01*
X66875000Y-147471903D01*
X67207433Y-147249778D01*
X67565325Y-146714155D01*
X67691000Y-146082345D01*
X67691000Y-146017655D01*
X67565325Y-145385845D01*
X67312483Y-145007440D01*
X67580000Y-145007440D01*
X67815317Y-144963162D01*
X68031441Y-144824090D01*
X68176431Y-144611890D01*
X68227440Y-144360000D01*
X68227440Y-142660000D01*
X68183162Y-142424683D01*
X68044090Y-142208559D01*
X67831890Y-142063569D01*
X67580000Y-142012560D01*
X65580000Y-142012560D01*
X65344683Y-142056838D01*
X65128559Y-142195910D01*
X64983569Y-142408110D01*
X64932560Y-142660000D01*
X64932560Y-144360000D01*
X64976838Y-144595317D01*
X64979537Y-144599512D01*
X64875699Y-144495673D01*
X64642310Y-144399000D01*
X63785750Y-144399000D01*
X63627000Y-144557750D01*
X63627000Y-145923000D01*
X63647000Y-145923000D01*
X63647000Y-146177000D01*
X63627000Y-146177000D01*
X63627000Y-147542250D01*
X63785750Y-147701000D01*
X64642310Y-147701000D01*
X64875699Y-147604327D01*
X65054327Y-147425698D01*
X65071999Y-147383034D01*
X65116418Y-147412714D01*
X64067771Y-148461361D01*
X63884970Y-148425000D01*
X63115030Y-148425000D01*
X62565879Y-148534233D01*
X62100332Y-148845302D01*
X61789263Y-149310849D01*
X61680030Y-149860000D01*
X61766557Y-150295000D01*
X60035868Y-150295000D01*
X59010434Y-149269566D01*
X58895644Y-149192866D01*
X58739541Y-149088561D01*
X58541994Y-149049266D01*
X58382086Y-148809946D01*
X57900317Y-148488039D01*
X57332032Y-148375000D01*
X56967968Y-148375000D01*
X56603096Y-148447578D01*
X56565000Y-148440000D01*
X49104438Y-148440000D01*
X49104438Y-146511886D01*
X49231083Y-146385462D01*
X49251725Y-146335750D01*
X61849000Y-146335750D01*
X61849000Y-147192309D01*
X61945673Y-147425698D01*
X62124301Y-147604327D01*
X62357690Y-147701000D01*
X63214250Y-147701000D01*
X63373000Y-147542250D01*
X63373000Y-146177000D01*
X62007750Y-146177000D01*
X61849000Y-146335750D01*
X49251725Y-146335750D01*
X49404241Y-145968453D01*
X49404635Y-145516922D01*
X49232205Y-145099611D01*
X49040620Y-144907691D01*
X61849000Y-144907691D01*
X61849000Y-145764250D01*
X62007750Y-145923000D01*
X63373000Y-145923000D01*
X63373000Y-144557750D01*
X63214250Y-144399000D01*
X62357690Y-144399000D01*
X62124301Y-144495673D01*
X61945673Y-144674302D01*
X61849000Y-144907691D01*
X49040620Y-144907691D01*
X48913203Y-144780052D01*
X48496194Y-144606894D01*
X48044663Y-144606500D01*
X47627352Y-144778930D01*
X47307793Y-145097932D01*
X47134635Y-145514941D01*
X47134241Y-145966472D01*
X47306671Y-146383783D01*
X47434438Y-146511773D01*
X47434438Y-148852370D01*
X47224683Y-148891838D01*
X47008559Y-149030910D01*
X46863569Y-149243110D01*
X46812560Y-149495000D01*
X41710000Y-149495000D01*
X41710000Y-147733508D01*
X41756091Y-147752600D01*
X42714250Y-147752600D01*
X42873000Y-147593850D01*
X42873000Y-146127000D01*
X43127000Y-146127000D01*
X43127000Y-147593850D01*
X43285750Y-147752600D01*
X44243909Y-147752600D01*
X44477298Y-147655927D01*
X44655927Y-147477299D01*
X44752600Y-147243910D01*
X44752600Y-146285750D01*
X44593850Y-146127000D01*
X43127000Y-146127000D01*
X42873000Y-146127000D01*
X42853000Y-146127000D01*
X42853000Y-145873000D01*
X42873000Y-145873000D01*
X42873000Y-144406150D01*
X43127000Y-144406150D01*
X43127000Y-145873000D01*
X44593850Y-145873000D01*
X44752600Y-145714250D01*
X44752600Y-144756090D01*
X44655927Y-144522701D01*
X44477298Y-144344073D01*
X44243909Y-144247400D01*
X43285750Y-144247400D01*
X43127000Y-144406150D01*
X42873000Y-144406150D01*
X42714250Y-144247400D01*
X41756091Y-144247400D01*
X41710000Y-144266492D01*
X41710000Y-134772618D01*
X41925566Y-135071277D01*
X43258800Y-135631342D01*
X44704875Y-135638568D01*
X46043639Y-135091854D01*
X46074434Y-135071277D01*
X46417025Y-134596630D01*
X46334365Y-134513970D01*
X75165635Y-134513970D01*
X75325418Y-134832739D01*
X76116187Y-135142723D01*
X76965387Y-135126497D01*
X77373835Y-134957312D01*
X80722293Y-134957312D01*
X81125762Y-135483924D01*
X82639730Y-136127307D01*
X84284666Y-136142346D01*
X85810145Y-135526750D01*
X85874238Y-135483924D01*
X86277707Y-134957312D01*
X83500000Y-132179605D01*
X80722293Y-134957312D01*
X77373835Y-134957312D01*
X77674582Y-134832739D01*
X77834365Y-134513970D01*
X76500000Y-133179605D01*
X75165635Y-134513970D01*
X46334365Y-134513970D01*
X44000000Y-132179605D01*
X43985858Y-132193748D01*
X43806253Y-132014143D01*
X43820395Y-132000000D01*
X43806253Y-131985858D01*
X43985858Y-131806253D01*
X44000000Y-131820395D01*
X44014143Y-131806253D01*
X44193748Y-131985858D01*
X44179605Y-132000000D01*
X46596630Y-134417025D01*
X47071277Y-134074434D01*
X47631342Y-132741200D01*
X47631966Y-132616187D01*
X74357277Y-132616187D01*
X74373503Y-133465387D01*
X74667261Y-134174582D01*
X74986030Y-134334365D01*
X76320395Y-133000000D01*
X76679605Y-133000000D01*
X78013970Y-134334365D01*
X78332739Y-134174582D01*
X78642723Y-133383813D01*
X78631275Y-132784666D01*
X79357654Y-132784666D01*
X79973250Y-134310145D01*
X80016076Y-134374238D01*
X80542688Y-134777707D01*
X83320395Y-132000000D01*
X83679605Y-132000000D01*
X86457312Y-134777707D01*
X86983924Y-134374238D01*
X87627307Y-132860270D01*
X87642346Y-131215334D01*
X87026750Y-129689855D01*
X86983924Y-129625762D01*
X86457312Y-129222293D01*
X83679605Y-132000000D01*
X83320395Y-132000000D01*
X80542688Y-129222293D01*
X80016076Y-129625762D01*
X79372693Y-131139730D01*
X79357654Y-132784666D01*
X78631275Y-132784666D01*
X78626497Y-132534613D01*
X78332739Y-131825418D01*
X78013970Y-131665635D01*
X76679605Y-133000000D01*
X76320395Y-133000000D01*
X74986030Y-131665635D01*
X74667261Y-131825418D01*
X74357277Y-132616187D01*
X47631966Y-132616187D01*
X47637613Y-131486030D01*
X75165635Y-131486030D01*
X76500000Y-132820395D01*
X77834365Y-131486030D01*
X77674582Y-131167261D01*
X76883813Y-130857277D01*
X76034613Y-130873503D01*
X75325418Y-131167261D01*
X75165635Y-131486030D01*
X47637613Y-131486030D01*
X47638568Y-131295125D01*
X47091854Y-129956361D01*
X47071277Y-129925566D01*
X46668709Y-129635000D01*
X47545238Y-129635000D01*
X47545238Y-129042688D01*
X80722293Y-129042688D01*
X83500000Y-131820395D01*
X86277707Y-129042688D01*
X85874238Y-128516076D01*
X84360270Y-127872693D01*
X82715334Y-127857654D01*
X81189855Y-128473250D01*
X81125762Y-128516076D01*
X80722293Y-129042688D01*
X47545238Y-129042688D01*
X47545238Y-120634368D01*
X47893856Y-120285750D01*
X48247400Y-120285750D01*
X48247400Y-121243910D01*
X48344073Y-121477299D01*
X48522702Y-121655927D01*
X48756091Y-121752600D01*
X49714250Y-121752600D01*
X49873000Y-121593850D01*
X49873000Y-120127000D01*
X50127000Y-120127000D01*
X50127000Y-121593850D01*
X50285750Y-121752600D01*
X51243909Y-121752600D01*
X51477298Y-121655927D01*
X51655927Y-121477299D01*
X51752600Y-121243910D01*
X51752600Y-120285750D01*
X51593850Y-120127000D01*
X50127000Y-120127000D01*
X49873000Y-120127000D01*
X48406150Y-120127000D01*
X48247400Y-120285750D01*
X47893856Y-120285750D01*
X48356378Y-119823228D01*
X48406150Y-119873000D01*
X49873000Y-119873000D01*
X49873000Y-119853000D01*
X50127000Y-119853000D01*
X50127000Y-119873000D01*
X51593850Y-119873000D01*
X51752600Y-119714250D01*
X51752600Y-118756090D01*
X51733509Y-118710000D01*
X115269872Y-118710000D01*
X115234960Y-118882400D01*
M02*
