G04 #@! TF.FileFunction,Soldermask,Bot*
%FSLAX46Y46*%
G04 Gerber Fmt 4.6, Leading zero omitted, Abs format (unit mm)*
G04 Created by KiCad (PCBNEW 4.0.5+dfsg1-4) date Mon May 15 15:44:01 2017*
%MOMM*%
%LPD*%
G01*
G04 APERTURE LIST*
%ADD10C,0.100000*%
%ADD11R,2.400000X2.100000*%
%ADD12O,2.400000X2.100000*%
%ADD13R,2.500000X4.000000*%
%ADD14O,2.500000X4.000000*%
%ADD15R,2.100000X2.400000*%
%ADD16O,2.700000X2.000000*%
%ADD17R,2.000000X2.400000*%
%ADD18R,3.100020X3.900120*%
%ADD19C,3.400000*%
%ADD20R,3.400000X3.400000*%
%ADD21R,2.635200X2.635200*%
%ADD22R,2.300000X2.400000*%
%ADD23C,2.300000*%
%ADD24R,1.997660X2.200860*%
%ADD25R,2.432000X2.432000*%
%ADD26O,2.432000X2.432000*%
%ADD27R,2.900000X4.150000*%
%ADD28C,7.400000*%
%ADD29C,6.400000*%
G04 APERTURE END LIST*
D10*
D11*
X57150000Y-157480000D03*
D12*
X57150000Y-154940000D03*
X57150000Y-152400000D03*
X57150000Y-149860000D03*
X57150000Y-160020000D03*
X57150000Y-162560000D03*
D13*
X78740000Y-151130000D03*
D14*
X83820000Y-151130000D03*
X88900000Y-151130000D03*
X93980000Y-151130000D03*
X99060000Y-151130000D03*
X104140000Y-151130000D03*
X109220000Y-151130000D03*
X114300000Y-151130000D03*
D15*
X82550000Y-160750000D03*
X82550000Y-156750000D03*
X90170000Y-160750000D03*
X90170000Y-156750000D03*
D16*
X63500000Y-149860000D03*
X63500000Y-152400000D03*
X63500000Y-154940000D03*
X63500000Y-157480000D03*
X71120000Y-157480000D03*
X71120000Y-154940000D03*
X71120000Y-152400000D03*
X71120000Y-149860000D03*
D17*
X86360000Y-160750000D03*
X86360000Y-156750000D03*
X93980000Y-160750000D03*
X93980000Y-156750000D03*
X101600000Y-160750000D03*
X101600000Y-156750000D03*
X109220000Y-160750000D03*
X109220000Y-156750000D03*
X53340000Y-150400000D03*
X53340000Y-154400000D03*
D18*
X106680000Y-141901060D03*
X106680000Y-135098940D03*
D15*
X97790000Y-160750000D03*
X97790000Y-156750000D03*
X105410000Y-160750000D03*
X105410000Y-156750000D03*
X60325000Y-159480000D03*
X60325000Y-155480000D03*
D11*
X70580000Y-143510000D03*
X66580000Y-143510000D03*
D19*
X76500000Y-133000000D03*
D20*
X96990000Y-133000000D03*
D21*
X117000000Y-120000000D03*
X50000000Y-120000000D03*
D22*
X68580000Y-162560000D03*
D23*
X66040000Y-162560000D03*
D24*
X65890140Y-160020000D03*
X68729860Y-160020000D03*
D25*
X63500000Y-146050000D03*
D26*
X66040000Y-146050000D03*
D27*
X48260000Y-149275000D03*
X48260000Y-155525000D03*
D21*
X124000000Y-146000000D03*
X43000000Y-146000000D03*
D28*
X83500000Y-132000000D03*
D29*
X123000000Y-132000000D03*
X44000000Y-132000000D03*
D28*
X83500000Y-168500000D03*
M02*
